{"glyphs":{"0":{"ha":606,"x_min":43,"x_max":563,"o":"m 253 -18 q 101 44 158 -18 q 43 210 43 107 q 49 272 43 243 q 108 418 63 354 q 218 518 153 482 q 356 554 283 554 q 506 494 450 554 q 563 333 563 433 q 557 268 563 297 q 499 121 543 186 q 390 19 454 56 q 253 -18 325 -18 m 271 -1 q 404 67 351 -1 q 478 251 457 135 q 486 343 486 301 q 446 488 486 439 q 342 538 406 538 q 204 467 261 538 q 126 283 147 396 q 119 203 119 249 q 159 54 119 110 q 271 -1 199 -1 z "},"1":{"ha":404,"x_min":17,"x_max":338,"o":"m 22 0 q 17 8 17 0 q 22 17 17 17 q 102 24 75 17 q 142 51 129 31 q 163 113 154 71 l 210 374 q 218 443 218 419 q 213 466 218 458 q 197 474 208 474 q 99 438 175 474 l 96 436 q 89 443 90 436 q 93 451 88 450 l 290 549 q 299 549 294 551 q 300 543 303 546 l 224 113 q 219 71 219 88 q 243 27 219 38 q 333 17 267 17 q 338 8 338 17 q 333 0 338 0 q 268 1 292 0 l 179 3 l 89 1 q 22 0 65 0 z "},"2":{"ha":500,"x_min":3,"x_max":450,"o":"m 8 19 q 217 188 140 118 q 331 316 293 257 q 369 432 369 375 q 344 501 369 475 q 276 526 319 526 q 104 358 175 526 q 99 356 103 356 q 90 358 94 356 q 88 364 86 361 l 167 568 q 176 571 169 572 q 181 564 182 569 q 176 544 176 551 q 192 528 176 528 q 233 538 204 528 q 265 547 238 539 q 322 554 292 554 q 406 524 375 554 q 436 444 436 494 q 433 411 436 424 q 349 267 419 342 q 104 64 278 192 q 101 59 100 61 q 107 57 103 57 q 307 62 250 57 q 389 86 364 67 q 432 154 414 106 q 439 158 435 158 q 447 156 443 158 q 449 150 450 153 l 408 13 q 394 0 403 0 l 15 0 q 6 7 8 0 q 8 19 3 14 z "},"3":{"ha":471,"x_min":-49,"x_max":419,"o":"m 419 429 q 372 285 419 356 q 250 181 325 214 q 352 131 318 174 q 386 25 386 88 q 382 -17 386 4 q 318 -154 369 -83 q 176 -286 267 -225 q -39 -383 85 -347 q -47 -376 -44 -385 q -46 -367 -49 -368 q 201 -221 118 -318 q 303 -21 285 -124 q 307 25 307 3 q 280 116 307 81 q 192 151 253 151 q 128 142 169 151 q 121 150 124 140 q 122 161 118 160 q 278 240 228 189 q 344 376 329 290 q 350 425 350 410 q 326 499 350 472 q 256 526 303 526 q 156 485 200 526 q 75 357 111 444 q 71 356 74 356 q 62 358 67 356 q 58 364 57 361 l 142 567 q 146 568 143 568 q 153 565 150 568 q 156 558 157 563 q 150 538 150 547 q 167 524 150 524 q 207 535 181 524 q 256 549 235 544 q 299 554 276 554 q 388 519 357 554 q 419 429 419 483 z "},"4":{"ha":585,"x_min":-28,"x_max":506,"o":"m 500 60 q 500 31 506 60 q 489 1 494 1 q 379 7 451 4 l 339 -219 q 326 -239 336 -235 l 283 -261 l 275 -264 q 271 -253 269 -264 l 317 8 q -18 11 228 11 q -26 17 -24 11 q -22 28 -28 22 l 457 550 q 464 553 460 553 q 472 551 468 553 q 475 544 476 549 l 388 57 q 500 60 422 57 m 47 51 q 325 54 164 51 l 393 438 l 42 61 q 47 51 35 51 z "},"5":{"ha":519,"x_min":-44,"x_max":500,"o":"m 485 588 q 489 590 488 590 q 497 588 493 590 q 499 582 500 585 l 458 496 q 442 475 450 479 q 418 471 435 471 l 181 465 q 157 444 165 465 l 100 272 q 324 217 251 271 q 396 65 396 163 q 392 13 396 40 q 272 -194 369 -104 q -32 -382 174 -283 l -33 -382 q -42 -376 -39 -382 q -39 -367 -44 -369 q 217 -195 136 -282 q 314 -11 297 -108 q 318 40 318 17 q 256 182 318 132 q 75 232 194 232 q 67 237 69 232 q 67 249 64 242 l 150 496 q 156 508 153 506 q 169 511 158 510 q 385 540 329 532 q 458 558 440 549 q 485 588 475 567 z "},"6":{"ha":582,"x_min":51,"x_max":624,"o":"m 265 -18 q 109 39 167 -18 q 51 200 51 96 q 61 289 51 244 q 160 543 85 418 q 353 767 235 668 q 614 918 471 865 q 622 912 619 919 q 619 901 624 904 q 385 745 488 842 q 220 536 283 649 q 138 314 157 424 q 128 222 128 269 q 174 66 128 125 q 306 7 221 7 q 401 48 363 7 q 451 161 439 89 q 457 219 457 203 q 430 320 457 283 q 349 357 403 357 q 281 340 314 357 q 203 286 247 324 l 200 285 q 193 289 196 285 q 192 296 190 293 q 392 392 279 392 q 499 349 464 392 q 533 242 533 307 q 529 197 533 221 q 481 90 519 139 q 385 11 443 40 q 265 -18 328 -18 z "},"7":{"ha":536,"x_min":-4,"x_max":536,"o":"m 4 -382 q -2 -378 0 -382 q -1 -372 -4 -375 l 481 469 q 478 479 489 479 q 217 473 292 479 q 115 449 143 467 q 67 383 88 431 q 61 381 67 381 q 53 383 57 381 q 50 389 49 386 l 125 576 q 129 579 125 579 q 138 576 133 579 q 142 572 143 574 q 138 553 138 560 q 149 540 138 543 q 193 536 161 536 l 525 536 q 533 530 531 536 q 533 518 536 524 l 111 -306 q 78 -339 99 -329 l 6 -382 l 4 -382 z "},"8":{"ha":611,"x_min":44,"x_max":564,"o":"m 406 476 q 524 379 483 425 q 564 263 564 333 q 561 224 564 238 q 505 100 549 156 q 398 13 461 44 q 268 -18 335 -18 q 148 8 199 -18 q 71 76 97 33 q 44 171 44 119 q 118 347 44 264 q 286 472 192 431 q 216 536 240 506 q 192 608 192 567 q 194 633 192 617 q 237 723 203 686 q 316 778 271 760 q 406 797 361 797 q 488 777 453 797 q 540 726 522 757 q 558 663 558 694 q 556 639 558 653 q 506 556 547 601 q 406 476 465 511 m 258 647 q 292 563 258 597 q 394 483 326 528 q 468 564 444 524 q 492 653 492 604 q 460 741 492 706 q 376 776 429 776 q 292 742 325 776 q 258 647 258 708 m 488 183 q 492 229 492 208 q 469 321 492 282 q 414 385 446 360 q 326 447 382 411 l 301 463 q 185 371 231 428 q 126 243 139 314 q 122 197 122 221 q 172 61 122 117 q 307 6 222 6 q 424 53 372 6 q 488 183 475 100 z "},"9":{"ha":582,"x_min":-43,"x_max":526,"o":"m -32 -382 q -40 -375 -37 -383 q -37 -365 -43 -367 q 193 -210 93 -306 q 356 -1 293 -114 q 443 222 418 111 q 453 307 453 263 q 406 466 453 403 q 276 529 360 529 q 183 495 222 529 q 131 392 144 461 q 125 339 125 368 q 160 225 125 271 q 250 179 194 179 q 310 196 282 179 q 376 249 339 213 q 381 250 378 250 q 388 247 385 250 q 390 240 392 243 q 304 169 351 193 q 208 144 257 144 q 90 197 131 144 q 49 319 49 250 q 86 436 49 382 q 185 522 124 490 q 317 554 247 554 q 471 492 415 554 q 526 325 526 431 q 519 247 526 282 q 422 -7 497 118 q 228 -231 346 -132 q -32 -382 111 -329 z "},"\u0000":{"ha":0,"x_min":0,"x_max":0,"o":""},"\r":{"ha":325,"x_min":0,"x_max":0,"o":""}," ":{"ha":325,"x_min":0,"x_max":0,"o":""},"A":{"ha":832,"x_min":-53,"x_max":785,"o":"m 779 17 q 785 8 785 17 q 779 0 785 0 q 717 3 758 0 q 642 6 669 6 q 571 3 615 6 q 510 0 529 0 q 506 8 506 0 q 510 17 506 17 q 585 30 565 17 q 606 79 606 43 q 603 117 606 89 l 550 471 l 336 471 l 179 185 q 133 64 133 103 q 155 26 133 36 q 219 17 176 17 q 224 8 225 17 q 218 0 224 0 q 158 3 203 0 q 81 6 108 6 q 13 3 51 6 q -47 0 -26 0 q -53 8 -53 0 q -47 17 -53 17 q 131 167 44 17 l 531 882 q 540 886 533 886 q 556 879 553 886 l 671 117 q 685 55 676 75 q 715 26 694 35 q 779 17 736 17 m 350 497 l 546 497 l 504 776 l 350 497 z "},"Á":{"ha":832,"x_min":-53,"x_max":785,"o":"m 779 17 q 785 8 785 17 q 779 0 785 0 q 717 3 758 0 q 642 6 669 6 q 571 3 615 6 q 510 0 529 0 q 506 8 506 0 q 510 17 506 17 q 585 30 565 17 q 606 79 606 43 q 603 117 606 89 l 550 471 l 336 471 l 179 185 q 133 64 133 103 q 155 26 133 36 q 219 17 176 17 q 224 8 225 17 q 218 0 224 0 q 158 3 203 0 q 81 6 108 6 q 13 3 51 6 q -47 0 -26 0 q -53 8 -53 0 q -47 17 -53 17 q 131 167 44 17 l 531 882 q 540 886 533 886 q 556 879 553 886 l 671 117 q 685 55 676 75 q 715 26 694 35 q 779 17 736 17 m 350 497 l 546 497 l 504 776 l 350 497 m 467 942 q 460 948 461 942 q 463 957 458 954 q 632 1047 526 986 l 701 1086 q 730 1081 707 1089 q 770 1062 753 1072 q 778 1050 788 1051 q 620 1003 692 1029 q 469 943 549 978 l 467 942 z "},"Ă":{"ha":832,"x_min":-53,"x_max":785,"o":"m 779 17 q 785 8 785 17 q 779 0 785 0 q 717 3 758 0 q 642 6 669 6 q 571 3 615 6 q 510 0 529 0 q 506 8 506 0 q 510 17 506 17 q 585 30 565 17 q 606 79 606 43 q 603 117 606 89 l 550 471 l 336 471 l 179 185 q 133 64 133 103 q 155 26 133 36 q 219 17 176 17 q 224 8 225 17 q 218 0 224 0 q 158 3 203 0 q 81 6 108 6 q 13 3 51 6 q -47 0 -26 0 q -53 8 -53 0 q -47 17 -53 17 q 131 167 44 17 l 531 882 q 540 886 533 886 q 556 879 553 886 l 671 117 q 685 55 676 75 q 715 26 694 35 q 779 17 736 17 m 350 497 l 546 497 l 504 776 l 350 497 m 551 925 q 462 960 492 925 q 432 1042 432 996 q 449 1057 432 1050 q 479 1064 465 1064 q 490 1060 490 1064 q 516 991 493 1017 q 579 965 539 965 q 635 986 611 965 q 681 1054 658 1007 q 689 1058 683 1058 q 699 1056 694 1058 q 703 1050 704 1053 q 638 956 674 988 q 551 925 603 925 z "},"Ắ":{"ha":832,"x_min":-53,"x_max":785,"o":"m 779 17 q 785 8 785 17 q 779 0 785 0 q 717 3 758 0 q 642 6 669 6 q 571 3 615 6 q 510 0 529 0 q 506 8 506 0 q 510 17 506 17 q 585 30 565 17 q 606 79 606 43 q 603 117 606 89 l 550 471 l 336 471 l 179 185 q 133 64 133 103 q 155 26 133 36 q 219 17 176 17 q 224 8 225 17 q 218 0 224 0 q 158 3 203 0 q 81 6 108 6 q 13 3 51 6 q -47 0 -26 0 q -53 8 -53 0 q -47 17 -53 17 q 131 167 44 17 l 531 882 q 540 886 533 886 q 556 879 553 886 l 671 117 q 685 55 676 75 q 715 26 694 35 q 779 17 736 17 m 350 497 l 546 497 l 504 776 l 350 497 m 542 925 q 452 960 482 925 q 422 1042 422 996 q 439 1057 422 1050 q 469 1064 456 1064 q 481 1060 481 1064 q 506 991 483 1017 q 569 965 529 965 q 625 986 601 965 q 671 1054 649 1007 q 679 1058 674 1058 q 690 1056 685 1058 q 693 1050 694 1053 q 628 956 664 988 q 542 925 593 925 m 553 1043 q 549 1042 551 1042 q 543 1047 544 1042 q 544 1054 542 1051 q 681 1186 613 1111 q 706 1182 685 1190 q 744 1163 728 1174 q 750 1150 760 1151 q 651 1104 696 1129 q 553 1043 607 1079 z "},"Ặ":{"ha":832,"x_min":-53,"x_max":785,"o":"m 779 17 q 785 8 785 17 q 779 0 785 0 q 717 3 758 0 q 642 6 669 6 q 571 3 615 6 q 510 0 529 0 q 506 8 506 0 q 510 17 506 17 q 585 30 565 17 q 606 79 606 43 q 603 117 606 89 l 550 471 l 336 471 l 179 185 q 133 64 133 103 q 155 26 133 36 q 219 17 176 17 q 224 8 225 17 q 218 0 224 0 q 158 3 203 0 q 81 6 108 6 q 13 3 51 6 q -47 0 -26 0 q -53 8 -53 0 q -47 17 -53 17 q 131 167 44 17 l 531 882 q 540 886 533 886 q 556 879 553 886 l 671 117 q 685 55 676 75 q 715 26 694 35 q 779 17 736 17 m 350 497 l 546 497 l 504 776 l 350 497 m 349 -257 q 308 -243 322 -257 q 293 -203 293 -229 q 308 -165 293 -179 q 349 -151 322 -151 q 389 -165 375 -151 q 403 -203 403 -179 q 389 -243 403 -229 q 349 -257 375 -257 m 551 925 q 462 960 492 925 q 432 1042 432 996 q 449 1057 432 1050 q 479 1064 465 1064 q 490 1060 490 1064 q 516 991 493 1017 q 579 965 539 965 q 635 986 611 965 q 681 1054 658 1007 q 689 1058 683 1058 q 699 1056 694 1058 q 703 1050 704 1053 q 638 956 674 988 q 551 925 603 925 z "},"Ằ":{"ha":832,"x_min":-53,"x_max":785,"o":"m 779 17 q 785 8 785 17 q 779 0 785 0 q 717 3 758 0 q 642 6 669 6 q 571 3 615 6 q 510 0 529 0 q 506 8 506 0 q 510 17 506 17 q 585 30 565 17 q 606 79 606 43 q 603 117 606 89 l 550 471 l 336 471 l 179 185 q 133 64 133 103 q 155 26 133 36 q 219 17 176 17 q 224 8 225 17 q 218 0 224 0 q 158 3 203 0 q 81 6 108 6 q 13 3 51 6 q -47 0 -26 0 q -53 8 -53 0 q -47 17 -53 17 q 131 167 44 17 l 531 882 q 540 886 533 886 q 556 879 553 886 l 671 117 q 685 55 676 75 q 715 26 694 35 q 779 17 736 17 m 350 497 l 546 497 l 504 776 l 350 497 m 547 925 q 458 960 488 925 q 428 1042 428 996 q 444 1057 428 1050 q 475 1064 461 1064 q 486 1060 486 1064 q 512 991 489 1017 q 575 965 535 965 q 631 986 607 965 q 676 1054 654 1007 q 685 1058 679 1058 q 695 1056 690 1058 q 699 1050 700 1053 q 634 956 669 988 q 547 925 599 925 m 606 1043 q 446 1150 528 1111 q 456 1163 436 1151 q 501 1182 476 1174 q 529 1186 526 1190 q 618 1056 565 1119 q 619 1051 619 1054 q 615 1044 619 1047 q 606 1043 611 1042 z "},"Ẳ":{"ha":832,"x_min":-53,"x_max":785,"o":"m 779 17 q 785 8 785 17 q 779 0 785 0 q 717 3 758 0 q 642 6 669 6 q 571 3 615 6 q 510 0 529 0 q 506 8 506 0 q 510 17 506 17 q 585 30 565 17 q 606 79 606 43 q 603 117 606 89 l 550 471 l 336 471 l 179 185 q 133 64 133 103 q 155 26 133 36 q 219 17 176 17 q 224 8 225 17 q 218 0 224 0 q 158 3 203 0 q 81 6 108 6 q 13 3 51 6 q -47 0 -26 0 q -53 8 -53 0 q -47 17 -53 17 q 131 167 44 17 l 531 882 q 540 886 533 886 q 556 879 553 886 l 671 117 q 685 55 676 75 q 715 26 694 35 q 779 17 736 17 m 350 497 l 546 497 l 504 776 l 350 497 m 544 925 q 455 960 485 925 q 425 1042 425 996 q 442 1057 425 1050 q 472 1064 458 1064 q 483 1060 483 1064 q 509 991 486 1017 q 572 965 532 965 q 628 986 604 965 q 674 1054 651 1007 q 682 1058 676 1058 q 692 1056 688 1058 q 696 1050 697 1053 q 631 956 667 988 q 544 925 596 925 m 558 1032 q 563 1065 554 1050 q 589 1101 571 1079 q 612 1131 604 1121 q 621 1156 619 1142 q 611 1188 625 1176 q 579 1200 597 1200 q 544 1192 564 1200 l 543 1192 q 535 1197 539 1192 q 538 1203 532 1201 q 584 1222 560 1215 q 625 1229 608 1229 q 667 1211 654 1229 q 676 1171 681 1193 q 659 1135 672 1150 q 619 1096 646 1119 q 584 1062 596 1076 q 574 1032 572 1047 q 568 1029 576 1029 q 558 1032 560 1029 z "},"Ẵ":{"ha":832,"x_min":-53,"x_max":785,"o":"m 779 17 q 785 8 785 17 q 779 0 785 0 q 717 3 758 0 q 642 6 669 6 q 571 3 615 6 q 510 0 529 0 q 506 8 506 0 q 510 17 506 17 q 585 30 565 17 q 606 79 606 43 q 603 117 606 89 l 550 471 l 336 471 l 179 185 q 133 64 133 103 q 155 26 133 36 q 219 17 176 17 q 224 8 225 17 q 218 0 224 0 q 158 3 203 0 q 81 6 108 6 q 13 3 51 6 q -47 0 -26 0 q -53 8 -53 0 q -47 17 -53 17 q 131 167 44 17 l 531 882 q 540 886 533 886 q 556 879 553 886 l 671 117 q 685 55 676 75 q 715 26 694 35 q 779 17 736 17 m 350 497 l 546 497 l 504 776 l 350 497 m 544 925 q 455 960 485 925 q 425 1042 425 996 q 442 1057 425 1050 q 472 1064 458 1064 q 483 1060 483 1064 q 509 991 486 1017 q 572 965 532 965 q 628 986 604 965 q 674 1054 651 1007 q 682 1058 676 1058 q 692 1056 688 1058 q 696 1050 697 1053 q 631 956 667 988 q 544 925 596 925 m 413 1108 q 405 1112 408 1108 q 404 1118 401 1115 q 458 1174 426 1149 q 521 1199 489 1199 q 593 1183 544 1199 q 696 1164 654 1164 q 734 1174 719 1164 q 764 1201 749 1183 l 767 1201 q 774 1198 771 1201 q 774 1192 776 1194 q 714 1128 738 1144 q 665 1113 690 1113 q 622 1117 644 1113 q 578 1129 600 1122 q 482 1146 519 1146 q 448 1138 460 1146 q 427 1122 436 1131 q 414 1108 418 1113 l 413 1108 z "},"Ǎ":{"ha":832,"x_min":-53,"x_max":785,"o":"m 779 17 q 785 8 785 17 q 779 0 785 0 q 717 3 758 0 q 642 6 669 6 q 571 3 615 6 q 510 0 529 0 q 506 8 506 0 q 510 17 506 17 q 585 30 565 17 q 606 79 606 43 q 603 117 606 89 l 550 471 l 336 471 l 179 185 q 133 64 133 103 q 155 26 133 36 q 219 17 176 17 q 224 8 225 17 q 218 0 224 0 q 158 3 203 0 q 81 6 108 6 q 13 3 51 6 q -47 0 -26 0 q -53 8 -53 0 q -47 17 -53 17 q 131 167 44 17 l 531 882 q 540 886 533 886 q 556 879 553 886 l 671 117 q 685 55 676 75 q 715 26 694 35 q 779 17 736 17 m 350 497 l 546 497 l 504 776 l 350 497 m 436 1067 l 436 1068 q 440 1074 436 1071 q 446 1076 444 1078 l 560 990 l 697 1078 l 699 1078 q 706 1073 703 1078 q 706 1067 710 1068 l 561 938 q 547 932 556 932 q 535 938 540 932 l 436 1067 z "},"Â":{"ha":832,"x_min":-53,"x_max":785,"o":"m 779 17 q 785 8 785 17 q 779 0 785 0 q 717 3 758 0 q 642 6 669 6 q 571 3 615 6 q 510 0 529 0 q 506 8 506 0 q 510 17 506 17 q 585 30 565 17 q 606 79 606 43 q 603 117 606 89 l 550 471 l 336 471 l 179 185 q 133 64 133 103 q 155 26 133 36 q 219 17 176 17 q 224 8 225 17 q 218 0 224 0 q 158 3 203 0 q 81 6 108 6 q 13 3 51 6 q -47 0 -26 0 q -53 8 -53 0 q -47 17 -53 17 q 131 167 44 17 l 531 882 q 540 886 533 886 q 556 879 553 886 l 671 117 q 685 55 676 75 q 715 26 694 35 q 779 17 736 17 m 350 497 l 546 497 l 504 776 l 350 497 m 424 917 q 417 920 419 917 q 417 926 414 924 l 563 1054 q 575 1061 567 1061 q 588 1054 583 1061 l 688 926 l 688 925 q 684 917 688 921 q 678 917 681 914 l 563 1003 l 425 917 l 424 917 z "},"Ấ":{"ha":832,"x_min":-53,"x_max":854,"o":"m 779 17 q 785 8 785 17 q 779 0 785 0 q 717 3 758 0 q 642 6 669 6 q 571 3 615 6 q 510 0 529 0 q 506 8 506 0 q 510 17 506 17 q 585 30 565 17 q 606 79 606 43 q 603 117 606 89 l 550 471 l 336 471 l 179 185 q 133 64 133 103 q 155 26 133 36 q 219 17 176 17 q 224 8 225 17 q 218 0 224 0 q 158 3 203 0 q 81 6 108 6 q 13 3 51 6 q -47 0 -26 0 q -53 8 -53 0 q -47 17 -53 17 q 131 167 44 17 l 531 882 q 540 886 533 886 q 556 879 553 886 l 671 117 q 685 55 676 75 q 715 26 694 35 q 779 17 736 17 m 350 497 l 546 497 l 504 776 l 350 497 m 424 917 q 417 920 419 917 q 417 926 414 924 l 563 1054 q 575 1061 567 1061 q 588 1054 583 1061 l 688 926 l 688 925 q 684 917 688 921 q 678 917 681 914 l 563 1003 l 425 917 l 424 917 m 654 996 q 650 994 653 994 q 644 999 646 994 q 646 1007 643 1004 q 782 1139 714 1064 q 808 1135 786 1143 q 845 1115 829 1126 q 851 1103 861 1104 q 753 1057 797 1082 q 654 996 708 1032 z "},"Ậ":{"ha":832,"x_min":-53,"x_max":785,"o":"m 779 17 q 785 8 785 17 q 779 0 785 0 q 717 3 758 0 q 642 6 669 6 q 571 3 615 6 q 510 0 529 0 q 506 8 506 0 q 510 17 506 17 q 585 30 565 17 q 606 79 606 43 q 603 117 606 89 l 550 471 l 336 471 l 179 185 q 133 64 133 103 q 155 26 133 36 q 219 17 176 17 q 224 8 225 17 q 218 0 224 0 q 158 3 203 0 q 81 6 108 6 q 13 3 51 6 q -47 0 -26 0 q -53 8 -53 0 q -47 17 -53 17 q 131 167 44 17 l 531 882 q 540 886 533 886 q 556 879 553 886 l 671 117 q 685 55 676 75 q 715 26 694 35 q 779 17 736 17 m 350 497 l 546 497 l 504 776 l 350 497 m 349 -257 q 308 -243 322 -257 q 293 -203 293 -229 q 308 -165 293 -179 q 349 -151 322 -151 q 389 -165 375 -151 q 403 -203 403 -179 q 389 -243 403 -229 q 349 -257 375 -257 m 424 917 q 417 920 419 917 q 417 926 414 924 l 563 1054 q 575 1061 567 1061 q 588 1054 583 1061 l 688 926 l 688 925 q 684 917 688 921 q 678 917 681 914 l 563 1003 l 425 917 l 424 917 z "},"Ầ":{"ha":832,"x_min":-53,"x_max":785,"o":"m 779 17 q 785 8 785 17 q 779 0 785 0 q 717 3 758 0 q 642 6 669 6 q 571 3 615 6 q 510 0 529 0 q 506 8 506 0 q 510 17 506 17 q 585 30 565 17 q 606 79 606 43 q 603 117 606 89 l 550 471 l 336 471 l 179 185 q 133 64 133 103 q 155 26 133 36 q 219 17 176 17 q 224 8 225 17 q 218 0 224 0 q 158 3 203 0 q 81 6 108 6 q 13 3 51 6 q -47 0 -26 0 q -53 8 -53 0 q -47 17 -53 17 q 131 167 44 17 l 531 882 q 540 886 533 886 q 556 879 553 886 l 671 117 q 685 55 676 75 q 715 26 694 35 q 779 17 736 17 m 350 497 l 546 497 l 504 776 l 350 497 m 421 917 q 414 920 417 917 q 414 926 411 924 l 560 1054 q 572 1061 564 1061 q 585 1054 581 1061 l 685 926 l 685 925 q 681 917 685 921 q 675 917 678 914 l 560 1003 l 422 917 l 421 917 m 757 976 q 597 1083 679 1044 q 608 1096 588 1085 q 653 1115 628 1107 q 681 1119 678 1124 q 769 989 717 1053 q 771 985 771 988 q 767 978 771 981 q 757 976 763 975 z "},"Ẩ":{"ha":832,"x_min":-53,"x_max":785,"o":"m 779 17 q 785 8 785 17 q 779 0 785 0 q 717 3 758 0 q 642 6 669 6 q 571 3 615 6 q 510 0 529 0 q 506 8 506 0 q 510 17 506 17 q 585 30 565 17 q 606 79 606 43 q 603 117 606 89 l 550 471 l 336 471 l 179 185 q 133 64 133 103 q 155 26 133 36 q 219 17 176 17 q 224 8 225 17 q 218 0 224 0 q 158 3 203 0 q 81 6 108 6 q 13 3 51 6 q -47 0 -26 0 q -53 8 -53 0 q -47 17 -53 17 q 131 167 44 17 l 531 882 q 540 886 533 886 q 556 879 553 886 l 671 117 q 685 55 676 75 q 715 26 694 35 q 779 17 736 17 m 350 497 l 546 497 l 504 776 l 350 497 m 422 917 q 415 920 418 917 q 415 926 413 924 l 561 1054 q 574 1061 565 1061 q 586 1054 582 1061 l 686 926 l 686 925 q 683 917 686 921 q 676 917 679 914 l 561 1003 l 424 917 l 422 917 m 656 985 q 660 1017 651 1003 q 686 1054 668 1032 q 709 1084 701 1074 q 718 1108 717 1094 q 708 1141 722 1129 q 676 1153 694 1153 q 642 1144 661 1153 l 640 1144 q 633 1149 636 1144 q 635 1156 629 1154 q 681 1175 657 1168 q 722 1182 706 1182 q 765 1164 751 1182 q 774 1124 778 1146 q 756 1088 769 1103 q 717 1049 743 1072 q 681 1015 693 1029 q 671 985 669 1000 q 665 982 674 982 q 656 985 657 982 z "},"Ẫ":{"ha":832,"x_min":-53,"x_max":785,"o":"m 779 17 q 785 8 785 17 q 779 0 785 0 q 717 3 758 0 q 642 6 669 6 q 571 3 615 6 q 510 0 529 0 q 506 8 506 0 q 510 17 506 17 q 585 30 565 17 q 606 79 606 43 q 603 117 606 89 l 550 471 l 336 471 l 179 185 q 133 64 133 103 q 155 26 133 36 q 219 17 176 17 q 224 8 225 17 q 218 0 224 0 q 158 3 203 0 q 81 6 108 6 q 13 3 51 6 q -47 0 -26 0 q -53 8 -53 0 q -47 17 -53 17 q 131 167 44 17 l 531 882 q 540 886 533 886 q 556 879 553 886 l 671 117 q 685 55 676 75 q 715 26 694 35 q 779 17 736 17 m 350 497 l 546 497 l 504 776 l 350 497 m 414 917 q 407 920 410 917 q 407 926 404 924 l 553 1054 q 565 1061 557 1061 q 578 1054 574 1061 l 678 926 l 678 925 q 674 917 678 921 q 668 917 671 914 l 553 1003 l 415 917 l 414 917 m 413 1072 q 406 1076 408 1072 q 406 1082 403 1079 q 459 1137 428 1113 q 522 1161 490 1161 q 566 1155 542 1161 q 594 1147 590 1149 q 697 1128 656 1128 q 735 1138 721 1128 q 765 1165 750 1147 l 767 1165 q 774 1162 771 1165 q 775 1156 778 1158 q 715 1092 739 1108 q 667 1075 692 1075 q 624 1080 646 1075 q 579 1092 601 1085 q 532 1104 557 1099 q 483 1110 507 1110 q 449 1102 461 1110 q 428 1085 438 1094 q 415 1072 419 1076 l 413 1072 z "},"Ä":{"ha":832,"x_min":-53,"x_max":785,"o":"m 779 17 q 785 8 785 17 q 779 0 785 0 q 717 3 758 0 q 642 6 669 6 q 571 3 615 6 q 510 0 529 0 q 506 8 506 0 q 510 17 506 17 q 585 30 565 17 q 606 79 606 43 q 603 117 606 89 l 550 471 l 336 471 l 179 185 q 133 64 133 103 q 155 26 133 36 q 219 17 176 17 q 224 8 225 17 q 218 0 224 0 q 158 3 203 0 q 81 6 108 6 q 13 3 51 6 q -47 0 -26 0 q -53 8 -53 0 q -47 17 -53 17 q 131 167 44 17 l 531 882 q 540 886 533 886 q 556 879 553 886 l 671 117 q 685 55 676 75 q 715 26 694 35 q 779 17 736 17 m 350 497 l 546 497 l 504 776 l 350 497 m 468 1000 q 428 1014 443 1000 q 414 1053 414 1028 q 428 1092 414 1078 q 468 1106 443 1106 q 508 1092 494 1106 q 522 1053 522 1078 q 508 1014 522 1028 q 468 1000 494 1000 m 675 1000 q 634 1014 649 1000 q 619 1053 619 1028 q 634 1092 619 1078 q 675 1106 649 1106 q 715 1092 701 1106 q 729 1053 729 1078 q 715 1014 729 1028 q 675 1000 701 1000 z "},"Ạ":{"ha":832,"x_min":-53,"x_max":785,"o":"m 779 17 q 785 8 785 17 q 779 0 785 0 q 717 3 758 0 q 642 6 669 6 q 571 3 615 6 q 510 0 529 0 q 506 8 506 0 q 510 17 506 17 q 585 30 565 17 q 606 79 606 43 q 603 117 606 89 l 550 471 l 336 471 l 179 185 q 133 64 133 103 q 155 26 133 36 q 219 17 176 17 q 224 8 225 17 q 218 0 224 0 q 158 3 203 0 q 81 6 108 6 q 13 3 51 6 q -47 0 -26 0 q -53 8 -53 0 q -47 17 -53 17 q 131 167 44 17 l 531 882 q 540 886 533 886 q 556 879 553 886 l 671 117 q 685 55 676 75 q 715 26 694 35 q 779 17 736 17 m 350 497 l 546 497 l 504 776 l 350 497 m 349 -257 q 308 -243 322 -257 q 293 -203 293 -229 q 308 -165 293 -179 q 349 -151 322 -151 q 389 -165 375 -151 q 403 -203 403 -179 q 389 -243 403 -229 q 349 -257 375 -257 z "},"À":{"ha":832,"x_min":-53,"x_max":785,"o":"m 779 17 q 785 8 785 17 q 779 0 785 0 q 717 3 758 0 q 642 6 669 6 q 571 3 615 6 q 510 0 529 0 q 506 8 506 0 q 510 17 506 17 q 585 30 565 17 q 606 79 606 43 q 603 117 606 89 l 550 471 l 336 471 l 179 185 q 133 64 133 103 q 155 26 133 36 q 219 17 176 17 q 224 8 225 17 q 218 0 224 0 q 158 3 203 0 q 81 6 108 6 q 13 3 51 6 q -47 0 -26 0 q -53 8 -53 0 q -47 17 -53 17 q 131 167 44 17 l 531 882 q 540 886 533 886 q 556 879 553 886 l 671 117 q 685 55 676 75 q 715 26 694 35 q 779 17 736 17 m 350 497 l 546 497 l 504 776 l 350 497 m 667 943 q 408 1050 542 1011 q 419 1062 399 1051 q 467 1081 440 1072 q 500 1086 494 1089 q 533 1060 522 1069 q 675 957 624 990 q 678 953 678 954 q 674 945 678 949 q 667 943 671 942 z "},"Ả":{"ha":832,"x_min":-53,"x_max":785,"o":"m 779 17 q 785 8 785 17 q 779 0 785 0 q 717 3 758 0 q 642 6 669 6 q 571 3 615 6 q 510 0 529 0 q 506 8 506 0 q 510 17 506 17 q 585 30 565 17 q 606 79 606 43 q 603 117 606 89 l 550 471 l 336 471 l 179 185 q 133 64 133 103 q 155 26 133 36 q 219 17 176 17 q 224 8 225 17 q 218 0 224 0 q 158 3 203 0 q 81 6 108 6 q 13 3 51 6 q -47 0 -26 0 q -53 8 -53 0 q -47 17 -53 17 q 131 167 44 17 l 531 882 q 540 886 533 886 q 556 879 553 886 l 671 117 q 685 55 676 75 q 715 26 694 35 q 779 17 736 17 m 350 497 l 546 497 l 504 776 l 350 497 m 553 901 q 546 899 554 899 q 536 901 538 899 q 544 955 532 932 q 583 1008 557 978 q 615 1051 606 1035 q 625 1088 625 1067 q 610 1122 625 1110 q 571 1133 594 1133 q 533 1126 551 1133 l 531 1125 q 524 1130 526 1125 q 526 1138 521 1135 q 615 1163 571 1163 q 671 1146 651 1163 q 690 1104 690 1129 q 672 1053 690 1075 q 619 1001 654 1031 q 567 949 583 971 q 553 901 550 928 z "},"Ā":{"ha":832,"x_min":-53,"x_max":785,"o":"m 779 17 q 785 8 785 17 q 779 0 785 0 q 717 3 758 0 q 642 6 669 6 q 571 3 615 6 q 510 0 529 0 q 506 8 506 0 q 510 17 506 17 q 585 30 565 17 q 606 79 606 43 q 603 117 606 89 l 550 471 l 336 471 l 179 185 q 133 64 133 103 q 155 26 133 36 q 219 17 176 17 q 224 8 225 17 q 218 0 224 0 q 158 3 203 0 q 81 6 108 6 q 13 3 51 6 q -47 0 -26 0 q -53 8 -53 0 q -47 17 -53 17 q 131 167 44 17 l 531 882 q 540 886 533 886 q 556 879 553 886 l 671 117 q 685 55 676 75 q 715 26 694 35 q 779 17 736 17 m 350 497 l 546 497 l 504 776 l 350 497 m 406 999 q 401 1004 403 999 q 399 1017 399 1010 q 406 1035 399 1035 l 739 1035 q 746 1017 746 1035 q 739 999 746 999 l 406 999 z "},"Ą":{"ha":832,"x_min":-53,"x_max":785,"o":"m 779 17 q 785 8 785 17 q 779 0 785 0 q 721 1 735 0 l 693 1 q 569 -28 624 1 q 483 -107 514 -57 q 453 -219 453 -157 q 485 -310 453 -275 q 578 -344 518 -344 q 618 -340 603 -344 q 650 -325 633 -335 l 651 -325 q 657 -329 654 -325 q 657 -336 660 -333 q 596 -372 624 -361 q 533 -382 568 -382 q 434 -352 468 -382 q 400 -267 400 -322 q 403 -229 400 -242 q 442 -125 413 -168 q 521 -29 471 -82 q 580 42 561 14 q 599 101 599 69 q 597 117 599 111 l 547 471 l 340 471 l 188 185 q 139 60 139 96 q 159 26 139 35 q 219 17 179 17 q 224 8 225 17 q 218 0 224 0 q 158 3 203 0 q 81 6 108 6 q 13 3 51 6 q -47 0 -26 0 q -53 8 -53 0 q -47 17 -53 17 q 138 167 56 17 l 531 882 q 540 886 533 886 q 556 879 553 886 l 668 133 q 686 59 675 83 q 718 26 697 35 q 779 17 739 17 m 354 497 l 543 497 l 504 775 l 354 497 z "},"Å":{"ha":832,"x_min":-53,"x_max":785,"o":"m 779 17 q 785 8 785 17 q 779 0 785 0 q 717 3 758 0 q 642 6 669 6 q 571 3 615 6 q 510 0 529 0 q 506 8 506 0 q 510 17 506 17 q 585 30 565 17 q 606 79 606 43 q 603 117 606 89 l 550 471 l 336 471 l 179 185 q 133 64 133 103 q 155 26 133 36 q 219 17 176 17 q 224 8 225 17 q 218 0 224 0 q 158 3 203 0 q 81 6 108 6 q 13 3 51 6 q -47 0 -26 0 q -53 8 -53 0 q -47 17 -53 17 q 131 167 44 17 l 531 882 q 540 886 533 886 q 556 879 553 886 l 671 117 q 685 55 676 75 q 715 26 694 35 q 779 17 736 17 m 350 497 l 546 497 l 504 776 l 350 497 m 550 936 q 478 969 504 936 q 451 1047 451 1001 q 486 1126 451 1097 q 563 1154 521 1154 q 633 1122 604 1154 q 663 1043 663 1090 q 628 965 663 994 q 550 936 594 936 m 571 949 q 614 1019 614 949 q 590 1104 614 1068 q 536 1140 567 1140 q 499 1075 499 1140 q 519 988 499 1028 q 571 949 540 949 z "},"Ǻ":{"ha":832,"x_min":-53,"x_max":785,"o":"m 779 17 q 785 8 785 17 q 779 0 785 0 q 717 3 758 0 q 642 6 669 6 q 571 3 615 6 q 510 0 529 0 q 506 8 506 0 q 510 17 506 17 q 585 30 565 17 q 606 79 606 43 q 603 117 606 89 l 550 471 l 336 471 l 179 185 q 133 64 133 103 q 155 26 133 36 q 219 17 176 17 q 224 8 225 17 q 218 0 224 0 q 158 3 203 0 q 81 6 108 6 q 13 3 51 6 q -47 0 -26 0 q -53 8 -53 0 q -47 17 -53 17 q 131 167 44 17 l 531 882 q 540 886 533 886 q 556 879 553 886 l 671 117 q 685 55 676 75 q 715 26 694 35 q 779 17 736 17 m 350 497 l 546 497 l 504 776 l 350 497 m 524 1126 q 516 1133 518 1126 q 519 1140 514 1139 q 599 1189 582 1178 l 676 1236 q 705 1231 682 1239 q 745 1213 728 1224 q 753 1201 763 1203 q 526 1126 643 1176 l 524 1126 m 561 922 q 490 949 517 922 q 463 1015 463 976 q 497 1083 463 1058 q 575 1107 532 1107 q 644 1079 615 1107 q 674 1013 674 1051 q 640 947 674 971 q 561 922 606 922 m 583 935 q 611 948 603 935 q 619 989 619 961 q 598 1063 619 1031 q 547 1094 576 1094 q 522 1082 529 1094 q 514 1043 514 1069 q 533 968 514 1001 q 583 935 551 935 z "},"Ã":{"ha":832,"x_min":-53,"x_max":785,"o":"m 779 17 q 785 8 785 17 q 779 0 785 0 q 717 3 758 0 q 642 6 669 6 q 571 3 615 6 q 510 0 529 0 q 506 8 506 0 q 510 17 506 17 q 585 30 565 17 q 606 79 606 43 q 603 117 606 89 l 550 471 l 336 471 l 179 185 q 133 64 133 103 q 155 26 133 36 q 219 17 176 17 q 224 8 225 17 q 218 0 224 0 q 158 3 203 0 q 81 6 108 6 q 13 3 51 6 q -47 0 -26 0 q -53 8 -53 0 q -47 17 -53 17 q 131 167 44 17 l 531 882 q 540 886 533 886 q 556 879 553 886 l 671 117 q 685 55 676 75 q 715 26 694 35 q 779 17 736 17 m 350 497 l 546 497 l 504 776 l 350 497 m 394 968 q 387 972 390 968 q 386 978 383 975 q 440 1033 408 1008 q 503 1058 471 1058 q 575 1043 526 1058 q 678 1024 636 1024 q 716 1033 701 1024 q 746 1061 731 1043 l 749 1061 q 756 1058 753 1061 q 756 1051 758 1054 q 696 988 719 1004 q 647 972 672 972 q 604 977 626 972 q 560 989 582 982 q 464 1006 501 1006 q 430 998 442 1006 q 409 981 418 990 q 396 968 400 972 l 394 968 z "},"Æ":{"ha":1067,"x_min":-85,"x_max":1064,"o":"m 1053 868 q 1062 865 1060 868 q 1063 856 1064 863 l 1050 774 q 1043 730 1046 753 q 1036 686 1040 707 q 1027 683 1035 682 q 1021 688 1019 683 q 1024 728 1024 701 q 996 817 1024 785 q 914 849 968 849 l 854 849 q 760 842 790 849 q 717 815 729 835 q 699 754 704 796 l 663 465 l 831 465 q 913 488 886 465 q 949 564 939 511 q 954 568 949 568 q 962 566 958 568 q 964 561 965 564 l 953 499 l 944 451 l 924 326 q 918 325 924 325 q 908 329 908 325 q 913 371 913 353 q 892 424 913 408 q 821 439 871 439 l 660 439 l 619 118 q 617 78 617 88 q 635 35 617 46 q 710 25 654 25 l 826 25 q 921 74 876 25 q 989 204 965 124 q 998 207 990 208 q 1004 201 1006 206 q 961 21 974 94 q 954 4 958 8 q 939 0 950 0 l 421 0 q 415 8 415 0 q 421 17 415 17 q 496 24 471 17 q 533 51 521 32 q 550 113 544 71 l 592 439 l 378 439 l 174 171 q 115 58 115 93 q 201 17 115 17 q 207 8 207 17 q 201 0 207 0 q 138 3 179 0 q 56 6 90 6 q -18 3 24 6 q -78 0 -54 0 q -85 8 -85 0 q -78 17 -85 17 q 23 51 -24 17 q 144 183 69 85 l 610 797 q 631 836 631 828 q 611 849 631 846 q 538 851 592 851 q 532 860 532 851 q 538 868 532 868 l 1053 868 m 399 465 l 596 465 l 636 778 l 399 465 z "},"Ǽ":{"ha":1067,"x_min":-85,"x_max":1069,"o":"m 1053 868 q 1062 865 1060 868 q 1063 856 1064 863 l 1050 774 q 1043 730 1046 753 q 1036 686 1040 707 q 1027 683 1035 682 q 1021 688 1019 683 q 1024 728 1024 701 q 996 817 1024 785 q 914 849 968 849 l 854 849 q 760 842 790 849 q 717 815 729 835 q 699 754 704 796 l 663 465 l 831 465 q 913 488 886 465 q 949 564 939 511 q 954 568 949 568 q 962 566 958 568 q 964 561 965 564 l 953 499 l 944 451 l 924 326 q 918 325 924 325 q 908 329 908 325 q 913 371 913 353 q 892 424 913 408 q 821 439 871 439 l 660 439 l 619 118 q 617 78 617 88 q 635 35 617 46 q 710 25 654 25 l 826 25 q 921 74 876 25 q 989 204 965 124 q 998 207 990 208 q 1004 201 1006 206 q 961 21 974 94 q 954 4 958 8 q 939 0 950 0 l 421 0 q 415 8 415 0 q 421 17 415 17 q 496 24 471 17 q 533 51 521 32 q 550 113 544 71 l 592 439 l 378 439 l 174 171 q 115 58 115 93 q 201 17 115 17 q 207 8 207 17 q 201 0 207 0 q 138 3 179 0 q 56 6 90 6 q -18 3 24 6 q -78 0 -54 0 q -85 8 -85 0 q -78 17 -85 17 q 23 51 -24 17 q 144 183 69 85 l 610 797 q 631 836 631 828 q 611 849 631 846 q 538 851 592 851 q 532 860 532 851 q 538 868 532 868 l 1053 868 m 399 465 l 596 465 l 636 778 l 399 465 m 756 942 q 749 948 750 942 q 751 957 747 954 q 921 1047 815 986 l 990 1086 q 1019 1081 996 1089 q 1059 1062 1042 1072 q 1067 1050 1076 1051 q 909 1003 981 1029 q 758 943 838 978 l 756 942 z "},"Ǣ":{"ha":1067,"x_min":-85,"x_max":1063,"o":"m 1053 868 q 1062 865 1060 868 q 1063 856 1064 863 l 1050 774 q 1043 730 1046 753 q 1036 686 1040 707 q 1027 683 1035 682 q 1021 688 1019 683 q 1024 728 1024 701 q 996 817 1024 785 q 914 849 968 849 l 854 849 q 760 842 790 849 q 717 815 729 835 q 699 754 704 796 l 663 465 l 831 465 q 913 488 886 465 q 949 564 939 511 q 954 568 949 568 q 962 566 958 568 q 964 561 965 564 l 953 499 l 944 451 l 924 326 q 918 325 924 325 q 908 329 908 325 q 913 371 913 353 q 892 424 913 408 q 821 439 871 439 l 660 439 l 619 118 q 617 78 617 88 q 635 35 617 46 q 710 25 654 25 l 826 25 q 921 74 876 25 q 989 204 965 124 q 998 207 990 208 q 1004 201 1006 206 q 961 21 974 94 q 954 4 958 8 q 939 0 950 0 l 421 0 q 415 8 415 0 q 421 17 415 17 q 496 24 471 17 q 533 51 521 32 q 550 113 544 71 l 592 439 l 378 439 l 174 171 q 115 58 115 93 q 201 17 115 17 q 207 8 207 17 q 201 0 207 0 q 138 3 179 0 q 56 6 90 6 q -18 3 24 6 q -78 0 -54 0 q -85 8 -85 0 q -78 17 -85 17 q 23 51 -24 17 q 144 183 69 85 l 610 797 q 631 836 631 828 q 611 849 631 846 q 538 851 592 851 q 532 860 532 851 q 538 868 532 868 l 1053 868 m 399 465 l 596 465 l 636 778 l 399 465 m 694 999 q 690 1004 692 999 q 688 1017 688 1010 q 694 1035 688 1035 l 1028 1035 q 1035 1017 1035 1035 q 1028 999 1035 999 l 694 999 z "},"B":{"ha":710,"x_min":8,"x_max":646,"o":"m 451 490 q 594 432 542 485 q 646 299 646 379 q 642 251 646 276 q 585 123 629 182 q 477 29 542 64 q 342 -6 413 -6 q 250 -1 299 -6 q 210 1 233 0 q 157 3 186 3 l 72 1 q 13 0 50 0 q 8 8 8 0 q 13 17 8 17 q 87 24 61 17 q 125 52 113 32 q 144 114 138 72 l 258 757 q 263 797 263 782 q 242 841 263 831 q 164 851 221 851 q 158 860 158 851 q 164 868 158 868 l 226 867 q 307 864 279 864 q 353 865 332 864 q 389 868 375 867 q 454 872 426 872 q 599 833 551 872 q 646 728 646 793 q 640 682 646 713 q 576 565 625 614 q 451 490 528 517 m 276 489 l 333 488 q 499 541 439 488 q 574 682 558 594 q 578 726 578 706 q 542 819 578 785 q 425 854 506 854 q 372 849 389 854 q 342 821 354 843 q 322 750 331 799 l 276 489 m 564 228 q 568 278 568 256 q 518 411 568 363 q 375 461 468 460 q 271 458 326 463 l 210 111 q 206 78 206 93 q 231 30 206 43 q 325 17 257 17 q 488 74 428 17 q 564 228 549 132 z "},"C":{"ha":813,"x_min":85,"x_max":814,"o":"m 439 -18 q 171 84 257 -18 q 85 339 85 186 q 94 443 85 382 q 194 670 117 569 q 381 827 272 771 q 601 883 490 883 q 715 869 660 883 q 801 832 769 856 q 812 819 810 825 q 813 799 814 814 l 801 653 q 793 647 800 647 q 786 653 786 647 q 718 807 779 760 q 550 854 657 854 q 381 808 458 854 q 251 676 303 761 q 179 481 199 592 q 168 365 168 417 q 203 176 168 260 q 301 46 238 93 q 447 -1 364 -1 q 606 51 531 -1 q 736 207 682 104 q 740 210 739 210 q 748 207 744 210 q 750 201 751 204 l 708 54 q 699 31 703 36 q 683 21 696 25 q 439 -18 561 -18 z "},"Ć":{"ha":813,"x_min":85,"x_max":822,"o":"m 439 -18 q 171 84 257 -18 q 85 339 85 186 q 94 443 85 382 q 194 670 117 569 q 381 827 272 771 q 601 883 490 883 q 715 869 660 883 q 801 832 769 856 q 812 819 810 825 q 813 799 814 814 l 801 653 q 793 647 800 647 q 786 653 786 647 q 718 807 779 760 q 550 854 657 854 q 381 808 458 854 q 251 676 303 761 q 179 481 199 592 q 168 365 168 417 q 203 176 168 260 q 301 46 238 93 q 447 -1 364 -1 q 606 51 531 -1 q 736 207 682 104 q 740 210 739 210 q 748 207 744 210 q 750 201 751 204 l 708 54 q 699 31 703 36 q 683 21 696 25 q 439 -18 561 -18 m 508 942 q 501 948 503 942 q 504 957 500 954 q 674 1047 568 986 l 743 1086 q 772 1081 749 1089 q 812 1062 794 1072 q 819 1050 829 1051 q 662 1003 733 1029 q 511 943 590 978 l 508 942 z "},"Č":{"ha":813,"x_min":85,"x_max":813,"o":"m 439 -18 q 171 84 257 -18 q 85 339 85 186 q 94 443 85 382 q 194 670 117 569 q 381 827 272 771 q 601 883 490 883 q 715 869 660 883 q 801 832 769 856 q 812 819 810 825 q 813 799 814 814 l 801 653 q 793 647 800 647 q 786 653 786 647 q 718 807 779 760 q 550 854 657 854 q 381 808 458 854 q 251 676 303 761 q 179 481 199 592 q 168 365 168 417 q 203 176 168 260 q 301 46 238 93 q 447 -1 364 -1 q 606 51 531 -1 q 736 207 682 104 q 740 210 739 210 q 748 207 744 210 q 750 201 751 204 l 708 54 q 699 31 703 36 q 683 21 696 25 q 439 -18 561 -18 m 478 1067 l 478 1068 q 482 1074 478 1071 q 488 1076 486 1078 l 601 990 l 739 1078 l 740 1078 q 748 1073 744 1078 q 747 1067 751 1068 l 603 938 q 589 932 597 932 q 576 938 582 932 l 478 1067 z "},"Ç":{"ha":813,"x_min":85,"x_max":814,"o":"m 801 832 q 812 819 810 825 q 813 799 814 814 l 801 653 q 793 647 800 647 q 786 653 786 647 q 718 807 779 760 q 550 854 657 854 q 381 808 458 854 q 251 676 303 761 q 179 481 199 592 q 169 365 169 424 q 202 182 169 264 q 294 51 235 100 q 432 -1 353 3 l 432 0 l 447 0 l 447 -1 l 447 -1 q 606 51 531 -1 q 736 207 682 104 q 740 210 739 210 q 748 207 744 210 q 750 201 751 204 l 708 54 q 699 31 703 36 q 683 21 696 25 q 439 -18 561 -18 q 425 -78 425 -51 q 453 -144 425 -110 q 486 -197 475 -174 q 497 -244 497 -221 q 496 -261 497 -256 q 453 -343 490 -304 q 358 -382 415 -382 q 310 -369 331 -382 q 290 -332 290 -357 q 292 -319 290 -324 q 303 -301 293 -308 q 326 -294 313 -294 q 347 -302 340 -294 q 365 -326 354 -310 q 380 -349 374 -342 q 397 -356 386 -356 q 451 -299 439 -356 q 404 -192 457 -256 q 379 -128 379 -162 q 390 -83 379 -104 l 424 -18 q 167 88 249 -14 q 85 338 85 189 q 94 443 85 394 q 194 670 117 569 q 381 827 272 771 q 601 883 490 883 q 715 869 660 883 q 801 832 769 856 z "},"Ĉ":{"ha":813,"x_min":85,"x_max":813,"o":"m 439 -18 q 171 84 257 -18 q 85 339 85 186 q 94 443 85 382 q 194 670 117 569 q 381 827 272 771 q 601 883 490 883 q 715 869 660 883 q 801 832 769 856 q 812 819 810 825 q 813 799 814 814 l 801 653 q 793 647 800 647 q 786 653 786 647 q 718 807 779 760 q 550 854 657 854 q 381 808 458 854 q 251 676 303 761 q 179 481 199 592 q 168 365 168 417 q 203 176 168 260 q 301 46 238 93 q 447 -1 364 -1 q 606 51 531 -1 q 736 207 682 104 q 740 210 739 210 q 748 207 744 210 q 750 201 751 204 l 708 54 q 699 31 703 36 q 683 21 696 25 q 439 -18 561 -18 m 465 917 q 458 920 461 917 q 458 926 456 924 l 604 1054 q 617 1061 608 1061 q 629 1054 625 1061 l 729 926 l 729 925 q 726 917 729 921 q 719 917 722 914 l 604 1003 l 467 917 l 465 917 z "},"Ċ":{"ha":813,"x_min":85,"x_max":813,"o":"m 439 -18 q 171 84 257 -18 q 85 339 85 186 q 94 443 85 382 q 194 670 117 569 q 381 827 272 771 q 601 883 490 883 q 715 869 660 883 q 801 832 769 856 q 812 819 810 825 q 813 799 814 814 l 801 653 q 793 647 800 647 q 786 653 786 647 q 718 807 779 760 q 550 854 657 854 q 381 808 458 854 q 251 676 303 761 q 179 481 199 592 q 168 365 168 417 q 203 176 168 260 q 301 46 238 93 q 447 -1 364 -1 q 606 51 531 -1 q 736 207 682 104 q 740 210 739 210 q 748 207 744 210 q 750 201 751 204 l 708 54 q 699 31 703 36 q 683 21 696 25 q 439 -18 561 -18 m 601 983 q 561 997 576 983 q 546 1036 546 1011 q 561 1075 546 1061 q 601 1089 576 1089 q 642 1075 628 1089 q 656 1036 656 1061 q 642 997 656 1011 q 601 983 628 983 z "},"D":{"ha":842,"x_min":11,"x_max":818,"o":"m 322 -6 q 246 -1 288 -6 q 206 1 229 0 q 153 3 182 3 l 69 1 q 15 0 50 0 q 11 8 11 0 q 15 17 11 17 q 84 24 61 17 q 119 51 107 31 q 138 113 131 71 l 251 756 q 257 800 257 792 q 237 841 257 831 q 164 851 217 851 q 161 860 161 851 q 164 868 161 868 l 221 867 q 304 864 274 864 q 390 868 347 864 q 460 871 443 871 q 651 827 569 871 q 775 706 732 783 q 818 531 818 629 q 811 449 818 483 q 713 210 788 314 q 535 51 639 107 q 322 -6 432 -6 m 314 13 q 498 60 413 13 q 642 199 583 107 q 725 418 701 290 q 735 529 735 472 q 665 763 735 674 q 468 853 594 853 q 387 846 415 853 q 342 817 358 839 q 317 753 325 796 l 207 128 q 201 85 201 94 q 226 30 201 47 q 314 13 251 13 z "},"Ð":{"ha":842,"x_min":11,"x_max":818,"o":"m 460 871 q 651 827 569 871 q 775 706 732 783 q 818 531 818 629 q 811 449 818 483 q 713 210 788 314 q 535 51 639 107 q 322 -6 432 -6 q 246 -1 288 -6 q 206 1 229 0 q 153 3 182 3 l 69 1 q 15 0 50 0 q 11 8 11 0 q 15 17 11 17 q 84 24 61 17 q 119 51 107 31 q 138 113 131 71 l 192 419 l 74 419 q 68 432 68 419 q 74 444 68 444 l 196 444 l 251 756 q 257 800 257 792 q 237 841 257 831 q 164 851 217 851 q 161 860 161 851 q 164 868 161 868 l 221 867 q 304 864 274 864 q 390 868 347 864 q 460 871 443 871 m 725 418 q 735 529 735 472 q 665 763 735 674 q 468 853 594 853 q 387 846 415 853 q 342 817 358 839 q 317 753 325 796 l 263 444 l 438 444 q 443 432 443 444 q 438 419 443 419 l 258 419 l 207 128 q 201 85 201 94 q 226 30 201 47 q 314 13 251 13 q 498 60 413 13 q 642 199 583 107 q 725 418 701 290 z "},"Ď":{"ha":842,"x_min":11,"x_max":818,"o":"m 322 -6 q 246 -1 288 -6 q 206 1 229 0 q 153 3 182 3 l 69 1 q 15 0 50 0 q 11 8 11 0 q 15 17 11 17 q 84 24 61 17 q 119 51 107 31 q 138 113 131 71 l 251 756 q 257 800 257 792 q 237 841 257 831 q 164 851 217 851 q 161 860 161 851 q 164 868 161 868 l 221 867 q 304 864 274 864 q 390 868 347 864 q 460 871 443 871 q 651 827 569 871 q 775 706 732 783 q 818 531 818 629 q 811 449 818 483 q 713 210 788 314 q 535 51 639 107 q 322 -6 432 -6 m 314 13 q 498 60 413 13 q 642 199 583 107 q 725 418 701 290 q 735 529 735 472 q 665 763 735 674 q 468 853 594 853 q 387 846 415 853 q 342 817 358 839 q 317 753 325 796 l 207 128 q 201 85 201 94 q 226 30 201 47 q 314 13 251 13 m 349 1067 l 349 1068 q 353 1074 349 1071 q 358 1076 357 1078 l 472 990 l 610 1078 l 611 1078 q 619 1073 615 1078 q 618 1067 622 1068 l 474 938 q 460 932 468 932 q 447 938 453 932 l 349 1067 z "},"Đ":{"ha":842,"x_min":11,"x_max":818,"o":"m 460 871 q 651 827 569 871 q 775 706 732 783 q 818 531 818 629 q 811 449 818 483 q 713 210 788 314 q 535 51 639 107 q 322 -6 432 -6 q 246 -1 288 -6 q 206 1 229 0 q 153 3 182 3 l 69 1 q 15 0 50 0 q 11 8 11 0 q 15 17 11 17 q 84 24 61 17 q 119 51 107 31 q 138 113 131 71 l 192 419 l 74 419 q 68 432 68 419 q 74 444 68 444 l 196 444 l 251 756 q 257 800 257 792 q 237 841 257 831 q 164 851 217 851 q 161 860 161 851 q 164 868 161 868 l 221 867 q 304 864 274 864 q 390 868 347 864 q 460 871 443 871 m 725 418 q 735 529 735 472 q 665 763 735 674 q 468 853 594 853 q 387 846 415 853 q 342 817 358 839 q 317 753 325 796 l 263 444 l 438 444 q 443 432 443 444 q 438 419 443 419 l 258 419 l 207 128 q 201 85 201 94 q 226 30 201 47 q 314 13 251 13 q 498 60 413 13 q 642 199 583 107 q 725 418 701 290 z "},"Ḍ":{"ha":842,"x_min":11,"x_max":818,"o":"m 322 -6 q 246 -1 288 -6 q 206 1 229 0 q 153 3 182 3 l 69 1 q 15 0 50 0 q 11 8 11 0 q 15 17 11 17 q 84 24 61 17 q 119 51 107 31 q 138 113 131 71 l 251 756 q 257 800 257 792 q 237 841 257 831 q 164 851 217 851 q 161 860 161 851 q 164 868 161 868 l 221 867 q 304 864 274 864 q 390 868 347 864 q 460 871 443 871 q 651 827 569 871 q 775 706 732 783 q 818 531 818 629 q 811 449 818 483 q 713 210 788 314 q 535 51 639 107 q 322 -6 432 -6 m 314 13 q 498 60 413 13 q 642 199 583 107 q 725 418 701 290 q 735 529 735 472 q 665 763 735 674 q 468 853 594 853 q 387 846 415 853 q 342 817 358 839 q 317 753 325 796 l 207 128 q 201 85 201 94 q 226 30 201 47 q 314 13 251 13 m 333 -257 q 292 -243 307 -257 q 278 -203 278 -229 q 292 -165 278 -179 q 333 -151 307 -151 q 374 -165 360 -151 q 388 -203 388 -179 q 374 -243 388 -229 q 333 -257 360 -257 z "},"Ḏ":{"ha":842,"x_min":11,"x_max":818,"o":"m 322 -6 q 246 -1 288 -6 q 206 1 229 0 q 153 3 182 3 l 69 1 q 15 0 50 0 q 11 8 11 0 q 15 17 11 17 q 84 24 61 17 q 119 51 107 31 q 138 113 131 71 l 251 756 q 257 800 257 792 q 237 841 257 831 q 164 851 217 851 q 161 860 161 851 q 164 868 161 868 l 221 867 q 304 864 274 864 q 390 868 347 864 q 460 871 443 871 q 651 827 569 871 q 775 706 732 783 q 818 531 818 629 q 811 449 818 483 q 713 210 788 314 q 535 51 639 107 q 322 -6 432 -6 m 314 13 q 498 60 413 13 q 642 199 583 107 q 725 418 701 290 q 735 529 735 472 q 665 763 735 674 q 468 853 594 853 q 387 846 415 853 q 342 817 358 839 q 317 753 325 796 l 207 128 q 201 85 201 94 q 226 30 201 47 q 314 13 251 13 m 188 -161 q 181 -143 181 -161 q 188 -125 181 -125 l 521 -125 q 526 -131 524 -125 q 528 -143 528 -136 q 521 -161 528 -161 l 188 -161 z "},"E":{"ha":708,"x_min":18,"x_max":710,"o":"m 699 868 q 707 856 710 868 l 694 774 q 688 730 690 753 q 681 686 685 707 q 671 682 679 681 q 664 688 663 683 q 668 735 668 713 q 644 818 668 788 q 578 849 621 849 l 440 849 q 373 842 394 849 q 340 815 351 835 q 322 754 329 796 l 271 465 l 476 465 q 553 486 529 465 q 585 561 576 507 q 593 565 585 565 q 599 563 596 565 q 601 558 603 561 q 590 500 594 517 l 582 451 l 574 397 l 563 325 q 553 320 561 319 q 546 326 544 321 q 551 372 551 363 q 532 424 551 408 q 467 439 513 439 l 267 439 l 210 118 q 206 76 206 93 q 224 35 206 46 q 296 25 243 25 l 478 25 q 565 75 524 25 q 631 204 607 125 q 640 207 632 208 q 646 201 647 206 q 604 21 622 126 q 597 5 601 10 q 582 0 592 0 l 21 0 q 18 8 18 0 q 21 17 18 17 q 90 24 68 17 q 124 50 113 31 q 143 113 135 69 l 257 756 q 261 799 261 781 q 242 841 261 831 q 169 851 222 851 q 165 860 165 851 q 169 868 165 868 l 699 868 z "},"É":{"ha":708,"x_min":18,"x_max":707,"o":"m 699 868 q 707 856 710 868 l 694 774 q 688 730 690 753 q 681 686 685 707 q 671 682 679 681 q 664 688 663 683 q 668 735 668 713 q 644 818 668 788 q 578 849 621 849 l 440 849 q 373 842 394 849 q 340 815 351 835 q 322 754 329 796 l 271 465 l 476 465 q 553 486 529 465 q 585 561 576 507 q 593 565 585 565 q 599 563 596 565 q 601 558 603 561 q 590 500 594 517 l 582 451 l 574 397 l 563 325 q 553 320 561 319 q 546 326 544 321 q 551 372 551 363 q 532 424 551 408 q 467 439 513 439 l 267 439 l 210 118 q 206 76 206 93 q 224 35 206 46 q 296 25 243 25 l 478 25 q 565 75 524 25 q 631 204 607 125 q 640 207 632 208 q 646 201 647 206 q 604 21 622 126 q 597 5 601 10 q 582 0 592 0 l 21 0 q 18 8 18 0 q 21 17 18 17 q 90 24 68 17 q 124 50 113 31 q 143 113 135 69 l 257 756 q 261 799 261 781 q 242 841 261 831 q 169 851 222 851 q 165 860 165 851 q 169 868 165 868 l 699 868 m 388 942 q 381 948 382 942 q 383 957 379 954 q 553 1047 447 986 l 622 1086 q 651 1081 628 1089 q 691 1062 674 1072 q 699 1050 708 1051 q 541 1003 613 1029 q 390 943 469 978 l 388 942 z "},"Ĕ":{"ha":708,"x_min":18,"x_max":707,"o":"m 699 868 q 707 856 710 868 l 694 774 q 688 730 690 753 q 681 686 685 707 q 671 682 679 681 q 664 688 663 683 q 668 735 668 713 q 644 818 668 788 q 578 849 621 849 l 440 849 q 373 842 394 849 q 340 815 351 835 q 322 754 329 796 l 271 465 l 476 465 q 553 486 529 465 q 585 561 576 507 q 593 565 585 565 q 599 563 596 565 q 601 558 603 561 q 590 500 594 517 l 582 451 l 574 397 l 563 325 q 553 320 561 319 q 546 326 544 321 q 551 372 551 363 q 532 424 551 408 q 467 439 513 439 l 267 439 l 210 118 q 206 76 206 93 q 224 35 206 46 q 296 25 243 25 l 478 25 q 565 75 524 25 q 631 204 607 125 q 640 207 632 208 q 646 201 647 206 q 604 21 622 126 q 597 5 601 10 q 582 0 592 0 l 21 0 q 18 8 18 0 q 21 17 18 17 q 90 24 68 17 q 124 50 113 31 q 143 113 135 69 l 257 756 q 261 799 261 781 q 242 841 261 831 q 169 851 222 851 q 165 860 165 851 q 169 868 165 868 l 699 868 m 481 925 q 391 960 421 925 q 361 1042 361 996 q 378 1057 361 1050 q 408 1064 394 1064 q 419 1060 419 1064 q 445 991 422 1017 q 508 965 468 965 q 564 986 540 965 q 610 1054 588 1007 q 618 1058 613 1058 q 628 1056 624 1058 q 632 1050 633 1053 q 567 956 603 988 q 481 925 532 925 z "},"Ě":{"ha":708,"x_min":18,"x_max":707,"o":"m 699 868 q 707 856 710 868 l 694 774 q 688 730 690 753 q 681 686 685 707 q 671 682 679 681 q 664 688 663 683 q 668 735 668 713 q 644 818 668 788 q 578 849 621 849 l 440 849 q 373 842 394 849 q 340 815 351 835 q 322 754 329 796 l 271 465 l 476 465 q 553 486 529 465 q 585 561 576 507 q 593 565 585 565 q 599 563 596 565 q 601 558 603 561 q 590 500 594 517 l 582 451 l 574 397 l 563 325 q 553 320 561 319 q 546 326 544 321 q 551 372 551 363 q 532 424 551 408 q 467 439 513 439 l 267 439 l 210 118 q 206 76 206 93 q 224 35 206 46 q 296 25 243 25 l 478 25 q 565 75 524 25 q 631 204 607 125 q 640 207 632 208 q 646 201 647 206 q 604 21 622 126 q 597 5 601 10 q 582 0 592 0 l 21 0 q 18 8 18 0 q 21 17 18 17 q 90 24 68 17 q 124 50 113 31 q 143 113 135 69 l 257 756 q 261 799 261 781 q 242 841 261 831 q 169 851 222 851 q 165 860 165 851 q 169 868 165 868 l 699 868 m 357 1067 l 357 1068 q 361 1074 357 1071 q 367 1076 365 1078 l 481 990 l 618 1078 l 619 1078 q 627 1073 624 1078 q 626 1067 631 1068 l 482 938 q 468 932 476 932 q 456 938 461 932 l 357 1067 z "},"Ê":{"ha":708,"x_min":18,"x_max":707,"o":"m 699 868 q 707 856 710 868 l 694 774 q 688 730 690 753 q 681 686 685 707 q 671 682 679 681 q 664 688 663 683 q 668 735 668 713 q 644 818 668 788 q 578 849 621 849 l 440 849 q 373 842 394 849 q 340 815 351 835 q 322 754 329 796 l 271 465 l 476 465 q 553 486 529 465 q 585 561 576 507 q 593 565 585 565 q 599 563 596 565 q 601 558 603 561 q 590 500 594 517 l 582 451 l 574 397 l 563 325 q 553 320 561 319 q 546 326 544 321 q 551 372 551 363 q 532 424 551 408 q 467 439 513 439 l 267 439 l 210 118 q 206 76 206 93 q 224 35 206 46 q 296 25 243 25 l 478 25 q 565 75 524 25 q 631 204 607 125 q 640 207 632 208 q 646 201 647 206 q 604 21 622 126 q 597 5 601 10 q 582 0 592 0 l 21 0 q 18 8 18 0 q 21 17 18 17 q 90 24 68 17 q 124 50 113 31 q 143 113 135 69 l 257 756 q 261 799 261 781 q 242 841 261 831 q 169 851 222 851 q 165 860 165 851 q 169 868 165 868 l 699 868 m 344 917 q 338 920 340 917 q 338 926 335 924 l 483 1054 q 496 1061 488 1061 q 508 1054 504 1061 l 608 926 l 608 925 q 605 917 608 921 q 599 917 601 914 l 483 1003 l 346 917 l 344 917 z "},"Ế":{"ha":708,"x_min":18,"x_max":775,"o":"m 699 868 q 707 856 710 868 l 694 774 q 688 730 690 753 q 681 686 685 707 q 671 682 679 681 q 664 688 663 683 q 668 735 668 713 q 644 818 668 788 q 578 849 621 849 l 440 849 q 373 842 394 849 q 340 815 351 835 q 322 754 329 796 l 271 465 l 476 465 q 553 486 529 465 q 585 561 576 507 q 593 565 585 565 q 599 563 596 565 q 601 558 603 561 q 590 500 594 517 l 582 451 l 574 397 l 563 325 q 553 320 561 319 q 546 326 544 321 q 551 372 551 363 q 532 424 551 408 q 467 439 513 439 l 267 439 l 210 118 q 206 76 206 93 q 224 35 206 46 q 296 25 243 25 l 478 25 q 565 75 524 25 q 631 204 607 125 q 640 207 632 208 q 646 201 647 206 q 604 21 622 126 q 597 5 601 10 q 582 0 592 0 l 21 0 q 18 8 18 0 q 21 17 18 17 q 90 24 68 17 q 124 50 113 31 q 143 113 135 69 l 257 756 q 261 799 261 781 q 242 841 261 831 q 169 851 222 851 q 165 860 165 851 q 169 868 165 868 l 699 868 m 344 917 q 338 920 340 917 q 338 926 335 924 l 483 1054 q 496 1061 488 1061 q 508 1054 504 1061 l 608 926 l 608 925 q 605 917 608 921 q 599 917 601 914 l 483 1003 l 346 917 l 344 917 m 575 996 q 571 994 574 994 q 565 999 567 994 q 567 1007 564 1004 q 703 1139 635 1064 q 728 1135 707 1143 q 766 1115 750 1126 q 772 1103 782 1104 q 674 1057 718 1082 q 575 996 629 1032 z "},"Ệ":{"ha":708,"x_min":18,"x_max":707,"o":"m 699 868 q 707 856 710 868 l 694 774 q 688 730 690 753 q 681 686 685 707 q 671 682 679 681 q 664 688 663 683 q 668 735 668 713 q 644 818 668 788 q 578 849 621 849 l 440 849 q 373 842 394 849 q 340 815 351 835 q 322 754 329 796 l 271 465 l 476 465 q 553 486 529 465 q 585 561 576 507 q 593 565 585 565 q 599 563 596 565 q 601 558 603 561 q 590 500 594 517 l 582 451 l 574 397 l 563 325 q 553 320 561 319 q 546 326 544 321 q 551 372 551 363 q 532 424 551 408 q 467 439 513 439 l 267 439 l 210 118 q 206 76 206 93 q 224 35 206 46 q 296 25 243 25 l 478 25 q 565 75 524 25 q 631 204 607 125 q 640 207 632 208 q 646 201 647 206 q 604 21 622 126 q 597 5 601 10 q 582 0 592 0 l 21 0 q 18 8 18 0 q 21 17 18 17 q 90 24 68 17 q 124 50 113 31 q 143 113 135 69 l 257 756 q 261 799 261 781 q 242 841 261 831 q 169 851 222 851 q 165 860 165 851 q 169 868 165 868 l 699 868 m 347 -257 q 306 -243 321 -257 q 292 -203 292 -229 q 306 -165 292 -179 q 347 -151 321 -151 q 388 -165 374 -151 q 401 -203 401 -179 q 388 -243 401 -229 q 347 -257 374 -257 m 344 917 q 338 920 340 917 q 338 926 335 924 l 483 1054 q 496 1061 488 1061 q 508 1054 504 1061 l 608 926 l 608 925 q 605 917 608 921 q 599 917 601 914 l 483 1003 l 346 917 l 344 917 z "},"Ề":{"ha":708,"x_min":18,"x_max":707,"o":"m 699 868 q 707 856 710 868 l 694 774 q 688 730 690 753 q 681 686 685 707 q 671 682 679 681 q 664 688 663 683 q 668 735 668 713 q 644 818 668 788 q 578 849 621 849 l 440 849 q 373 842 394 849 q 340 815 351 835 q 322 754 329 796 l 271 465 l 476 465 q 553 486 529 465 q 585 561 576 507 q 593 565 585 565 q 599 563 596 565 q 601 558 603 561 q 590 500 594 517 l 582 451 l 574 397 l 563 325 q 553 320 561 319 q 546 326 544 321 q 551 372 551 363 q 532 424 551 408 q 467 439 513 439 l 267 439 l 210 118 q 206 76 206 93 q 224 35 206 46 q 296 25 243 25 l 478 25 q 565 75 524 25 q 631 204 607 125 q 640 207 632 208 q 646 201 647 206 q 604 21 622 126 q 597 5 601 10 q 582 0 592 0 l 21 0 q 18 8 18 0 q 21 17 18 17 q 90 24 68 17 q 124 50 113 31 q 143 113 135 69 l 257 756 q 261 799 261 781 q 242 841 261 831 q 169 851 222 851 q 165 860 165 851 q 169 868 165 868 l 699 868 m 342 917 q 335 920 338 917 q 335 926 332 924 l 481 1054 q 493 1061 485 1061 q 506 1054 501 1061 l 606 926 l 606 925 q 602 917 606 921 q 596 917 599 914 l 481 1003 l 343 917 l 342 917 m 678 976 q 518 1083 600 1044 q 528 1096 508 1085 q 574 1115 549 1107 q 601 1119 599 1124 q 690 989 638 1053 q 692 985 692 988 q 688 978 692 981 q 678 976 683 975 z "},"Ể":{"ha":708,"x_min":18,"x_max":707,"o":"m 699 868 q 707 856 710 868 l 694 774 q 688 730 690 753 q 681 686 685 707 q 671 682 679 681 q 664 688 663 683 q 668 735 668 713 q 644 818 668 788 q 578 849 621 849 l 440 849 q 373 842 394 849 q 340 815 351 835 q 322 754 329 796 l 271 465 l 476 465 q 553 486 529 465 q 585 561 576 507 q 593 565 585 565 q 599 563 596 565 q 601 558 603 561 q 590 500 594 517 l 582 451 l 574 397 l 563 325 q 553 320 561 319 q 546 326 544 321 q 551 372 551 363 q 532 424 551 408 q 467 439 513 439 l 267 439 l 210 118 q 206 76 206 93 q 224 35 206 46 q 296 25 243 25 l 478 25 q 565 75 524 25 q 631 204 607 125 q 640 207 632 208 q 646 201 647 206 q 604 21 622 126 q 597 5 601 10 q 582 0 592 0 l 21 0 q 18 8 18 0 q 21 17 18 17 q 90 24 68 17 q 124 50 113 31 q 143 113 135 69 l 257 756 q 261 799 261 781 q 242 841 261 831 q 169 851 222 851 q 165 860 165 851 q 169 868 165 868 l 699 868 m 343 917 q 336 920 339 917 q 336 926 333 924 l 482 1054 q 494 1061 486 1061 q 507 1054 503 1061 l 607 926 l 607 925 q 603 917 607 921 q 597 917 600 914 l 482 1003 l 344 917 l 343 917 m 576 985 q 581 1017 572 1003 q 607 1054 589 1032 q 630 1084 622 1074 q 639 1108 638 1094 q 629 1141 643 1129 q 597 1153 615 1153 q 563 1144 582 1153 l 561 1144 q 553 1149 557 1144 q 556 1156 550 1154 q 602 1175 578 1168 q 643 1182 626 1182 q 685 1164 672 1182 q 694 1124 699 1146 q 677 1088 690 1103 q 638 1049 664 1072 q 602 1015 614 1029 q 592 985 590 1000 q 586 982 594 982 q 576 985 578 982 z "},"Ễ":{"ha":708,"x_min":18,"x_max":707,"o":"m 699 868 q 707 856 710 868 l 694 774 q 688 730 690 753 q 681 686 685 707 q 671 682 679 681 q 664 688 663 683 q 668 735 668 713 q 644 818 668 788 q 578 849 621 849 l 440 849 q 373 842 394 849 q 340 815 351 835 q 322 754 329 796 l 271 465 l 476 465 q 553 486 529 465 q 585 561 576 507 q 593 565 585 565 q 599 563 596 565 q 601 558 603 561 q 590 500 594 517 l 582 451 l 574 397 l 563 325 q 553 320 561 319 q 546 326 544 321 q 551 372 551 363 q 532 424 551 408 q 467 439 513 439 l 267 439 l 210 118 q 206 76 206 93 q 224 35 206 46 q 296 25 243 25 l 478 25 q 565 75 524 25 q 631 204 607 125 q 640 207 632 208 q 646 201 647 206 q 604 21 622 126 q 597 5 601 10 q 582 0 592 0 l 21 0 q 18 8 18 0 q 21 17 18 17 q 90 24 68 17 q 124 50 113 31 q 143 113 135 69 l 257 756 q 261 799 261 781 q 242 841 261 831 q 169 851 222 851 q 165 860 165 851 q 169 868 165 868 l 699 868 m 335 917 q 328 920 331 917 q 328 926 325 924 l 474 1054 q 486 1061 478 1061 q 499 1054 494 1061 l 599 926 l 599 925 q 595 917 599 921 q 589 917 592 914 l 474 1003 l 336 917 l 335 917 m 333 1072 q 326 1076 329 1072 q 326 1082 324 1079 q 380 1137 349 1113 q 443 1161 411 1161 q 487 1155 463 1161 q 515 1147 511 1149 q 618 1128 576 1128 q 656 1138 642 1128 q 686 1165 671 1147 l 688 1165 q 695 1162 692 1165 q 696 1156 699 1158 q 636 1092 660 1108 q 588 1075 613 1075 q 544 1080 567 1075 q 500 1092 522 1085 q 453 1104 478 1099 q 404 1110 428 1110 q 370 1102 382 1110 q 349 1085 358 1094 q 336 1072 340 1076 l 333 1072 z "},"Ë":{"ha":708,"x_min":18,"x_max":707,"o":"m 699 868 q 707 856 710 868 l 694 774 q 688 730 690 753 q 681 686 685 707 q 671 682 679 681 q 664 688 663 683 q 668 735 668 713 q 644 818 668 788 q 578 849 621 849 l 440 849 q 373 842 394 849 q 340 815 351 835 q 322 754 329 796 l 271 465 l 476 465 q 553 486 529 465 q 585 561 576 507 q 593 565 585 565 q 599 563 596 565 q 601 558 603 561 q 590 500 594 517 l 582 451 l 574 397 l 563 325 q 553 320 561 319 q 546 326 544 321 q 551 372 551 363 q 532 424 551 408 q 467 439 513 439 l 267 439 l 210 118 q 206 76 206 93 q 224 35 206 46 q 296 25 243 25 l 478 25 q 565 75 524 25 q 631 204 607 125 q 640 207 632 208 q 646 201 647 206 q 604 21 622 126 q 597 5 601 10 q 582 0 592 0 l 21 0 q 18 8 18 0 q 21 17 18 17 q 90 24 68 17 q 124 50 113 31 q 143 113 135 69 l 257 756 q 261 799 261 781 q 242 841 261 831 q 169 851 222 851 q 165 860 165 851 q 169 868 165 868 l 699 868 m 389 1000 q 349 1014 364 1000 q 335 1053 335 1028 q 349 1092 335 1078 q 389 1106 364 1106 q 429 1092 415 1106 q 443 1053 443 1078 q 429 1014 443 1028 q 389 1000 415 1000 m 596 1000 q 555 1014 569 1000 q 540 1053 540 1028 q 555 1092 540 1078 q 596 1106 569 1106 q 636 1092 622 1106 q 650 1053 650 1078 q 636 1014 650 1028 q 596 1000 622 1000 z "},"Ė":{"ha":708,"x_min":18,"x_max":707,"o":"m 699 868 q 707 856 710 868 l 694 774 q 688 730 690 753 q 681 686 685 707 q 671 682 679 681 q 664 688 663 683 q 668 735 668 713 q 644 818 668 788 q 578 849 621 849 l 440 849 q 373 842 394 849 q 340 815 351 835 q 322 754 329 796 l 271 465 l 476 465 q 553 486 529 465 q 585 561 576 507 q 593 565 585 565 q 599 563 596 565 q 601 558 603 561 q 590 500 594 517 l 582 451 l 574 397 l 563 325 q 553 320 561 319 q 546 326 544 321 q 551 372 551 363 q 532 424 551 408 q 467 439 513 439 l 267 439 l 210 118 q 206 76 206 93 q 224 35 206 46 q 296 25 243 25 l 478 25 q 565 75 524 25 q 631 204 607 125 q 640 207 632 208 q 646 201 647 206 q 604 21 622 126 q 597 5 601 10 q 582 0 592 0 l 21 0 q 18 8 18 0 q 21 17 18 17 q 90 24 68 17 q 124 50 113 31 q 143 113 135 69 l 257 756 q 261 799 261 781 q 242 841 261 831 q 169 851 222 851 q 165 860 165 851 q 169 868 165 868 l 699 868 m 481 983 q 440 997 456 983 q 425 1036 425 1011 q 440 1075 425 1061 q 481 1089 456 1089 q 521 1075 507 1089 q 535 1036 535 1061 q 521 997 535 1011 q 481 983 507 983 z "},"Ẹ":{"ha":708,"x_min":18,"x_max":707,"o":"m 699 868 q 707 856 710 868 l 694 774 q 688 730 690 753 q 681 686 685 707 q 671 682 679 681 q 664 688 663 683 q 668 735 668 713 q 644 818 668 788 q 578 849 621 849 l 440 849 q 373 842 394 849 q 340 815 351 835 q 322 754 329 796 l 271 465 l 476 465 q 553 486 529 465 q 585 561 576 507 q 593 565 585 565 q 599 563 596 565 q 601 558 603 561 q 590 500 594 517 l 582 451 l 574 397 l 563 325 q 553 320 561 319 q 546 326 544 321 q 551 372 551 363 q 532 424 551 408 q 467 439 513 439 l 267 439 l 210 118 q 206 76 206 93 q 224 35 206 46 q 296 25 243 25 l 478 25 q 565 75 524 25 q 631 204 607 125 q 640 207 632 208 q 646 201 647 206 q 604 21 622 126 q 597 5 601 10 q 582 0 592 0 l 21 0 q 18 8 18 0 q 21 17 18 17 q 90 24 68 17 q 124 50 113 31 q 143 113 135 69 l 257 756 q 261 799 261 781 q 242 841 261 831 q 169 851 222 851 q 165 860 165 851 q 169 868 165 868 l 699 868 m 347 -257 q 306 -243 321 -257 q 292 -203 292 -229 q 306 -165 292 -179 q 347 -151 321 -151 q 388 -165 374 -151 q 401 -203 401 -179 q 388 -243 401 -229 q 347 -257 374 -257 z "},"È":{"ha":708,"x_min":18,"x_max":707,"o":"m 699 868 q 707 856 710 868 l 694 774 q 688 730 690 753 q 681 686 685 707 q 671 682 679 681 q 664 688 663 683 q 668 735 668 713 q 644 818 668 788 q 578 849 621 849 l 440 849 q 373 842 394 849 q 340 815 351 835 q 322 754 329 796 l 271 465 l 476 465 q 553 486 529 465 q 585 561 576 507 q 593 565 585 565 q 599 563 596 565 q 601 558 603 561 q 590 500 594 517 l 582 451 l 574 397 l 563 325 q 553 320 561 319 q 546 326 544 321 q 551 372 551 363 q 532 424 551 408 q 467 439 513 439 l 267 439 l 210 118 q 206 76 206 93 q 224 35 206 46 q 296 25 243 25 l 478 25 q 565 75 524 25 q 631 204 607 125 q 640 207 632 208 q 646 201 647 206 q 604 21 622 126 q 597 5 601 10 q 582 0 592 0 l 21 0 q 18 8 18 0 q 21 17 18 17 q 90 24 68 17 q 124 50 113 31 q 143 113 135 69 l 257 756 q 261 799 261 781 q 242 841 261 831 q 169 851 222 851 q 165 860 165 851 q 169 868 165 868 l 699 868 m 588 943 q 329 1050 463 1011 q 340 1062 319 1051 q 388 1081 361 1072 q 421 1086 415 1089 q 454 1060 443 1069 q 596 957 544 990 q 599 953 599 954 q 595 945 599 949 q 588 943 592 942 z "},"Ẻ":{"ha":708,"x_min":18,"x_max":707,"o":"m 699 868 q 707 856 710 868 l 694 774 q 688 730 690 753 q 681 686 685 707 q 671 682 679 681 q 664 688 663 683 q 668 735 668 713 q 644 818 668 788 q 578 849 621 849 l 440 849 q 373 842 394 849 q 340 815 351 835 q 322 754 329 796 l 271 465 l 476 465 q 553 486 529 465 q 585 561 576 507 q 593 565 585 565 q 599 563 596 565 q 601 558 603 561 q 590 500 594 517 l 582 451 l 574 397 l 563 325 q 553 320 561 319 q 546 326 544 321 q 551 372 551 363 q 532 424 551 408 q 467 439 513 439 l 267 439 l 210 118 q 206 76 206 93 q 224 35 206 46 q 296 25 243 25 l 478 25 q 565 75 524 25 q 631 204 607 125 q 640 207 632 208 q 646 201 647 206 q 604 21 622 126 q 597 5 601 10 q 582 0 592 0 l 21 0 q 18 8 18 0 q 21 17 18 17 q 90 24 68 17 q 124 50 113 31 q 143 113 135 69 l 257 756 q 261 799 261 781 q 242 841 261 831 q 169 851 222 851 q 165 860 165 851 q 169 868 165 868 l 699 868 m 474 901 q 467 899 475 899 q 457 901 458 899 q 465 955 453 932 q 504 1008 478 978 q 536 1051 526 1035 q 546 1088 546 1067 q 531 1122 546 1110 q 492 1133 515 1133 q 454 1126 472 1133 l 451 1125 q 444 1130 447 1125 q 447 1138 442 1135 q 536 1163 492 1163 q 592 1146 572 1163 q 611 1104 611 1129 q 593 1053 611 1075 q 540 1001 575 1031 q 488 949 504 971 q 474 901 471 928 z "},"Ē":{"ha":708,"x_min":18,"x_max":707,"o":"m 699 868 q 707 856 710 868 l 694 774 q 688 730 690 753 q 681 686 685 707 q 671 682 679 681 q 664 688 663 683 q 668 735 668 713 q 644 818 668 788 q 578 849 621 849 l 440 849 q 373 842 394 849 q 340 815 351 835 q 322 754 329 796 l 271 465 l 476 465 q 553 486 529 465 q 585 561 576 507 q 593 565 585 565 q 599 563 596 565 q 601 558 603 561 q 590 500 594 517 l 582 451 l 574 397 l 563 325 q 553 320 561 319 q 546 326 544 321 q 551 372 551 363 q 532 424 551 408 q 467 439 513 439 l 267 439 l 210 118 q 206 76 206 93 q 224 35 206 46 q 296 25 243 25 l 478 25 q 565 75 524 25 q 631 204 607 125 q 640 207 632 208 q 646 201 647 206 q 604 21 622 126 q 597 5 601 10 q 582 0 592 0 l 21 0 q 18 8 18 0 q 21 17 18 17 q 90 24 68 17 q 124 50 113 31 q 143 113 135 69 l 257 756 q 261 799 261 781 q 242 841 261 831 q 169 851 222 851 q 165 860 165 851 q 169 868 165 868 l 699 868 m 326 999 q 322 1004 324 999 q 319 1017 319 1010 q 326 1035 319 1035 l 660 1035 q 667 1017 667 1035 q 660 999 667 999 l 326 999 z "},"Ę":{"ha":708,"x_min":18,"x_max":710,"o":"m 699 868 q 707 856 710 868 l 694 774 q 688 730 690 753 q 681 686 685 707 q 671 682 679 681 q 664 688 663 683 q 668 735 668 713 q 644 818 668 788 q 578 849 621 849 l 440 849 q 373 842 394 849 q 340 815 351 835 q 322 754 329 796 l 271 465 l 476 465 q 553 486 529 465 q 585 561 576 507 q 593 565 585 565 q 599 563 596 565 q 601 558 603 561 q 590 500 594 517 l 582 451 l 574 397 l 563 325 q 553 320 561 319 q 546 326 544 321 q 551 372 551 363 q 532 424 551 408 q 467 439 513 439 l 267 439 l 210 118 q 206 76 206 93 q 224 35 206 46 q 296 25 243 25 l 478 25 q 565 75 524 25 q 631 204 607 125 q 640 207 632 208 q 646 201 647 206 q 604 21 622 126 q 597 5 601 10 q 582 0 592 0 l 524 0 q 424 -108 461 -58 q 378 -208 386 -158 q 374 -250 374 -232 q 397 -320 374 -296 q 464 -344 419 -344 q 507 -335 490 -344 q 550 -307 524 -326 l 551 -307 q 559 -312 556 -307 q 560 -319 563 -317 q 421 -382 489 -382 q 344 -355 371 -382 q 317 -279 317 -328 q 319 -249 317 -271 q 376 -131 329 -193 q 500 0 424 -69 l 21 0 q 18 8 18 0 q 21 17 18 17 q 90 24 68 17 q 124 50 113 31 q 143 113 135 69 l 257 756 q 261 799 261 781 q 242 841 261 831 q 169 851 222 851 q 165 860 165 851 q 169 868 165 868 l 699 868 z "},"Ẽ":{"ha":708,"x_min":18,"x_max":707,"o":"m 699 868 q 707 856 710 868 l 694 774 q 688 730 690 753 q 681 686 685 707 q 671 682 679 681 q 664 688 663 683 q 668 735 668 713 q 644 818 668 788 q 578 849 621 849 l 440 849 q 373 842 394 849 q 340 815 351 835 q 322 754 329 796 l 271 465 l 476 465 q 553 486 529 465 q 585 561 576 507 q 593 565 585 565 q 599 563 596 565 q 601 558 603 561 q 590 500 594 517 l 582 451 l 574 397 l 563 325 q 553 320 561 319 q 546 326 544 321 q 551 372 551 363 q 532 424 551 408 q 467 439 513 439 l 267 439 l 210 118 q 206 76 206 93 q 224 35 206 46 q 296 25 243 25 l 478 25 q 565 75 524 25 q 631 204 607 125 q 640 207 632 208 q 646 201 647 206 q 604 21 622 126 q 597 5 601 10 q 582 0 592 0 l 21 0 q 18 8 18 0 q 21 17 18 17 q 90 24 68 17 q 124 50 113 31 q 143 113 135 69 l 257 756 q 261 799 261 781 q 242 841 261 831 q 169 851 222 851 q 165 860 165 851 q 169 868 165 868 l 699 868 m 315 968 q 308 972 311 968 q 307 978 304 975 q 360 1033 329 1008 q 424 1058 392 1058 q 496 1043 447 1058 q 599 1024 557 1024 q 637 1033 622 1024 q 667 1061 651 1043 l 669 1061 q 676 1058 674 1061 q 676 1051 679 1054 q 617 988 640 1004 q 568 972 593 972 q 525 977 547 972 q 481 989 503 982 q 385 1006 422 1006 q 351 998 363 1006 q 330 981 339 990 q 317 968 321 972 l 315 968 z "},"F":{"ha":671,"x_min":14,"x_max":707,"o":"m 696 868 q 703 856 707 868 l 678 686 q 668 682 676 681 q 661 688 660 683 q 665 733 665 713 q 642 817 665 786 q 575 849 618 849 l 438 849 q 369 842 392 849 q 337 815 347 835 q 318 754 326 796 l 265 449 l 457 449 q 533 470 510 449 q 565 544 557 492 q 575 549 567 550 q 582 543 583 549 q 569 472 571 476 l 563 435 q 549 347 556 399 l 543 308 q 533 303 542 303 q 526 310 525 304 q 531 354 531 335 q 512 407 531 392 q 447 422 493 422 l 260 422 l 207 118 q 201 74 201 85 q 231 28 201 40 q 343 17 260 17 q 346 8 346 17 q 343 0 346 0 q 267 1 294 0 l 153 3 l 75 1 q 18 0 54 0 q 14 8 14 0 q 18 17 14 17 q 87 24 64 17 q 121 51 110 31 q 140 113 132 71 l 253 756 q 258 800 258 779 q 238 840 258 829 q 165 851 218 851 q 163 860 163 851 q 165 868 163 868 l 696 868 z "},"G":{"ha":875,"x_min":89,"x_max":843,"o":"m 458 -17 q 258 28 340 -17 q 132 151 175 72 q 89 332 89 229 q 97 428 89 378 q 201 663 121 560 q 399 825 282 767 q 650 883 517 883 q 756 869 707 883 q 835 831 806 856 q 843 813 843 822 l 842 799 l 831 653 q 822 647 829 647 q 814 653 814 647 q 753 803 810 751 q 596 854 697 854 q 325 753 433 854 q 183 478 217 651 q 172 363 172 414 q 212 175 172 256 q 324 51 251 94 q 492 7 396 7 q 592 19 556 7 q 650 68 628 32 q 683 175 672 104 q 694 263 694 235 q 684 302 694 289 q 649 319 674 315 q 575 324 624 324 q 570 327 572 324 q 568 335 568 331 q 570 342 568 339 q 575 346 572 346 q 719 339 663 339 q 833 343 774 339 q 839 333 839 343 q 833 324 839 324 q 788 315 803 325 q 764 272 774 304 q 740 161 754 240 q 730 75 731 100 q 728 39 729 50 q 724 28 726 31 q 711 22 721 26 q 458 -17 568 -17 z "},"Ğ":{"ha":875,"x_min":89,"x_max":843,"o":"m 458 -17 q 258 28 340 -17 q 132 151 175 72 q 89 332 89 229 q 97 428 89 378 q 201 663 121 560 q 399 825 282 767 q 650 883 517 883 q 756 869 707 883 q 835 831 806 856 q 843 813 843 822 l 842 799 l 831 653 q 822 647 829 647 q 814 653 814 647 q 753 803 810 751 q 596 854 697 854 q 325 753 433 854 q 183 478 217 651 q 172 363 172 414 q 212 175 172 256 q 324 51 251 94 q 492 7 396 7 q 592 19 556 7 q 650 68 628 32 q 683 175 672 104 q 694 263 694 235 q 684 302 694 289 q 649 319 674 315 q 575 324 624 324 q 570 327 572 324 q 568 335 568 331 q 570 342 568 339 q 575 346 572 346 q 719 339 663 339 q 833 343 774 339 q 839 333 839 343 q 833 324 839 324 q 788 315 803 325 q 764 272 774 304 q 740 161 754 240 q 730 75 731 100 q 728 39 729 50 q 724 28 726 31 q 711 22 721 26 q 458 -17 568 -17 m 628 925 q 538 960 568 925 q 508 1042 508 996 q 525 1057 508 1050 q 556 1064 542 1064 q 567 1060 567 1064 q 592 991 569 1017 q 656 965 615 965 q 711 986 688 965 q 757 1054 735 1007 q 765 1058 760 1058 q 776 1056 771 1058 q 779 1050 781 1053 q 715 956 750 988 q 628 925 679 925 z "},"Ǧ":{"ha":875,"x_min":89,"x_max":843,"o":"m 458 -17 q 258 28 340 -17 q 132 151 175 72 q 89 332 89 229 q 97 428 89 378 q 201 663 121 560 q 399 825 282 767 q 650 883 517 883 q 756 869 707 883 q 835 831 806 856 q 843 813 843 822 l 842 799 l 831 653 q 822 647 829 647 q 814 653 814 647 q 753 803 810 751 q 596 854 697 854 q 325 753 433 854 q 183 478 217 651 q 172 363 172 414 q 212 175 172 256 q 324 51 251 94 q 492 7 396 7 q 592 19 556 7 q 650 68 628 32 q 683 175 672 104 q 694 263 694 235 q 684 302 694 289 q 649 319 674 315 q 575 324 624 324 q 570 327 572 324 q 568 335 568 331 q 570 342 568 339 q 575 346 572 346 q 719 339 663 339 q 833 343 774 339 q 839 333 839 343 q 833 324 839 324 q 788 315 803 325 q 764 272 774 304 q 740 161 754 240 q 730 75 731 100 q 728 39 729 50 q 724 28 726 31 q 711 22 721 26 q 458 -17 568 -17 m 513 1067 l 513 1068 q 517 1074 513 1071 q 522 1076 521 1078 l 636 990 l 774 1078 l 775 1078 q 783 1073 779 1078 q 782 1067 786 1068 l 638 938 q 624 932 632 932 q 611 938 617 932 l 513 1067 z "},"Ĝ":{"ha":875,"x_min":89,"x_max":843,"o":"m 458 -17 q 258 28 340 -17 q 132 151 175 72 q 89 332 89 229 q 97 428 89 378 q 201 663 121 560 q 399 825 282 767 q 650 883 517 883 q 756 869 707 883 q 835 831 806 856 q 843 813 843 822 l 842 799 l 831 653 q 822 647 829 647 q 814 653 814 647 q 753 803 810 751 q 596 854 697 854 q 325 753 433 854 q 183 478 217 651 q 172 363 172 414 q 212 175 172 256 q 324 51 251 94 q 492 7 396 7 q 592 19 556 7 q 650 68 628 32 q 683 175 672 104 q 694 263 694 235 q 684 302 694 289 q 649 319 674 315 q 575 324 624 324 q 570 327 572 324 q 568 335 568 331 q 570 342 568 339 q 575 346 572 346 q 719 339 663 339 q 833 343 774 339 q 839 333 839 343 q 833 324 839 324 q 788 315 803 325 q 764 272 774 304 q 740 161 754 240 q 730 75 731 100 q 728 39 729 50 q 724 28 726 31 q 711 22 721 26 q 458 -17 568 -17 m 500 917 q 493 920 496 917 q 493 926 490 924 l 639 1054 q 651 1061 643 1061 q 664 1054 660 1061 l 764 926 l 764 925 q 760 917 764 921 q 754 917 757 914 l 639 1003 l 501 917 l 500 917 z "},"Ģ":{"ha":875,"x_min":89,"x_max":843,"o":"m 458 -17 q 258 28 340 -17 q 132 151 175 72 q 89 332 89 229 q 97 428 89 378 q 201 663 121 560 q 399 825 282 767 q 650 883 517 883 q 756 869 707 883 q 835 831 806 856 q 843 813 843 822 l 842 799 l 831 653 q 822 647 829 647 q 814 653 814 647 q 753 803 810 751 q 596 854 697 854 q 325 753 433 854 q 183 478 217 651 q 172 363 172 414 q 212 175 172 256 q 324 51 251 94 q 492 7 396 7 q 592 19 556 7 q 650 68 628 32 q 683 175 672 104 q 694 263 694 235 q 684 302 694 289 q 649 319 674 315 q 575 324 624 324 q 570 327 572 324 q 568 335 568 331 q 570 342 568 339 q 575 346 572 346 q 719 339 663 339 q 833 343 774 339 q 839 333 839 343 q 833 324 839 324 q 788 315 803 325 q 764 272 774 304 q 740 161 754 240 q 730 75 731 100 q 728 39 729 50 q 724 28 726 31 q 711 22 721 26 q 458 -17 568 -17 m 450 -125 q 502 -147 482 -125 q 522 -210 522 -169 q 418 -382 522 -303 l 415 -383 q 407 -377 410 -383 q 408 -368 404 -371 q 481 -258 472 -321 q 482 -236 482 -250 q 478 -207 482 -219 q 440 -222 467 -222 q 403 -209 417 -222 q 390 -174 390 -196 q 406 -137 390 -150 q 450 -125 422 -125 z "},"Ġ":{"ha":875,"x_min":89,"x_max":843,"o":"m 458 -17 q 258 28 340 -17 q 132 151 175 72 q 89 332 89 229 q 97 428 89 378 q 201 663 121 560 q 399 825 282 767 q 650 883 517 883 q 756 869 707 883 q 835 831 806 856 q 843 813 843 822 l 842 799 l 831 653 q 822 647 829 647 q 814 653 814 647 q 753 803 810 751 q 596 854 697 854 q 325 753 433 854 q 183 478 217 651 q 172 363 172 414 q 212 175 172 256 q 324 51 251 94 q 492 7 396 7 q 592 19 556 7 q 650 68 628 32 q 683 175 672 104 q 694 263 694 235 q 684 302 694 289 q 649 319 674 315 q 575 324 624 324 q 570 327 572 324 q 568 335 568 331 q 570 342 568 339 q 575 346 572 346 q 719 339 663 339 q 833 343 774 339 q 839 333 839 343 q 833 324 839 324 q 788 315 803 325 q 764 272 774 304 q 740 161 754 240 q 730 75 731 100 q 728 39 729 50 q 724 28 726 31 q 711 22 721 26 q 458 -17 568 -17 m 636 983 q 596 997 611 983 q 581 1036 581 1011 q 596 1075 581 1061 q 636 1089 611 1089 q 676 1075 663 1089 q 690 1036 690 1061 q 676 997 690 1011 q 636 983 663 983 z "},"Ḡ":{"ha":875,"x_min":89,"x_max":843,"o":"m 458 -17 q 258 28 340 -17 q 132 151 175 72 q 89 332 89 229 q 97 428 89 378 q 201 663 121 560 q 399 825 282 767 q 650 883 517 883 q 756 869 707 883 q 835 831 806 856 q 843 813 843 822 l 842 799 l 831 653 q 822 647 829 647 q 814 653 814 647 q 753 803 810 751 q 596 854 697 854 q 325 753 433 854 q 183 478 217 651 q 172 363 172 414 q 212 175 172 256 q 324 51 251 94 q 492 7 396 7 q 592 19 556 7 q 650 68 628 32 q 683 175 672 104 q 694 263 694 235 q 684 302 694 289 q 649 319 674 315 q 575 324 624 324 q 570 327 572 324 q 568 335 568 331 q 570 342 568 339 q 575 346 572 346 q 719 339 663 339 q 833 343 774 339 q 839 333 839 343 q 833 324 839 324 q 788 315 803 325 q 764 272 774 304 q 740 161 754 240 q 730 75 731 100 q 728 39 729 50 q 724 28 726 31 q 711 22 721 26 q 458 -17 568 -17 m 440 990 q 433 1008 433 990 q 440 1025 433 1025 l 789 1025 q 794 1019 792 1025 q 796 1008 796 1014 q 789 990 796 990 l 440 990 z "},"H":{"ha":931,"x_min":11,"x_max":975,"o":"m 971 868 q 975 860 975 868 q 971 851 975 851 q 903 844 925 851 q 869 817 881 836 q 850 756 857 797 l 736 113 q 732 69 732 88 q 752 27 732 38 q 825 17 772 17 q 829 8 829 17 q 825 0 829 0 q 768 1 789 0 l 689 3 l 607 1 q 549 0 586 0 q 546 8 546 0 q 549 17 546 17 q 619 24 596 17 q 653 50 642 31 q 671 113 664 69 l 728 439 l 261 439 l 203 113 q 197 68 197 76 q 217 27 197 38 q 290 17 238 17 q 294 8 294 17 q 290 0 294 0 q 233 1 254 0 l 150 3 l 69 1 q 15 0 50 0 q 11 8 11 0 q 15 17 11 17 q 84 24 61 17 q 119 51 107 31 q 138 113 131 71 l 251 756 q 256 799 256 781 q 236 841 256 831 q 164 851 217 851 q 161 860 161 851 q 164 868 161 868 l 219 867 q 299 864 269 864 q 382 867 329 864 l 439 868 q 442 860 442 868 q 439 851 442 851 q 370 843 393 851 q 336 815 347 835 q 317 753 325 794 l 265 465 l 733 465 l 783 753 q 789 799 789 789 q 769 840 789 829 q 697 851 750 851 q 693 860 693 851 q 697 868 693 868 l 753 867 q 833 864 803 864 q 914 867 864 864 l 971 868 z "},"Ħ":{"ha":931,"x_min":11,"x_max":975,"o":"m 971 868 q 975 860 975 868 q 971 851 975 851 q 903 844 925 851 q 869 817 881 836 q 850 756 857 797 l 736 113 q 731 69 731 76 q 751 27 731 38 q 825 17 771 17 q 829 8 829 17 q 825 0 829 0 q 768 1 789 0 l 689 3 l 607 1 q 549 0 586 0 q 546 8 546 0 q 549 17 546 17 q 619 24 596 17 q 653 50 642 31 q 671 113 664 69 l 706 308 l 238 308 l 203 113 q 197 68 197 76 q 217 27 197 38 q 290 17 238 17 q 294 8 294 17 q 290 0 294 0 q 233 1 254 0 l 150 3 l 69 1 q 15 0 50 0 q 11 8 11 0 q 15 17 11 17 q 84 24 61 17 q 119 51 107 31 q 138 113 131 71 l 251 756 q 257 800 257 792 q 237 841 257 831 q 164 851 217 851 q 161 860 161 851 q 164 868 161 868 l 219 867 q 299 864 269 864 q 382 867 329 864 l 439 868 q 442 860 442 868 q 439 851 442 851 q 370 843 393 851 q 336 815 347 835 q 317 753 325 794 l 289 594 l 756 594 l 783 753 q 789 799 789 789 q 769 840 789 829 q 697 851 750 851 q 693 860 693 851 q 697 868 693 868 l 753 867 q 833 864 803 864 q 914 867 864 864 l 971 868 m 242 335 l 710 335 l 751 568 l 283 568 l 242 335 z "},"Ḫ":{"ha":931,"x_min":11,"x_max":975,"o":"m 971 868 q 975 860 975 868 q 971 851 975 851 q 903 844 925 851 q 869 817 881 836 q 850 756 857 797 l 736 113 q 732 69 732 88 q 752 27 732 38 q 825 17 772 17 q 829 8 829 17 q 825 0 829 0 q 768 1 789 0 l 689 3 l 607 1 q 549 0 586 0 q 546 8 546 0 q 549 17 546 17 q 619 24 596 17 q 653 50 642 31 q 671 113 664 69 l 728 439 l 261 439 l 203 113 q 197 68 197 76 q 217 27 197 38 q 290 17 238 17 q 294 8 294 17 q 290 0 294 0 q 233 1 254 0 l 150 3 l 69 1 q 15 0 50 0 q 11 8 11 0 q 15 17 11 17 q 84 24 61 17 q 119 51 107 31 q 138 113 131 71 l 251 756 q 256 799 256 781 q 236 841 256 831 q 164 851 217 851 q 161 860 161 851 q 164 868 161 868 l 219 867 q 299 864 269 864 q 382 867 329 864 l 439 868 q 442 860 442 868 q 439 851 442 851 q 370 843 393 851 q 336 815 347 835 q 317 753 325 794 l 265 465 l 733 465 l 783 753 q 789 799 789 789 q 769 840 789 829 q 697 851 750 851 q 693 860 693 851 q 697 868 693 868 l 753 867 q 833 864 803 864 q 914 867 864 864 l 971 868 m 393 -269 q 303 -234 333 -269 q 274 -153 274 -199 q 290 -137 274 -144 q 321 -131 307 -131 q 332 -135 332 -131 q 358 -203 335 -178 q 421 -229 381 -229 q 476 -208 453 -229 q 522 -140 500 -187 q 531 -136 524 -136 q 541 -139 536 -136 q 544 -144 546 -142 q 480 -238 515 -207 q 393 -269 444 -269 z "},"Ĥ":{"ha":931,"x_min":11,"x_max":975,"o":"m 971 868 q 975 860 975 868 q 971 851 975 851 q 903 844 925 851 q 869 817 881 836 q 850 756 857 797 l 736 113 q 732 69 732 88 q 752 27 732 38 q 825 17 772 17 q 829 8 829 17 q 825 0 829 0 q 768 1 789 0 l 689 3 l 607 1 q 549 0 586 0 q 546 8 546 0 q 549 17 546 17 q 619 24 596 17 q 653 50 642 31 q 671 113 664 69 l 728 439 l 261 439 l 203 113 q 197 68 197 76 q 217 27 197 38 q 290 17 238 17 q 294 8 294 17 q 290 0 294 0 q 233 1 254 0 l 150 3 l 69 1 q 15 0 50 0 q 11 8 11 0 q 15 17 11 17 q 84 24 61 17 q 119 51 107 31 q 138 113 131 71 l 251 756 q 256 799 256 781 q 236 841 256 831 q 164 851 217 851 q 161 860 161 851 q 164 868 161 868 l 219 867 q 299 864 269 864 q 382 867 329 864 l 439 868 q 442 860 442 868 q 439 851 442 851 q 370 843 393 851 q 336 815 347 835 q 317 753 325 794 l 265 465 l 733 465 l 783 753 q 789 799 789 789 q 769 840 789 829 q 697 851 750 851 q 693 860 693 851 q 697 868 693 868 l 753 867 q 833 864 803 864 q 914 867 864 864 l 971 868 m 457 917 q 450 920 453 917 q 450 926 447 924 l 596 1054 q 608 1061 600 1061 q 621 1054 617 1061 l 721 926 l 721 925 q 717 917 721 921 q 711 917 714 914 l 596 1003 l 458 917 l 457 917 z "},"Ḥ":{"ha":931,"x_min":11,"x_max":975,"o":"m 971 868 q 975 860 975 868 q 971 851 975 851 q 903 844 925 851 q 869 817 881 836 q 850 756 857 797 l 736 113 q 732 69 732 88 q 752 27 732 38 q 825 17 772 17 q 829 8 829 17 q 825 0 829 0 q 768 1 789 0 l 689 3 l 607 1 q 549 0 586 0 q 546 8 546 0 q 549 17 546 17 q 619 24 596 17 q 653 50 642 31 q 671 113 664 69 l 728 439 l 261 439 l 203 113 q 197 68 197 76 q 217 27 197 38 q 290 17 238 17 q 294 8 294 17 q 290 0 294 0 q 233 1 254 0 l 150 3 l 69 1 q 15 0 50 0 q 11 8 11 0 q 15 17 11 17 q 84 24 61 17 q 119 51 107 31 q 138 113 131 71 l 251 756 q 256 799 256 781 q 236 841 256 831 q 164 851 217 851 q 161 860 161 851 q 164 868 161 868 l 219 867 q 299 864 269 864 q 382 867 329 864 l 439 868 q 442 860 442 868 q 439 851 442 851 q 370 843 393 851 q 336 815 347 835 q 317 753 325 794 l 265 465 l 733 465 l 783 753 q 789 799 789 789 q 769 840 789 829 q 697 851 750 851 q 693 860 693 851 q 697 868 693 868 l 753 867 q 833 864 803 864 q 914 867 864 864 l 971 868 m 407 -257 q 366 -243 381 -257 q 351 -203 351 -229 q 366 -165 351 -179 q 407 -151 381 -151 q 447 -165 433 -151 q 461 -203 461 -179 q 447 -243 461 -229 q 407 -257 433 -257 z "},"I":{"ha":418,"x_min":22,"x_max":453,"o":"m 26 0 q 22 8 22 0 q 26 17 22 17 q 95 24 72 17 q 129 51 118 31 q 147 113 140 71 l 261 756 q 267 799 267 789 q 247 841 267 831 q 172 851 226 851 q 168 860 168 851 q 172 868 168 868 l 229 867 q 308 864 279 864 q 396 867 346 864 l 450 868 q 453 860 453 868 q 450 851 453 851 q 381 843 404 851 q 347 815 358 835 q 328 753 336 794 l 214 113 q 210 69 210 86 q 229 27 210 38 q 304 17 249 17 q 307 8 307 17 q 304 0 307 0 q 249 1 269 0 l 164 3 l 85 1 q 26 0 64 0 z "},"Ĳ":{"ha":860,"x_min":71,"x_max":925,"o":"m 76 374 q 71 382 71 374 q 76 390 71 390 q 149 397 125 390 q 184 424 172 404 q 203 486 196 444 l 250 756 q 256 799 256 792 q 235 841 256 831 q 157 851 214 851 q 151 860 151 851 q 157 868 151 868 l 221 867 q 304 864 274 864 q 393 867 340 864 l 450 868 q 457 860 457 868 q 450 851 457 851 q 377 843 401 851 q 341 815 353 835 q 322 753 329 794 l 275 486 q 269 439 269 460 q 290 400 269 410 q 367 390 310 390 q 372 382 372 390 q 367 374 372 374 q 308 375 329 374 l 221 376 l 138 375 q 76 374 115 374 m 393 -18 q 259 10 317 -18 q 171 81 201 38 q 140 171 140 125 q 142 189 140 183 q 155 220 143 208 q 182 232 167 232 q 216 214 208 232 q 226 154 224 196 q 261 46 229 90 q 386 1 293 1 q 650 278 601 1 l 735 756 q 739 797 739 781 q 716 840 739 829 q 626 851 693 851 q 622 860 622 851 q 626 868 622 868 l 697 867 q 786 864 756 864 q 867 867 817 864 l 919 868 q 925 860 925 868 q 919 851 925 851 q 855 843 876 851 q 822 815 833 835 q 804 753 811 794 l 736 358 q 611 81 704 179 q 393 -18 518 -18 z "},"Í":{"ha":418,"x_min":22,"x_max":551,"o":"m 26 0 q 22 8 22 0 q 26 17 22 17 q 95 24 72 17 q 129 51 118 31 q 147 113 140 71 l 261 756 q 267 799 267 789 q 247 841 267 831 q 172 851 226 851 q 168 860 168 851 q 172 868 168 868 l 229 867 q 308 864 279 864 q 396 867 346 864 l 450 868 q 453 860 453 868 q 450 851 453 851 q 381 843 404 851 q 347 815 358 835 q 328 753 336 794 l 214 113 q 210 69 210 86 q 229 27 210 38 q 304 17 249 17 q 307 8 307 17 q 304 0 307 0 q 249 1 269 0 l 164 3 l 85 1 q 26 0 64 0 m 238 942 q 231 948 232 942 q 233 957 229 954 q 403 1047 297 986 l 472 1086 q 501 1081 478 1089 q 541 1062 524 1072 q 549 1050 558 1051 q 391 1003 463 1029 q 240 943 319 978 l 238 942 z "},"Ĭ":{"ha":418,"x_min":22,"x_max":482,"o":"m 26 0 q 22 8 22 0 q 26 17 22 17 q 95 24 72 17 q 129 51 118 31 q 147 113 140 71 l 261 756 q 267 799 267 789 q 247 841 267 831 q 172 851 226 851 q 168 860 168 851 q 172 868 168 868 l 229 867 q 308 864 279 864 q 396 867 346 864 l 450 868 q 453 860 453 868 q 450 851 453 851 q 381 843 404 851 q 347 815 358 835 q 328 753 336 794 l 214 113 q 210 69 210 86 q 229 27 210 38 q 304 17 249 17 q 307 8 307 17 q 304 0 307 0 q 249 1 269 0 l 164 3 l 85 1 q 26 0 64 0 m 331 925 q 241 960 271 925 q 211 1042 211 996 q 228 1057 211 1050 q 258 1064 244 1064 q 269 1060 269 1064 q 295 991 272 1017 q 358 965 318 965 q 414 986 390 965 q 460 1054 438 1007 q 468 1058 463 1058 q 478 1056 474 1058 q 482 1050 483 1053 q 417 956 453 988 q 331 925 382 925 z "},"Ǐ":{"ha":418,"x_min":22,"x_max":478,"o":"m 26 0 q 22 8 22 0 q 26 17 22 17 q 95 24 72 17 q 129 51 118 31 q 147 113 140 71 l 261 756 q 267 799 267 789 q 247 841 267 831 q 172 851 226 851 q 168 860 168 851 q 172 868 168 868 l 229 867 q 308 864 279 864 q 396 867 346 864 l 450 868 q 453 860 453 868 q 450 851 453 851 q 381 843 404 851 q 347 815 358 835 q 328 753 336 794 l 214 113 q 210 69 210 86 q 229 27 210 38 q 304 17 249 17 q 307 8 307 17 q 304 0 307 0 q 249 1 269 0 l 164 3 l 85 1 q 26 0 64 0 m 207 1067 l 207 1068 q 211 1074 207 1071 q 217 1076 215 1078 l 331 990 l 468 1078 l 469 1078 q 477 1073 474 1078 q 476 1067 481 1068 l 332 938 q 318 932 326 932 q 306 938 311 932 l 207 1067 z "},"Î":{"ha":418,"x_min":22,"x_max":458,"o":"m 26 0 q 22 8 22 0 q 26 17 22 17 q 95 24 72 17 q 129 51 118 31 q 147 113 140 71 l 261 756 q 267 799 267 789 q 247 841 267 831 q 172 851 226 851 q 168 860 168 851 q 172 868 168 868 l 229 867 q 308 864 279 864 q 396 867 346 864 l 450 868 q 453 860 453 868 q 450 851 453 851 q 381 843 404 851 q 347 815 358 835 q 328 753 336 794 l 214 113 q 210 69 210 86 q 229 27 210 38 q 304 17 249 17 q 307 8 307 17 q 304 0 307 0 q 249 1 269 0 l 164 3 l 85 1 q 26 0 64 0 m 194 917 q 188 920 190 917 q 188 926 185 924 l 333 1054 q 346 1061 338 1061 q 358 1054 354 1061 l 458 926 l 458 925 q 455 917 458 921 q 449 917 451 914 l 333 1003 l 196 917 l 194 917 z "},"Ï":{"ha":418,"x_min":22,"x_max":485,"o":"m 26 0 q 22 8 22 0 q 26 17 22 17 q 95 24 72 17 q 129 51 118 31 q 147 113 140 71 l 261 756 q 267 799 267 789 q 247 841 267 831 q 172 851 226 851 q 168 860 168 851 q 172 868 168 868 l 229 867 q 308 864 279 864 q 396 867 346 864 l 450 868 q 453 860 453 868 q 450 851 453 851 q 381 843 404 851 q 347 815 358 835 q 328 753 336 794 l 214 113 q 210 69 210 86 q 229 27 210 38 q 304 17 249 17 q 307 8 307 17 q 304 0 307 0 q 249 1 269 0 l 164 3 l 85 1 q 26 0 64 0 m 254 1000 q 213 1014 228 1000 q 199 1053 199 1028 q 213 1092 199 1078 q 254 1106 228 1106 q 294 1092 281 1106 q 308 1053 308 1078 q 294 1014 308 1028 q 254 1000 281 1000 m 431 1000 q 391 1014 406 1000 q 376 1053 376 1028 q 391 1092 376 1078 q 431 1106 406 1106 q 471 1092 457 1106 q 485 1053 485 1078 q 471 1014 485 1028 q 431 1000 457 1000 z "},"İ":{"ha":418,"x_min":22,"x_max":453,"o":"m 26 0 q 22 8 22 0 q 26 17 22 17 q 95 24 72 17 q 129 51 118 31 q 147 113 140 71 l 261 756 q 267 799 267 789 q 247 841 267 831 q 172 851 226 851 q 168 860 168 851 q 172 868 168 868 l 229 867 q 308 864 279 864 q 396 867 346 864 l 450 868 q 453 860 453 868 q 450 851 453 851 q 381 843 404 851 q 347 815 358 835 q 328 753 336 794 l 214 113 q 210 69 210 86 q 229 27 210 38 q 304 17 249 17 q 307 8 307 17 q 304 0 307 0 q 249 1 269 0 l 164 3 l 85 1 q 26 0 64 0 m 331 983 q 290 997 306 983 q 275 1036 275 1011 q 290 1075 275 1061 q 331 1089 306 1089 q 371 1075 357 1089 q 385 1036 385 1061 q 371 997 385 1011 q 331 983 357 983 z "},"Ị":{"ha":418,"x_min":22,"x_max":453,"o":"m 26 0 q 22 8 22 0 q 26 17 22 17 q 95 24 72 17 q 129 51 118 31 q 147 113 140 71 l 261 756 q 267 799 267 789 q 247 841 267 831 q 172 851 226 851 q 168 860 168 851 q 172 868 168 868 l 229 867 q 308 864 279 864 q 396 867 346 864 l 450 868 q 453 860 453 868 q 450 851 453 851 q 381 843 404 851 q 347 815 358 835 q 328 753 336 794 l 214 113 q 210 69 210 86 q 229 27 210 38 q 304 17 249 17 q 307 8 307 17 q 304 0 307 0 q 249 1 269 0 l 164 3 l 85 1 q 26 0 64 0 m 135 -257 q 94 -243 108 -257 q 79 -203 79 -229 q 94 -165 79 -179 q 135 -151 108 -151 q 175 -165 161 -151 q 189 -203 189 -179 q 175 -243 189 -229 q 135 -257 161 -257 z "},"Ì":{"ha":418,"x_min":22,"x_max":453,"o":"m 26 0 q 22 8 22 0 q 26 17 22 17 q 95 24 72 17 q 129 51 118 31 q 147 113 140 71 l 261 756 q 267 799 267 789 q 247 841 267 831 q 172 851 226 851 q 168 860 168 851 q 172 868 168 868 l 229 867 q 308 864 279 864 q 396 867 346 864 l 450 868 q 453 860 453 868 q 450 851 453 851 q 381 843 404 851 q 347 815 358 835 q 328 753 336 794 l 214 113 q 210 69 210 86 q 229 27 210 38 q 304 17 249 17 q 307 8 307 17 q 304 0 307 0 q 249 1 269 0 l 164 3 l 85 1 q 26 0 64 0 m 438 943 q 179 1050 313 1011 q 190 1062 169 1051 q 238 1081 211 1072 q 271 1086 265 1089 q 304 1060 293 1069 q 446 957 394 990 q 449 953 449 954 q 445 945 449 949 q 438 943 442 942 z "},"Ỉ":{"ha":418,"x_min":22,"x_max":461,"o":"m 26 0 q 22 8 22 0 q 26 17 22 17 q 95 24 72 17 q 129 51 118 31 q 147 113 140 71 l 261 756 q 267 799 267 789 q 247 841 267 831 q 172 851 226 851 q 168 860 168 851 q 172 868 168 868 l 229 867 q 308 864 279 864 q 396 867 346 864 l 450 868 q 453 860 453 868 q 450 851 453 851 q 381 843 404 851 q 347 815 358 835 q 328 753 336 794 l 214 113 q 210 69 210 86 q 229 27 210 38 q 304 17 249 17 q 307 8 307 17 q 304 0 307 0 q 249 1 269 0 l 164 3 l 85 1 q 26 0 64 0 m 324 901 q 317 899 325 899 q 307 901 308 899 q 315 955 303 932 q 354 1008 328 978 q 386 1051 376 1035 q 396 1088 396 1067 q 381 1122 396 1110 q 342 1133 365 1133 q 304 1126 322 1133 l 301 1125 q 294 1130 297 1125 q 297 1138 292 1135 q 386 1163 342 1163 q 442 1146 422 1163 q 461 1104 461 1129 q 443 1053 461 1075 q 390 1001 425 1031 q 338 949 354 971 q 324 901 321 928 z "},"Ī":{"ha":418,"x_min":22,"x_max":517,"o":"m 26 0 q 22 8 22 0 q 26 17 22 17 q 95 24 72 17 q 129 51 118 31 q 147 113 140 71 l 261 756 q 267 799 267 789 q 247 841 267 831 q 172 851 226 851 q 168 860 168 851 q 172 868 168 868 l 229 867 q 308 864 279 864 q 396 867 346 864 l 450 868 q 453 860 453 868 q 450 851 453 851 q 381 843 404 851 q 347 815 358 835 q 328 753 336 794 l 214 113 q 210 69 210 86 q 229 27 210 38 q 304 17 249 17 q 307 8 307 17 q 304 0 307 0 q 249 1 269 0 l 164 3 l 85 1 q 26 0 64 0 m 176 999 q 172 1004 174 999 q 169 1017 169 1010 q 176 1035 169 1035 l 510 1035 q 517 1017 517 1035 q 510 999 517 999 l 176 999 z "},"Į":{"ha":418,"x_min":7,"x_max":453,"o":"m 450 868 q 453 860 453 868 q 450 851 453 851 q 381 843 404 851 q 347 815 358 835 q 328 753 336 794 l 214 113 q 210 69 210 86 q 229 27 210 38 q 304 17 249 17 q 307 8 307 17 q 304 0 307 0 q 251 1 271 0 l 174 3 q 68 -208 88 -93 q 64 -253 64 -232 q 82 -321 64 -297 q 133 -344 100 -344 q 174 -335 157 -344 q 211 -308 190 -326 l 214 -308 q 222 -312 218 -308 q 222 -319 226 -317 q 158 -367 186 -353 q 100 -382 131 -382 q 32 -356 57 -382 q 7 -283 7 -329 q 154 3 7 -161 l 79 1 q 26 0 60 0 q 22 8 22 0 q 26 17 22 17 q 95 24 72 17 q 129 51 118 31 q 147 113 140 71 l 261 756 q 267 799 267 789 q 247 841 267 831 q 172 851 226 851 q 168 860 168 851 q 172 868 168 868 l 229 867 q 308 864 279 864 q 396 867 346 864 l 450 868 z "},"Ĩ":{"ha":418,"x_min":22,"x_max":525,"o":"m 26 0 q 22 8 22 0 q 26 17 22 17 q 95 24 72 17 q 129 51 118 31 q 147 113 140 71 l 261 756 q 267 799 267 789 q 247 841 267 831 q 172 851 226 851 q 168 860 168 851 q 172 868 168 868 l 229 867 q 308 864 279 864 q 396 867 346 864 l 450 868 q 453 860 453 868 q 450 851 453 851 q 381 843 404 851 q 347 815 358 835 q 328 753 336 794 l 214 113 q 210 69 210 86 q 229 27 210 38 q 304 17 249 17 q 307 8 307 17 q 304 0 307 0 q 249 1 269 0 l 164 3 l 85 1 q 26 0 64 0 m 161 969 q 154 973 157 969 q 154 979 151 976 q 208 1034 176 1010 q 271 1058 239 1058 q 315 1052 290 1058 q 343 1044 339 1046 q 446 1025 404 1025 q 484 1035 469 1025 q 514 1063 499 1044 l 515 1063 q 523 1059 519 1063 q 524 1053 526 1056 q 464 989 488 1006 q 415 972 440 972 q 372 977 394 972 q 328 989 350 982 q 281 1001 306 996 q 232 1007 256 1007 q 198 999 210 1007 q 177 983 186 992 q 164 969 168 974 l 161 969 z "},"J":{"ha":376,"x_min":-37,"x_max":439,"o":"m -28 -268 q -34 -262 -31 -268 q -35 -253 -37 -256 q 65 -140 28 -215 q 124 56 101 -64 l 247 756 q 251 797 251 781 q 231 840 251 829 q 157 851 211 851 q 154 860 154 851 q 157 868 154 868 l 214 867 q 294 864 264 864 q 382 867 332 864 l 435 868 q 439 860 439 868 q 435 851 439 851 q 366 843 389 851 q 332 815 343 835 q 314 753 321 794 l 197 93 q 150 -83 176 -17 q 83 -192 124 -150 q -26 -268 42 -235 l -28 -268 z "},"Ĵ":{"ha":376,"x_min":-36,"x_max":443,"o":"m -28 -268 q -34 -262 -31 -268 q -35 -253 -37 -256 q 65 -140 28 -215 q 124 56 101 -64 l 247 756 q 251 797 251 781 q 231 840 251 829 q 157 851 211 851 q 154 860 154 851 q 157 868 154 868 l 214 867 q 294 864 264 864 q 382 867 332 864 l 435 868 q 439 860 439 868 q 435 851 439 851 q 366 843 389 851 q 332 815 343 835 q 314 753 321 794 l 197 93 q 150 -83 176 -17 q 83 -192 124 -150 q -26 -268 42 -235 l -28 -268 m 179 917 q 172 920 175 917 q 172 926 169 924 l 318 1054 q 331 1061 322 1061 q 343 1054 339 1061 l 443 926 l 443 925 q 440 917 443 921 q 433 917 436 914 l 318 1003 l 181 917 l 179 917 z "},"K":{"ha":815,"x_min":11,"x_max":850,"o":"m 846 868 q 850 860 850 868 q 846 851 850 851 q 742 830 797 851 q 633 756 688 808 l 365 521 l 506 276 q 617 97 578 151 q 683 30 657 43 q 750 17 708 17 q 754 8 754 17 q 750 0 754 0 l 635 0 q 580 6 592 0 q 519 103 568 13 q 465 201 471 193 l 310 472 l 258 429 l 203 113 q 194 54 194 63 q 211 24 194 32 q 275 17 228 17 q 278 8 278 17 q 275 0 278 0 q 224 1 242 0 l 150 3 l 69 1 q 15 0 50 0 q 11 8 11 0 q 15 17 11 17 q 84 24 61 17 q 119 51 107 31 q 138 113 131 71 l 251 756 q 256 799 256 781 q 236 841 256 831 q 164 851 217 851 q 161 860 161 851 q 164 868 161 868 l 219 867 q 299 864 269 864 q 382 867 329 864 l 439 868 q 442 860 442 868 q 439 851 442 851 q 370 843 393 851 q 336 815 347 835 q 317 753 325 794 l 264 458 l 607 764 q 660 832 660 814 q 644 847 660 843 q 594 851 628 851 q 592 860 592 851 q 594 868 592 868 l 643 867 q 726 864 688 864 q 804 867 763 864 l 846 868 z "},"Ḱ":{"ha":815,"x_min":11,"x_max":850,"o":"m 846 868 q 850 860 850 868 q 846 851 850 851 q 742 830 797 851 q 633 756 688 808 l 365 521 l 506 276 q 617 97 578 151 q 683 30 657 43 q 750 17 708 17 q 754 8 754 17 q 750 0 754 0 l 635 0 q 580 6 592 0 q 519 103 568 13 q 465 201 471 193 l 310 472 l 258 429 l 203 113 q 194 54 194 63 q 211 24 194 32 q 275 17 228 17 q 278 8 278 17 q 275 0 278 0 q 224 1 242 0 l 150 3 l 69 1 q 15 0 50 0 q 11 8 11 0 q 15 17 11 17 q 84 24 61 17 q 119 51 107 31 q 138 113 131 71 l 251 756 q 256 799 256 781 q 236 841 256 831 q 164 851 217 851 q 161 860 161 851 q 164 868 161 868 l 219 867 q 299 864 269 864 q 382 867 329 864 l 439 868 q 442 860 442 868 q 439 851 442 851 q 370 843 393 851 q 336 815 347 835 q 317 753 325 794 l 264 458 l 607 764 q 660 832 660 814 q 644 847 660 843 q 594 851 628 851 q 592 860 592 851 q 594 868 592 868 l 643 867 q 726 864 688 864 q 804 867 763 864 l 846 868 m 454 942 q 447 948 449 942 q 450 957 446 954 q 619 1047 514 986 l 689 1086 q 717 1081 694 1089 q 758 1062 740 1072 q 765 1050 775 1051 q 608 1003 679 1029 q 457 943 536 978 l 454 942 z "},"Ǩ":{"ha":815,"x_min":11,"x_max":850,"o":"m 846 868 q 850 860 850 868 q 846 851 850 851 q 742 830 797 851 q 633 756 688 808 l 365 521 l 506 276 q 617 97 578 151 q 683 30 657 43 q 750 17 708 17 q 754 8 754 17 q 750 0 754 0 l 635 0 q 580 6 592 0 q 519 103 568 13 q 465 201 471 193 l 310 472 l 258 429 l 203 113 q 194 54 194 63 q 211 24 194 32 q 275 17 228 17 q 278 8 278 17 q 275 0 278 0 q 224 1 242 0 l 150 3 l 69 1 q 15 0 50 0 q 11 8 11 0 q 15 17 11 17 q 84 24 61 17 q 119 51 107 31 q 138 113 131 71 l 251 756 q 256 799 256 781 q 236 841 256 831 q 164 851 217 851 q 161 860 161 851 q 164 868 161 868 l 219 867 q 299 864 269 864 q 382 867 329 864 l 439 868 q 442 860 442 868 q 439 851 442 851 q 370 843 393 851 q 336 815 347 835 q 317 753 325 794 l 264 458 l 607 764 q 660 832 660 814 q 644 847 660 843 q 594 851 628 851 q 592 860 592 851 q 594 868 592 868 l 643 867 q 726 864 688 864 q 804 867 763 864 l 846 868 m 424 1067 l 424 1068 q 428 1074 424 1071 q 433 1076 432 1078 l 547 990 l 685 1078 l 686 1078 q 694 1073 690 1078 q 693 1067 697 1068 l 549 938 q 535 932 543 932 q 522 938 528 932 l 424 1067 z "},"Ķ":{"ha":815,"x_min":11,"x_max":850,"o":"m 846 868 q 850 860 850 868 q 846 851 850 851 q 742 830 797 851 q 633 756 688 808 l 365 521 l 506 276 q 617 97 578 151 q 683 30 657 43 q 750 17 708 17 q 754 8 754 17 q 750 0 754 0 l 635 0 q 580 6 592 0 q 519 103 568 13 q 465 201 471 193 l 310 472 l 258 429 l 203 113 q 194 54 194 63 q 211 24 194 32 q 275 17 228 17 q 278 8 278 17 q 275 0 278 0 q 224 1 242 0 l 150 3 l 69 1 q 15 0 50 0 q 11 8 11 0 q 15 17 11 17 q 84 24 61 17 q 119 51 107 31 q 138 113 131 71 l 251 756 q 256 799 256 781 q 236 841 256 831 q 164 851 217 851 q 161 860 161 851 q 164 868 161 868 l 219 867 q 299 864 269 864 q 382 867 329 864 l 439 868 q 442 860 442 868 q 439 851 442 851 q 370 843 393 851 q 336 815 347 835 q 317 753 325 794 l 264 458 l 607 764 q 660 832 660 814 q 644 847 660 843 q 594 851 628 851 q 592 860 592 851 q 594 868 592 868 l 643 867 q 726 864 688 864 q 804 867 763 864 l 846 868 m 375 -125 q 427 -147 407 -125 q 447 -210 447 -169 q 343 -382 447 -303 l 340 -383 q 332 -377 335 -383 q 333 -368 329 -371 q 406 -258 397 -321 q 407 -236 407 -250 q 403 -207 407 -219 q 365 -222 392 -222 q 328 -209 342 -222 q 315 -174 315 -196 q 331 -137 315 -150 q 375 -125 347 -125 z "},"L":{"ha":686,"x_min":13,"x_max":658,"o":"m 17 0 q 13 8 13 0 q 17 17 13 17 q 85 24 63 17 q 119 51 108 31 q 138 113 131 71 l 251 756 q 256 799 256 781 q 236 841 256 831 q 164 851 217 851 q 161 860 161 851 q 164 868 161 868 l 219 867 q 299 864 269 864 q 382 867 329 864 l 439 868 q 442 860 442 868 q 439 851 442 851 q 370 844 393 851 q 336 816 347 836 q 317 754 325 796 l 204 118 q 200 76 200 93 q 219 35 200 46 q 290 25 238 25 l 457 25 q 572 72 528 25 q 640 204 615 119 q 646 207 640 207 q 654 205 650 207 q 657 201 658 203 q 614 21 631 117 q 606 5 611 10 q 592 0 601 0 l 17 0 z "},"Ĺ":{"ha":686,"x_min":13,"x_max":657,"o":"m 17 0 q 13 8 13 0 q 17 17 13 17 q 85 24 63 17 q 119 51 108 31 q 138 113 131 71 l 251 756 q 256 799 256 781 q 236 841 256 831 q 164 851 217 851 q 161 860 161 851 q 164 868 161 868 l 219 867 q 299 864 269 864 q 382 867 329 864 l 439 868 q 442 860 442 868 q 439 851 442 851 q 370 844 393 851 q 336 816 347 836 q 317 754 325 796 l 204 118 q 200 76 200 93 q 219 35 200 46 q 290 25 238 25 l 457 25 q 572 72 528 25 q 640 204 615 119 q 646 207 640 207 q 654 205 650 207 q 657 201 658 203 q 614 21 631 117 q 606 5 611 10 q 592 0 601 0 l 17 0 m 228 942 q 221 948 222 942 q 224 957 219 954 q 393 1047 288 986 l 463 1086 q 491 1081 468 1089 q 531 1062 514 1072 q 539 1050 549 1051 q 381 1003 453 1029 q 231 943 310 978 l 228 942 z "},"Ľ":{"ha":686,"x_min":13,"x_max":663,"o":"m 17 0 q 13 8 13 0 q 17 17 13 17 q 85 24 63 17 q 119 51 108 31 q 138 113 131 71 l 251 756 q 256 799 256 781 q 236 841 256 831 q 164 851 217 851 q 161 860 161 851 q 164 868 161 868 l 219 867 q 299 864 269 864 q 382 867 329 864 l 439 868 q 442 860 442 868 q 439 851 442 851 q 370 844 393 851 q 336 816 347 836 q 317 754 325 796 l 204 118 q 200 76 200 93 q 219 35 200 46 q 290 25 238 25 l 457 25 q 572 72 528 25 q 640 204 615 119 q 646 207 640 207 q 654 205 650 207 q 657 201 658 203 q 614 21 631 117 q 606 5 611 10 q 592 0 601 0 l 17 0 m 608 868 q 624 867 610 875 q 651 847 638 860 q 663 829 664 835 l 567 490 q 558 488 565 488 q 551 490 551 488 l 608 868 z "},"Ļ":{"ha":686,"x_min":13,"x_max":657,"o":"m 17 0 q 13 8 13 0 q 17 17 13 17 q 85 24 63 17 q 119 51 108 31 q 138 113 131 71 l 251 756 q 256 799 256 781 q 236 841 256 831 q 164 851 217 851 q 161 860 161 851 q 164 868 161 868 l 219 867 q 299 864 269 864 q 382 867 329 864 l 439 868 q 442 860 442 868 q 439 851 442 851 q 370 844 393 851 q 336 816 347 836 q 317 754 325 796 l 204 118 q 200 76 200 93 q 219 35 200 46 q 290 25 238 25 l 457 25 q 572 72 528 25 q 640 204 615 119 q 646 207 640 207 q 654 205 650 207 q 657 201 658 203 q 614 21 631 117 q 606 5 611 10 q 592 0 601 0 l 17 0 m 315 -125 q 367 -147 347 -125 q 388 -210 388 -169 q 283 -382 388 -303 l 281 -383 q 272 -377 275 -383 q 274 -368 269 -371 q 346 -258 338 -321 q 347 -236 347 -250 q 343 -207 347 -219 q 306 -222 332 -222 q 269 -209 282 -222 q 256 -174 256 -196 q 272 -137 256 -150 q 315 -125 288 -125 z "},"Ŀ":{"ha":686,"x_min":13,"x_max":657,"o":"m 17 0 q 13 8 13 0 q 17 17 13 17 q 85 24 63 17 q 119 51 108 31 q 138 113 131 71 l 251 756 q 256 799 256 781 q 236 841 256 831 q 164 851 217 851 q 161 860 161 851 q 164 868 161 868 l 219 867 q 299 864 269 864 q 382 867 329 864 l 439 868 q 442 860 442 868 q 439 851 442 851 q 370 844 393 851 q 336 816 347 836 q 317 754 325 796 l 204 118 q 200 76 200 93 q 219 35 200 46 q 290 25 238 25 l 457 25 q 572 72 528 25 q 640 204 615 119 q 646 207 640 207 q 654 205 650 207 q 657 201 658 203 q 614 21 631 117 q 606 5 611 10 q 592 0 601 0 l 17 0 m 585 399 q 545 413 560 399 q 531 453 531 428 q 545 490 531 476 q 585 504 560 504 q 625 490 611 504 q 639 453 639 476 q 625 413 639 428 q 585 399 611 399 z "},"Ḷ":{"ha":686,"x_min":13,"x_max":657,"o":"m 17 0 q 13 8 13 0 q 17 17 13 17 q 85 24 63 17 q 119 51 108 31 q 138 113 131 71 l 251 756 q 256 799 256 781 q 236 841 256 831 q 164 851 217 851 q 161 860 161 851 q 164 868 161 868 l 219 867 q 299 864 269 864 q 382 867 329 864 l 439 868 q 442 860 442 868 q 439 851 442 851 q 370 844 393 851 q 336 816 347 836 q 317 754 325 796 l 204 118 q 200 76 200 93 q 219 35 200 46 q 290 25 238 25 l 457 25 q 572 72 528 25 q 640 204 615 119 q 646 207 640 207 q 654 205 650 207 q 657 201 658 203 q 614 21 631 117 q 606 5 611 10 q 592 0 601 0 l 17 0 m 315 -257 q 274 -243 289 -257 q 260 -203 260 -229 q 274 -165 260 -179 q 315 -151 289 -151 q 356 -165 342 -151 q 369 -203 369 -179 q 356 -243 369 -229 q 315 -257 342 -257 z "},"Ḹ":{"ha":686,"x_min":13,"x_max":657,"o":"m 17 0 q 13 8 13 0 q 17 17 13 17 q 85 24 63 17 q 119 51 108 31 q 138 113 131 71 l 251 756 q 256 799 256 781 q 236 841 256 831 q 164 851 217 851 q 161 860 161 851 q 164 868 161 868 l 219 867 q 299 864 269 864 q 382 867 329 864 l 439 868 q 442 860 442 868 q 439 851 442 851 q 370 844 393 851 q 336 816 347 836 q 317 754 325 796 l 204 118 q 200 76 200 93 q 219 35 200 46 q 290 25 238 25 l 457 25 q 572 72 528 25 q 640 204 615 119 q 646 207 640 207 q 654 205 650 207 q 657 201 658 203 q 614 21 631 117 q 606 5 611 10 q 592 0 601 0 l 17 0 m 315 -257 q 274 -243 289 -257 q 260 -203 260 -229 q 274 -165 260 -179 q 315 -151 289 -151 q 356 -165 342 -151 q 369 -203 369 -179 q 356 -243 369 -229 q 315 -257 342 -257 m 125 990 q 118 1008 118 990 q 125 1025 118 1025 l 474 1025 q 478 1019 476 1025 q 481 1008 481 1014 q 474 990 481 990 l 125 990 z "},"Ḻ":{"ha":686,"x_min":13,"x_max":657,"o":"m 17 0 q 13 8 13 0 q 17 17 13 17 q 85 24 63 17 q 119 51 108 31 q 138 113 131 71 l 251 756 q 256 799 256 781 q 236 841 256 831 q 164 851 217 851 q 161 860 161 851 q 164 868 161 868 l 219 867 q 299 864 269 864 q 382 867 329 864 l 439 868 q 442 860 442 868 q 439 851 442 851 q 370 844 393 851 q 336 816 347 836 q 317 754 325 796 l 204 118 q 200 76 200 93 q 219 35 200 46 q 290 25 238 25 l 457 25 q 572 72 528 25 q 640 204 615 119 q 646 207 640 207 q 654 205 650 207 q 657 201 658 203 q 614 21 631 117 q 606 5 611 10 q 592 0 601 0 l 17 0 m 169 -161 q 163 -143 163 -161 q 169 -125 163 -125 l 503 -125 q 508 -131 506 -125 q 510 -143 510 -136 q 503 -161 510 -161 l 169 -161 z "},"Ł":{"ha":686,"x_min":13,"x_max":658,"o":"m 640 204 q 646 207 640 207 q 654 205 650 207 q 657 201 658 203 q 614 21 631 117 q 606 5 611 10 q 592 0 601 0 l 17 0 q 13 8 13 0 q 17 17 13 17 q 85 24 63 17 q 119 51 108 31 q 138 113 131 71 l 185 381 l 103 333 l 101 333 q 90 344 96 333 q 89 356 85 354 l 190 414 l 251 756 q 256 799 256 781 q 236 841 256 831 q 164 851 217 851 q 161 860 161 851 q 164 868 161 868 l 219 867 q 299 864 269 864 q 382 867 329 864 l 439 868 q 442 860 442 868 q 439 851 442 851 q 370 844 393 851 q 336 816 347 836 q 317 754 325 796 l 264 457 l 393 531 l 394 531 q 406 520 400 531 q 406 508 411 510 l 258 424 l 204 118 q 200 76 200 93 q 219 35 200 46 q 290 25 238 25 l 457 25 q 572 72 528 25 q 640 204 615 119 z "},"M":{"ha":1014,"x_min":22,"x_max":1064,"o":"m 1061 868 q 1064 860 1064 868 q 1061 851 1064 851 q 969 833 999 851 q 931 758 939 814 l 835 113 q 831 72 831 88 q 850 28 831 39 q 924 17 869 17 q 928 8 928 17 q 924 0 928 0 q 869 1 890 0 l 786 3 l 706 1 q 649 0 685 0 q 644 8 644 0 q 649 17 644 17 q 719 24 696 17 q 753 51 742 31 q 769 113 764 71 l 868 772 l 457 10 q 447 4 454 4 q 438 11 440 4 l 281 753 l 278 764 l 167 144 q 161 88 161 115 q 177 33 161 49 q 232 17 193 17 q 236 8 236 17 q 232 0 236 0 q 190 1 206 0 l 131 3 l 74 1 q 26 0 57 0 q 22 8 22 0 q 26 17 22 17 q 102 45 76 17 q 142 144 128 74 l 263 804 q 176 851 235 851 q 174 860 174 851 q 176 868 174 868 l 218 867 q 250 865 231 865 q 279 867 268 865 q 297 868 290 868 q 321 854 313 868 q 339 796 329 840 l 486 113 l 875 833 q 897 858 885 849 q 918 868 908 868 q 938 867 925 868 q 969 865 951 865 l 1024 867 q 1061 868 1036 868 z "},"Ṁ":{"ha":1014,"x_min":22,"x_max":1064,"o":"m 1061 868 q 1064 860 1064 868 q 1061 851 1064 851 q 969 833 999 851 q 931 758 939 814 l 835 113 q 831 72 831 88 q 850 28 831 39 q 924 17 869 17 q 928 8 928 17 q 924 0 928 0 q 869 1 890 0 l 786 3 l 706 1 q 649 0 685 0 q 644 8 644 0 q 649 17 644 17 q 719 24 696 17 q 753 51 742 31 q 769 113 764 71 l 868 772 l 457 10 q 447 4 454 4 q 438 11 440 4 l 281 753 l 278 764 l 167 144 q 161 88 161 115 q 177 33 161 49 q 232 17 193 17 q 236 8 236 17 q 232 0 236 0 q 190 1 206 0 l 131 3 l 74 1 q 26 0 57 0 q 22 8 22 0 q 26 17 22 17 q 102 45 76 17 q 142 144 128 74 l 263 804 q 176 851 235 851 q 174 860 174 851 q 176 868 174 868 l 218 867 q 250 865 231 865 q 279 867 268 865 q 297 868 290 868 q 321 854 313 868 q 339 796 329 840 l 486 113 l 875 833 q 897 858 885 849 q 918 868 908 868 q 938 867 925 868 q 969 865 951 865 l 1024 867 q 1061 868 1036 868 m 617 983 q 576 997 592 983 q 561 1036 561 1011 q 576 1075 561 1061 q 617 1089 592 1089 q 657 1075 643 1089 q 671 1036 671 1061 q 657 997 671 1011 q 617 983 643 983 z "},"Ṃ":{"ha":1014,"x_min":22,"x_max":1064,"o":"m 1061 868 q 1064 860 1064 868 q 1061 851 1064 851 q 969 833 999 851 q 931 758 939 814 l 835 113 q 831 72 831 88 q 850 28 831 39 q 924 17 869 17 q 928 8 928 17 q 924 0 928 0 q 869 1 890 0 l 786 3 l 706 1 q 649 0 685 0 q 644 8 644 0 q 649 17 644 17 q 719 24 696 17 q 753 51 742 31 q 769 113 764 71 l 868 772 l 457 10 q 447 4 454 4 q 438 11 440 4 l 281 753 l 278 764 l 167 144 q 161 88 161 115 q 177 33 161 49 q 232 17 193 17 q 236 8 236 17 q 232 0 236 0 q 190 1 206 0 l 131 3 l 74 1 q 26 0 57 0 q 22 8 22 0 q 26 17 22 17 q 102 45 76 17 q 142 144 128 74 l 263 804 q 176 851 235 851 q 174 860 174 851 q 176 868 174 868 l 218 867 q 250 865 231 865 q 279 867 268 865 q 297 868 290 868 q 321 854 313 868 q 339 796 329 840 l 486 113 l 875 833 q 897 858 885 849 q 918 868 908 868 q 938 867 925 868 q 969 865 951 865 l 1024 867 q 1061 868 1036 868 m 432 -257 q 391 -243 406 -257 q 376 -203 376 -229 q 391 -165 376 -179 q 432 -151 406 -151 q 472 -165 458 -151 q 486 -203 486 -179 q 472 -243 486 -229 q 432 -257 458 -257 z "},"N":{"ha":903,"x_min":18,"x_max":949,"o":"m 946 868 q 949 860 949 868 q 946 851 949 851 q 869 822 896 851 q 831 722 842 793 l 700 -15 q 692 -20 699 -19 q 683 -15 686 -21 l 288 754 l 272 782 l 163 144 q 157 86 157 113 q 174 33 157 49 q 228 17 190 17 q 231 8 231 17 q 228 0 231 0 q 186 1 200 0 l 125 3 l 68 1 q 21 0 51 0 q 18 8 18 0 q 21 17 18 17 q 98 46 71 17 q 136 144 125 75 l 253 808 q 172 851 218 851 q 168 860 168 851 q 172 868 168 868 l 217 867 q 256 865 231 865 q 288 867 275 865 q 308 868 301 868 q 321 863 317 868 q 331 842 325 857 q 337 824 332 838 q 349 796 342 810 l 697 111 l 804 722 q 810 781 810 754 q 793 835 810 819 q 739 851 776 851 q 736 860 736 851 q 739 868 736 868 l 781 867 q 842 864 817 864 q 899 867 863 864 l 946 868 z "},"Ń":{"ha":903,"x_min":18,"x_max":949,"o":"m 946 868 q 949 860 949 868 q 946 851 949 851 q 869 822 896 851 q 831 722 842 793 l 700 -15 q 692 -20 699 -19 q 683 -15 686 -21 l 288 754 l 272 782 l 163 144 q 157 86 157 113 q 174 33 157 49 q 228 17 190 17 q 231 8 231 17 q 228 0 231 0 q 186 1 200 0 l 125 3 l 68 1 q 21 0 51 0 q 18 8 18 0 q 21 17 18 17 q 98 46 71 17 q 136 144 125 75 l 253 808 q 172 851 218 851 q 168 860 168 851 q 172 868 168 868 l 217 867 q 256 865 231 865 q 288 867 275 865 q 308 868 301 868 q 321 863 317 868 q 331 842 325 857 q 337 824 332 838 q 349 796 342 810 l 697 111 l 804 722 q 810 781 810 754 q 793 835 810 819 q 739 851 776 851 q 736 860 736 851 q 739 868 736 868 l 781 867 q 842 864 817 864 q 899 867 863 864 l 946 868 m 468 942 q 461 948 463 942 q 464 957 460 954 q 633 1047 528 986 l 703 1086 q 731 1081 708 1089 q 772 1062 754 1072 q 779 1050 789 1051 q 622 1003 693 1029 q 471 943 550 978 l 468 942 z "},"Ň":{"ha":903,"x_min":18,"x_max":949,"o":"m 946 868 q 949 860 949 868 q 946 851 949 851 q 869 822 896 851 q 831 722 842 793 l 700 -15 q 692 -20 699 -19 q 683 -15 686 -21 l 288 754 l 272 782 l 163 144 q 157 86 157 113 q 174 33 157 49 q 228 17 190 17 q 231 8 231 17 q 228 0 231 0 q 186 1 200 0 l 125 3 l 68 1 q 21 0 51 0 q 18 8 18 0 q 21 17 18 17 q 98 46 71 17 q 136 144 125 75 l 253 808 q 172 851 218 851 q 168 860 168 851 q 172 868 168 868 l 217 867 q 256 865 231 865 q 288 867 275 865 q 308 868 301 868 q 321 863 317 868 q 331 842 325 857 q 337 824 332 838 q 349 796 342 810 l 697 111 l 804 722 q 810 781 810 754 q 793 835 810 819 q 739 851 776 851 q 736 860 736 851 q 739 868 736 868 l 781 867 q 842 864 817 864 q 899 867 863 864 l 946 868 m 438 1067 l 438 1068 q 442 1074 438 1071 q 447 1076 446 1078 l 561 990 l 699 1078 l 700 1078 q 708 1073 704 1078 q 707 1067 711 1068 l 563 938 q 549 932 557 932 q 536 938 542 932 l 438 1067 z "},"Ņ":{"ha":903,"x_min":18,"x_max":949,"o":"m 946 868 q 949 860 949 868 q 946 851 949 851 q 869 822 896 851 q 831 722 842 793 l 700 -15 q 692 -20 699 -19 q 683 -15 686 -21 l 288 754 l 272 782 l 163 144 q 157 86 157 113 q 174 33 157 49 q 228 17 190 17 q 231 8 231 17 q 228 0 231 0 q 186 1 200 0 l 125 3 l 68 1 q 21 0 51 0 q 18 8 18 0 q 21 17 18 17 q 98 46 71 17 q 136 144 125 75 l 253 808 q 172 851 218 851 q 168 860 168 851 q 172 868 168 868 l 217 867 q 256 865 231 865 q 288 867 275 865 q 308 868 301 868 q 321 863 317 868 q 331 842 325 857 q 337 824 332 838 q 349 796 342 810 l 697 111 l 804 722 q 810 781 810 754 q 793 835 810 819 q 739 851 776 851 q 736 860 736 851 q 739 868 736 868 l 781 867 q 842 864 817 864 q 899 867 863 864 l 946 868 m 401 -125 q 453 -147 433 -125 q 474 -210 474 -169 q 369 -382 474 -303 l 367 -383 q 358 -377 361 -383 q 360 -368 356 -371 q 432 -258 424 -321 q 433 -236 433 -250 q 429 -207 433 -219 q 392 -222 418 -222 q 355 -209 368 -222 q 342 -174 342 -196 q 358 -137 342 -150 q 401 -125 374 -125 z "},"Ṅ":{"ha":903,"x_min":18,"x_max":949,"o":"m 946 868 q 949 860 949 868 q 946 851 949 851 q 869 822 896 851 q 831 722 842 793 l 700 -15 q 692 -20 699 -19 q 683 -15 686 -21 l 288 754 l 272 782 l 163 144 q 157 86 157 113 q 174 33 157 49 q 228 17 190 17 q 231 8 231 17 q 228 0 231 0 q 186 1 200 0 l 125 3 l 68 1 q 21 0 51 0 q 18 8 18 0 q 21 17 18 17 q 98 46 71 17 q 136 144 125 75 l 253 808 q 172 851 218 851 q 168 860 168 851 q 172 868 168 868 l 217 867 q 256 865 231 865 q 288 867 275 865 q 308 868 301 868 q 321 863 317 868 q 331 842 325 857 q 337 824 332 838 q 349 796 342 810 l 697 111 l 804 722 q 810 781 810 754 q 793 835 810 819 q 739 851 776 851 q 736 860 736 851 q 739 868 736 868 l 781 867 q 842 864 817 864 q 899 867 863 864 l 946 868 m 561 983 q 521 997 536 983 q 506 1036 506 1011 q 521 1075 506 1061 q 561 1089 536 1089 q 601 1075 588 1089 q 615 1036 615 1061 q 601 997 615 1011 q 561 983 588 983 z "},"Ṇ":{"ha":903,"x_min":18,"x_max":949,"o":"m 946 868 q 949 860 949 868 q 946 851 949 851 q 869 822 896 851 q 831 722 842 793 l 700 -15 q 692 -20 699 -19 q 683 -15 686 -21 l 288 754 l 272 782 l 163 144 q 157 86 157 113 q 174 33 157 49 q 228 17 190 17 q 231 8 231 17 q 228 0 231 0 q 186 1 200 0 l 125 3 l 68 1 q 21 0 51 0 q 18 8 18 0 q 21 17 18 17 q 98 46 71 17 q 136 144 125 75 l 253 808 q 172 851 218 851 q 168 860 168 851 q 172 868 168 868 l 217 867 q 256 865 231 865 q 288 867 275 865 q 308 868 301 868 q 321 863 317 868 q 331 842 325 857 q 337 824 332 838 q 349 796 342 810 l 697 111 l 804 722 q 810 781 810 754 q 793 835 810 819 q 739 851 776 851 q 736 860 736 851 q 739 868 736 868 l 781 867 q 842 864 817 864 q 899 867 863 864 l 946 868 m 401 -257 q 360 -243 375 -257 q 346 -203 346 -229 q 360 -165 346 -179 q 401 -151 375 -151 q 442 -165 428 -151 q 456 -203 456 -179 q 442 -243 456 -229 q 401 -257 428 -257 z "},"Ŋ":{"ha":903,"x_min":18,"x_max":949,"o":"m 946 868 q 949 860 949 868 q 946 851 949 851 q 869 822 896 851 q 831 722 842 793 l 700 -15 q 628 -201 678 -137 q 506 -265 578 -265 q 435 -243 461 -265 q 408 -192 408 -221 q 410 -181 408 -185 q 424 -153 413 -162 q 453 -144 436 -144 q 481 -156 474 -144 q 493 -192 489 -168 q 505 -228 497 -215 q 536 -240 513 -240 q 620 -181 583 -240 q 678 -6 657 -121 l 288 754 l 272 782 l 163 144 q 157 86 157 113 q 174 33 157 49 q 228 17 190 17 q 231 8 231 17 q 228 0 231 0 q 186 1 200 0 l 125 3 l 68 1 q 21 0 51 0 q 18 8 18 0 q 21 17 18 17 q 98 46 71 17 q 136 144 125 75 l 253 808 q 172 851 218 851 q 168 860 168 851 q 172 868 168 868 l 217 867 q 256 865 231 865 q 288 867 275 865 q 308 868 301 868 q 321 863 317 868 q 331 842 325 857 q 337 824 332 838 q 349 796 342 810 l 697 111 l 804 722 q 810 781 810 754 q 793 835 810 819 q 739 851 776 851 q 736 860 736 851 q 739 868 736 868 l 781 867 q 842 864 817 864 q 899 867 863 864 l 946 868 z "},"Ṉ":{"ha":903,"x_min":18,"x_max":949,"o":"m 946 868 q 949 860 949 868 q 946 851 949 851 q 869 822 896 851 q 831 722 842 793 l 700 -15 q 692 -20 699 -19 q 683 -15 686 -21 l 288 754 l 272 782 l 163 144 q 157 86 157 113 q 174 33 157 49 q 228 17 190 17 q 231 8 231 17 q 228 0 231 0 q 186 1 200 0 l 125 3 l 68 1 q 21 0 51 0 q 18 8 18 0 q 21 17 18 17 q 98 46 71 17 q 136 144 125 75 l 253 808 q 172 851 218 851 q 168 860 168 851 q 172 868 168 868 l 217 867 q 256 865 231 865 q 288 867 275 865 q 308 868 301 868 q 321 863 317 868 q 331 842 325 857 q 337 824 332 838 q 349 796 342 810 l 697 111 l 804 722 q 810 781 810 754 q 793 835 810 819 q 739 851 776 851 q 736 860 736 851 q 739 868 736 868 l 781 867 q 842 864 817 864 q 899 867 863 864 l 946 868 m 256 -161 q 249 -143 249 -161 q 256 -125 249 -125 l 589 -125 q 594 -131 592 -125 q 596 -143 596 -136 q 589 -161 596 -161 l 256 -161 z "},"Ñ":{"ha":903,"x_min":18,"x_max":949,"o":"m 946 868 q 949 860 949 868 q 946 851 949 851 q 869 822 896 851 q 831 722 842 793 l 700 -15 q 692 -20 699 -19 q 683 -15 686 -21 l 288 754 l 272 782 l 163 144 q 157 86 157 113 q 174 33 157 49 q 228 17 190 17 q 231 8 231 17 q 228 0 231 0 q 186 1 200 0 l 125 3 l 68 1 q 21 0 51 0 q 18 8 18 0 q 21 17 18 17 q 98 46 71 17 q 136 144 125 75 l 253 808 q 172 851 218 851 q 168 860 168 851 q 172 868 168 868 l 217 867 q 256 865 231 865 q 288 867 275 865 q 308 868 301 868 q 321 863 317 868 q 331 842 325 857 q 337 824 332 838 q 349 796 342 810 l 697 111 l 804 722 q 810 781 810 754 q 793 835 810 819 q 739 851 776 851 q 736 860 736 851 q 739 868 736 868 l 781 867 q 842 864 817 864 q 899 867 863 864 l 946 868 m 396 968 q 388 972 392 968 q 388 978 385 975 q 441 1033 410 1008 q 504 1058 472 1058 q 576 1043 528 1058 q 679 1024 638 1024 q 717 1033 703 1024 q 747 1061 732 1043 l 750 1061 q 757 1058 754 1061 q 757 1051 760 1054 q 697 988 721 1004 q 649 972 674 972 q 606 977 628 972 q 561 989 583 982 q 465 1006 503 1006 q 431 998 443 1006 q 410 981 419 990 q 397 968 401 972 l 396 968 z "},"O":{"ha":903,"x_min":90,"x_max":879,"o":"m 396 -17 q 232 28 301 -17 q 126 153 163 74 q 90 333 90 233 q 99 435 90 383 q 190 666 121 564 q 359 826 260 768 q 568 883 458 883 q 737 838 667 883 q 843 715 807 793 q 879 536 879 636 q 869 435 879 496 q 775 202 846 306 q 604 41 704 99 q 396 -17 504 -17 m 454 19 q 669 108 579 19 q 793 361 758 196 q 808 499 808 435 q 772 681 808 601 q 669 806 736 761 q 511 850 601 850 q 293 758 382 850 q 174 508 204 667 q 161 381 161 442 q 195 196 161 278 q 296 67 229 114 q 454 19 363 19 z "},"Ó":{"ha":903,"x_min":90,"x_max":879,"o":"m 396 -17 q 232 28 301 -17 q 126 153 163 74 q 90 333 90 233 q 99 435 90 383 q 190 666 121 564 q 359 826 260 768 q 568 883 458 883 q 737 838 667 883 q 843 715 807 793 q 879 536 879 636 q 869 435 879 496 q 775 202 846 306 q 604 41 704 99 q 396 -17 504 -17 m 454 19 q 669 108 579 19 q 793 361 758 196 q 808 499 808 435 q 772 681 808 601 q 669 806 736 761 q 511 850 601 850 q 293 758 382 850 q 174 508 204 667 q 161 381 161 442 q 195 196 161 278 q 296 67 229 114 q 454 19 363 19 m 482 942 q 475 948 476 942 q 478 957 474 954 q 647 1047 542 986 l 717 1086 q 745 1081 722 1089 q 785 1062 768 1072 q 793 1050 803 1051 q 635 1003 707 1029 q 485 943 564 978 l 482 942 z "},"Ŏ":{"ha":903,"x_min":90,"x_max":879,"o":"m 396 -17 q 232 28 301 -17 q 126 153 163 74 q 90 333 90 233 q 99 435 90 383 q 190 666 121 564 q 359 826 260 768 q 568 883 458 883 q 737 838 667 883 q 843 715 807 793 q 879 536 879 636 q 869 435 879 496 q 775 202 846 306 q 604 41 704 99 q 396 -17 504 -17 m 454 19 q 669 108 579 19 q 793 361 758 196 q 808 499 808 435 q 772 681 808 601 q 669 806 736 761 q 511 850 601 850 q 293 758 382 850 q 174 508 204 667 q 161 381 161 442 q 195 196 161 278 q 296 67 229 114 q 454 19 363 19 m 575 925 q 485 960 515 925 q 456 1042 456 996 q 472 1057 456 1050 q 503 1064 489 1064 q 514 1060 514 1064 q 540 991 517 1017 q 603 965 563 965 q 658 986 635 965 q 704 1054 682 1007 q 713 1058 707 1058 q 723 1056 718 1058 q 726 1050 728 1053 q 662 956 697 988 q 575 925 626 925 z "},"Ǒ":{"ha":903,"x_min":90,"x_max":879,"o":"m 396 -17 q 232 28 301 -17 q 126 153 163 74 q 90 333 90 233 q 99 435 90 383 q 190 666 121 564 q 359 826 260 768 q 568 883 458 883 q 737 838 667 883 q 843 715 807 793 q 879 536 879 636 q 869 435 879 496 q 775 202 846 306 q 604 41 704 99 q 396 -17 504 -17 m 454 19 q 669 108 579 19 q 793 361 758 196 q 808 499 808 435 q 772 681 808 601 q 669 806 736 761 q 511 850 601 850 q 293 758 382 850 q 174 508 204 667 q 161 381 161 442 q 195 196 161 278 q 296 67 229 114 q 454 19 363 19 m 451 1067 l 451 1068 q 456 1074 451 1071 q 461 1076 460 1078 l 575 990 l 713 1078 l 714 1078 q 722 1073 718 1078 q 721 1067 725 1068 l 576 938 q 563 932 571 932 q 550 938 556 932 l 451 1067 z "},"Ô":{"ha":903,"x_min":90,"x_max":879,"o":"m 396 -17 q 232 28 301 -17 q 126 153 163 74 q 90 333 90 233 q 99 435 90 383 q 190 666 121 564 q 359 826 260 768 q 568 883 458 883 q 737 838 667 883 q 843 715 807 793 q 879 536 879 636 q 869 435 879 496 q 775 202 846 306 q 604 41 704 99 q 396 -17 504 -17 m 454 19 q 669 108 579 19 q 793 361 758 196 q 808 499 808 435 q 772 681 808 601 q 669 806 736 761 q 511 850 601 850 q 293 758 382 850 q 174 508 204 667 q 161 381 161 442 q 195 196 161 278 q 296 67 229 114 q 454 19 363 19 m 439 917 q 432 920 435 917 q 432 926 429 924 l 578 1054 q 590 1061 582 1061 q 603 1054 599 1061 l 703 926 l 703 925 q 699 917 703 921 q 693 917 696 914 l 578 1003 l 440 917 l 439 917 z "},"Ố":{"ha":903,"x_min":90,"x_max":879,"o":"m 396 -17 q 232 28 301 -17 q 126 153 163 74 q 90 333 90 233 q 99 435 90 383 q 190 666 121 564 q 359 826 260 768 q 568 883 458 883 q 737 838 667 883 q 843 715 807 793 q 879 536 879 636 q 869 435 879 496 q 775 202 846 306 q 604 41 704 99 q 396 -17 504 -17 m 454 19 q 669 108 579 19 q 793 361 758 196 q 808 499 808 435 q 772 681 808 601 q 669 806 736 761 q 511 850 601 850 q 293 758 382 850 q 174 508 204 667 q 161 381 161 442 q 195 196 161 278 q 296 67 229 114 q 454 19 363 19 m 439 917 q 432 920 435 917 q 432 926 429 924 l 578 1054 q 590 1061 582 1061 q 603 1054 599 1061 l 703 926 l 703 925 q 699 917 703 921 q 693 917 696 914 l 578 1003 l 440 917 l 439 917 m 669 996 q 665 994 668 994 q 660 999 661 994 q 661 1007 658 1004 q 797 1139 729 1064 q 823 1135 801 1143 q 860 1115 844 1126 q 867 1103 876 1104 q 768 1057 813 1082 q 669 996 724 1032 z "},"Ộ":{"ha":903,"x_min":90,"x_max":879,"o":"m 396 -17 q 232 28 301 -17 q 126 153 163 74 q 90 333 90 233 q 99 435 90 383 q 190 666 121 564 q 359 826 260 768 q 568 883 458 883 q 737 838 667 883 q 843 715 807 793 q 879 536 879 636 q 869 435 879 496 q 775 202 846 306 q 604 41 704 99 q 396 -17 504 -17 m 454 19 q 669 108 579 19 q 793 361 758 196 q 808 499 808 435 q 772 681 808 601 q 669 806 736 761 q 511 850 601 850 q 293 758 382 850 q 174 508 204 667 q 161 381 161 442 q 195 196 161 278 q 296 67 229 114 q 454 19 363 19 m 400 -257 q 359 -243 374 -257 q 344 -203 344 -229 q 359 -165 344 -179 q 400 -151 374 -151 q 440 -165 426 -151 q 454 -203 454 -179 q 440 -243 454 -229 q 400 -257 426 -257 m 439 917 q 432 920 435 917 q 432 926 429 924 l 578 1054 q 590 1061 582 1061 q 603 1054 599 1061 l 703 926 l 703 925 q 699 917 703 921 q 693 917 696 914 l 578 1003 l 440 917 l 439 917 z "},"Ồ":{"ha":903,"x_min":90,"x_max":879,"o":"m 396 -17 q 232 28 301 -17 q 126 153 163 74 q 90 333 90 233 q 99 435 90 383 q 190 666 121 564 q 359 826 260 768 q 568 883 458 883 q 737 838 667 883 q 843 715 807 793 q 879 536 879 636 q 869 435 879 496 q 775 202 846 306 q 604 41 704 99 q 396 -17 504 -17 m 454 19 q 669 108 579 19 q 793 361 758 196 q 808 499 808 435 q 772 681 808 601 q 669 806 736 761 q 511 850 601 850 q 293 758 382 850 q 174 508 204 667 q 161 381 161 442 q 195 196 161 278 q 296 67 229 114 q 454 19 363 19 m 436 917 q 429 920 432 917 q 429 926 426 924 l 575 1054 q 588 1061 579 1061 q 600 1054 596 1061 l 700 926 l 700 925 q 697 917 700 921 q 690 917 693 914 l 575 1003 l 438 917 l 436 917 m 772 976 q 613 1083 694 1044 q 623 1096 603 1085 q 668 1115 643 1107 q 696 1119 693 1124 q 785 989 732 1053 q 786 985 786 988 q 782 978 786 981 q 772 976 778 975 z "},"Ổ":{"ha":903,"x_min":90,"x_max":879,"o":"m 396 -17 q 232 28 301 -17 q 126 153 163 74 q 90 333 90 233 q 99 435 90 383 q 190 666 121 564 q 359 826 260 768 q 568 883 458 883 q 737 838 667 883 q 843 715 807 793 q 879 536 879 636 q 869 435 879 496 q 775 202 846 306 q 604 41 704 99 q 396 -17 504 -17 m 454 19 q 669 108 579 19 q 793 361 758 196 q 808 499 808 435 q 772 681 808 601 q 669 806 736 761 q 511 850 601 850 q 293 758 382 850 q 174 508 204 667 q 161 381 161 442 q 195 196 161 278 q 296 67 229 114 q 454 19 363 19 m 438 917 q 431 920 433 917 q 431 926 428 924 l 576 1054 q 589 1061 581 1061 q 601 1054 597 1061 l 701 926 l 701 925 q 698 917 701 921 q 692 917 694 914 l 576 1003 l 439 917 l 438 917 m 671 985 q 675 1017 667 1003 q 701 1054 683 1032 q 724 1084 717 1074 q 733 1108 732 1094 q 724 1141 738 1129 q 692 1153 710 1153 q 657 1144 676 1153 l 656 1144 q 648 1149 651 1144 q 650 1156 644 1154 q 697 1175 672 1168 q 738 1182 721 1182 q 780 1164 767 1182 q 789 1124 793 1146 q 772 1088 785 1103 q 732 1049 758 1072 q 697 1015 708 1029 q 686 985 685 1000 q 681 982 689 982 q 671 985 672 982 z "},"Ỗ":{"ha":903,"x_min":90,"x_max":879,"o":"m 396 -17 q 232 28 301 -17 q 126 153 163 74 q 90 333 90 233 q 99 435 90 383 q 190 666 121 564 q 359 826 260 768 q 568 883 458 883 q 737 838 667 883 q 843 715 807 793 q 879 536 879 636 q 869 435 879 496 q 775 202 846 306 q 604 41 704 99 q 396 -17 504 -17 m 454 19 q 669 108 579 19 q 793 361 758 196 q 808 499 808 435 q 772 681 808 601 q 669 806 736 761 q 511 850 601 850 q 293 758 382 850 q 174 508 204 667 q 161 381 161 442 q 195 196 161 278 q 296 67 229 114 q 454 19 363 19 m 429 917 q 422 920 425 917 q 422 926 419 924 l 568 1054 q 581 1061 572 1061 q 593 1054 589 1061 l 693 926 l 693 925 q 690 917 693 921 q 683 917 686 914 l 568 1003 l 431 917 l 429 917 m 428 1072 q 421 1076 424 1072 q 421 1082 418 1079 q 474 1137 443 1113 q 538 1161 506 1161 q 581 1155 557 1161 q 610 1147 606 1149 q 713 1128 671 1128 q 751 1138 736 1128 q 781 1165 765 1147 l 782 1165 q 790 1162 786 1165 q 790 1156 793 1158 q 731 1092 754 1108 q 682 1075 707 1075 q 639 1080 661 1075 q 594 1092 617 1085 q 547 1104 572 1099 q 499 1110 522 1110 q 465 1102 476 1110 q 444 1085 453 1094 q 431 1072 435 1076 l 428 1072 z "},"Ö":{"ha":903,"x_min":90,"x_max":879,"o":"m 396 -17 q 232 28 301 -17 q 126 153 163 74 q 90 333 90 233 q 99 435 90 383 q 190 666 121 564 q 359 826 260 768 q 568 883 458 883 q 737 838 667 883 q 843 715 807 793 q 879 536 879 636 q 869 435 879 496 q 775 202 846 306 q 604 41 704 99 q 396 -17 504 -17 m 454 19 q 669 108 579 19 q 793 361 758 196 q 808 499 808 435 q 772 681 808 601 q 669 806 736 761 q 511 850 601 850 q 293 758 382 850 q 174 508 204 667 q 161 381 161 442 q 195 196 161 278 q 296 67 229 114 q 454 19 363 19 m 483 1000 q 444 1014 458 1000 q 429 1053 429 1028 q 444 1092 429 1078 q 483 1106 458 1106 q 524 1092 510 1106 q 538 1053 538 1078 q 524 1014 538 1028 q 483 1000 510 1000 m 690 1000 q 649 1014 664 1000 q 635 1053 635 1028 q 649 1092 635 1078 q 690 1106 664 1106 q 731 1092 717 1106 q 744 1053 744 1078 q 731 1014 744 1028 q 690 1000 717 1000 z "},"Ọ":{"ha":903,"x_min":90,"x_max":879,"o":"m 396 -17 q 232 28 301 -17 q 126 153 163 74 q 90 333 90 233 q 99 435 90 383 q 190 666 121 564 q 359 826 260 768 q 568 883 458 883 q 737 838 667 883 q 843 715 807 793 q 879 536 879 636 q 869 435 879 496 q 775 202 846 306 q 604 41 704 99 q 396 -17 504 -17 m 454 19 q 669 108 579 19 q 793 361 758 196 q 808 499 808 435 q 772 681 808 601 q 669 806 736 761 q 511 850 601 850 q 293 758 382 850 q 174 508 204 667 q 161 381 161 442 q 195 196 161 278 q 296 67 229 114 q 454 19 363 19 m 400 -257 q 359 -243 374 -257 q 344 -203 344 -229 q 359 -165 344 -179 q 400 -151 374 -151 q 440 -165 426 -151 q 454 -203 454 -179 q 440 -243 454 -229 q 400 -257 426 -257 z "},"Ò":{"ha":903,"x_min":90,"x_max":879,"o":"m 396 -17 q 232 28 301 -17 q 126 153 163 74 q 90 333 90 233 q 99 435 90 383 q 190 666 121 564 q 359 826 260 768 q 568 883 458 883 q 737 838 667 883 q 843 715 807 793 q 879 536 879 636 q 869 435 879 496 q 775 202 846 306 q 604 41 704 99 q 396 -17 504 -17 m 454 19 q 669 108 579 19 q 793 361 758 196 q 808 499 808 435 q 772 681 808 601 q 669 806 736 761 q 511 850 601 850 q 293 758 382 850 q 174 508 204 667 q 161 381 161 442 q 195 196 161 278 q 296 67 229 114 q 454 19 363 19 m 682 943 q 424 1050 557 1011 q 435 1062 414 1051 q 483 1081 456 1072 q 515 1086 510 1089 q 549 1060 538 1069 q 690 957 639 990 q 693 953 693 954 q 690 945 693 949 q 682 943 686 942 z "},"Ỏ":{"ha":903,"x_min":90,"x_max":879,"o":"m 396 -17 q 232 28 301 -17 q 126 153 163 74 q 90 333 90 233 q 99 435 90 383 q 190 666 121 564 q 359 826 260 768 q 568 883 458 883 q 737 838 667 883 q 843 715 807 793 q 879 536 879 636 q 869 435 879 496 q 775 202 846 306 q 604 41 704 99 q 396 -17 504 -17 m 454 19 q 669 108 579 19 q 793 361 758 196 q 808 499 808 435 q 772 681 808 601 q 669 806 736 761 q 511 850 601 850 q 293 758 382 850 q 174 508 204 667 q 161 381 161 442 q 195 196 161 278 q 296 67 229 114 q 454 19 363 19 m 568 901 q 561 899 569 899 q 551 901 553 899 q 560 955 547 932 q 599 1008 572 978 q 631 1051 621 1035 q 640 1088 640 1067 q 625 1122 640 1110 q 586 1133 610 1133 q 549 1126 567 1133 l 546 1125 q 539 1130 542 1125 q 542 1138 536 1135 q 631 1163 586 1163 q 686 1146 667 1163 q 706 1104 706 1129 q 688 1053 706 1075 q 635 1001 669 1031 q 582 949 599 971 q 568 901 565 928 z "},"Ơ":{"ha":903,"x_min":90,"x_max":1003,"o":"m 961 974 q 992 960 982 974 q 1003 926 1003 947 l 1001 914 q 824 749 983 818 q 878 536 878 661 q 869 435 878 488 q 775 202 846 306 q 604 41 704 99 q 396 -17 504 -17 q 232 28 301 -17 q 126 153 163 74 q 90 333 90 233 q 99 435 90 383 q 190 666 121 564 q 359 826 260 768 q 568 883 458 883 q 710 852 649 883 q 813 765 772 821 q 915 857 906 808 q 907 886 918 872 q 901 894 906 888 q 897 914 897 901 q 899 925 897 921 q 923 960 904 947 q 961 974 942 974 m 793 361 q 808 499 808 435 q 772 681 808 601 q 669 806 736 761 q 511 850 601 850 q 293 758 382 850 q 174 508 204 667 q 161 381 161 442 q 195 196 161 278 q 296 67 229 114 q 454 19 363 19 q 669 108 579 19 q 793 361 758 196 z "},"Ớ":{"ha":903,"x_min":90,"x_max":1003,"o":"m 961 974 q 992 960 982 974 q 1003 926 1003 947 l 1001 914 q 824 749 983 818 q 878 536 878 661 q 869 435 878 488 q 775 202 846 306 q 604 41 704 99 q 396 -17 504 -17 q 232 28 301 -17 q 126 153 163 74 q 90 333 90 233 q 99 435 90 383 q 190 666 121 564 q 359 826 260 768 q 568 883 458 883 q 710 852 649 883 q 813 765 772 821 q 915 857 906 808 q 907 886 918 872 q 901 894 906 888 q 897 914 897 901 q 899 925 897 921 q 923 960 904 947 q 961 974 942 974 m 793 361 q 808 499 808 435 q 772 681 808 601 q 669 806 736 761 q 511 850 601 850 q 293 758 382 850 q 174 508 204 667 q 161 381 161 442 q 195 196 161 278 q 296 67 229 114 q 454 19 363 19 q 669 108 579 19 q 793 361 758 196 m 438 942 q 430 948 432 942 q 432 957 428 954 q 590 1040 488 982 l 671 1085 q 699 1080 676 1088 q 740 1062 722 1072 q 747 1050 757 1051 q 439 942 583 1008 l 438 942 z "},"Ợ":{"ha":903,"x_min":90,"x_max":1003,"o":"m 961 974 q 992 960 982 974 q 1003 926 1003 947 l 1001 914 q 824 749 983 818 q 878 536 878 661 q 869 435 878 488 q 775 202 846 306 q 604 41 704 99 q 396 -17 504 -17 q 232 28 301 -17 q 126 153 163 74 q 90 333 90 233 q 99 435 90 383 q 190 666 121 564 q 359 826 260 768 q 568 883 458 883 q 710 852 649 883 q 813 765 772 821 q 915 857 906 808 q 907 886 918 872 q 901 894 906 888 q 897 914 897 901 q 899 925 897 921 q 923 960 904 947 q 961 974 942 974 m 793 361 q 808 499 808 435 q 772 681 808 601 q 669 806 736 761 q 511 850 601 850 q 293 758 382 850 q 174 508 204 667 q 161 381 161 442 q 195 196 161 278 q 296 67 229 114 q 454 19 363 19 q 669 108 579 19 q 793 361 758 196 m 376 -257 q 335 -243 350 -257 q 321 -203 321 -229 q 335 -165 321 -179 q 376 -151 350 -151 q 417 -165 403 -151 q 431 -203 431 -179 q 417 -243 431 -229 q 376 -257 403 -257 z "},"Ờ":{"ha":903,"x_min":90,"x_max":1003,"o":"m 961 974 q 992 960 982 974 q 1003 926 1003 947 l 1001 914 q 824 749 983 818 q 878 536 878 661 q 869 435 878 488 q 775 202 846 306 q 604 41 704 99 q 396 -17 504 -17 q 232 28 301 -17 q 126 153 163 74 q 90 333 90 233 q 99 435 90 383 q 190 666 121 564 q 359 826 260 768 q 568 883 458 883 q 710 852 649 883 q 813 765 772 821 q 915 857 906 808 q 907 886 918 872 q 901 894 906 888 q 897 914 897 901 q 899 925 897 921 q 923 960 904 947 q 961 974 942 974 m 793 361 q 808 499 808 435 q 772 681 808 601 q 669 806 736 761 q 511 850 601 850 q 293 758 382 850 q 174 508 204 667 q 161 381 161 442 q 195 196 161 278 q 296 67 229 114 q 454 19 363 19 q 669 108 579 19 q 793 361 758 196 m 711 943 q 401 1050 554 1013 q 409 1062 392 1051 q 449 1081 426 1072 q 478 1086 472 1089 q 595 1019 533 1054 q 717 957 657 985 q 719 951 719 956 q 717 944 719 947 q 711 943 714 942 z "},"Ở":{"ha":903,"x_min":90,"x_max":1003,"o":"m 961 974 q 992 960 982 974 q 1003 926 1003 947 l 1001 914 q 824 749 983 818 q 878 536 878 661 q 869 435 878 488 q 775 202 846 306 q 604 41 704 99 q 396 -17 504 -17 q 232 28 301 -17 q 126 153 163 74 q 90 333 90 233 q 99 435 90 383 q 190 666 121 564 q 359 826 260 768 q 568 883 458 883 q 710 852 649 883 q 813 765 772 821 q 915 857 906 808 q 907 886 918 872 q 901 894 906 888 q 897 914 897 901 q 899 925 897 921 q 923 960 904 947 q 961 974 942 974 m 793 361 q 808 499 808 435 q 772 681 808 601 q 669 806 736 761 q 511 850 601 850 q 293 758 382 850 q 174 508 204 667 q 161 381 161 442 q 195 196 161 278 q 296 67 229 114 q 454 19 363 19 q 669 108 579 19 q 793 361 758 196 m 588 901 q 581 899 589 899 q 571 901 572 899 q 579 955 567 932 q 618 1008 592 978 q 650 1051 640 1035 q 660 1088 660 1067 q 644 1122 660 1110 q 606 1133 629 1133 q 568 1126 586 1133 l 565 1125 q 558 1130 561 1125 q 561 1138 556 1135 q 650 1163 606 1163 q 706 1146 686 1163 q 725 1104 725 1129 q 707 1053 725 1075 q 654 1001 689 1031 q 601 949 618 971 q 588 901 585 928 z "},"Ỡ":{"ha":903,"x_min":90,"x_max":1003,"o":"m 961 974 q 992 960 982 974 q 1003 926 1003 947 l 1001 914 q 824 749 983 818 q 878 536 878 661 q 869 435 878 488 q 775 202 846 306 q 604 41 704 99 q 396 -17 504 -17 q 232 28 301 -17 q 126 153 163 74 q 90 333 90 233 q 99 435 90 383 q 190 666 121 564 q 359 826 260 768 q 568 883 458 883 q 710 852 649 883 q 813 765 772 821 q 915 857 906 808 q 907 886 918 872 q 901 894 906 888 q 897 914 897 901 q 899 925 897 921 q 923 960 904 947 q 961 974 942 974 m 793 361 q 808 499 808 435 q 772 681 808 601 q 669 806 736 761 q 511 850 601 850 q 293 758 382 850 q 174 508 204 667 q 161 381 161 442 q 195 196 161 278 q 296 67 229 114 q 454 19 363 19 q 669 108 579 19 q 793 361 758 196 m 426 1001 q 419 1005 422 1001 q 419 1011 417 1008 q 473 1066 442 1042 q 536 1090 504 1090 q 580 1084 556 1090 q 608 1076 604 1078 q 711 1057 669 1057 q 749 1067 735 1057 q 779 1094 764 1076 l 781 1094 q 788 1091 785 1094 q 789 1085 792 1088 q 729 1021 753 1038 q 681 1004 706 1004 q 638 1009 660 1004 q 593 1021 615 1014 q 546 1033 571 1028 q 497 1039 521 1039 q 463 1031 475 1039 q 442 1015 451 1024 q 429 1001 433 1006 l 426 1001 z "},"Ő":{"ha":903,"x_min":90,"x_max":879,"o":"m 396 -17 q 232 28 301 -17 q 126 153 163 74 q 90 333 90 233 q 99 435 90 383 q 190 666 121 564 q 359 826 260 768 q 568 883 458 883 q 737 838 667 883 q 843 715 807 793 q 879 536 879 636 q 869 435 879 496 q 775 202 846 306 q 604 41 704 99 q 396 -17 504 -17 m 454 19 q 669 108 579 19 q 793 361 758 196 q 808 499 808 435 q 772 681 808 601 q 669 806 736 761 q 511 850 601 850 q 293 758 382 850 q 174 508 204 667 q 161 381 161 442 q 195 196 161 278 q 296 67 229 114 q 454 19 363 19 m 446 925 q 439 931 440 925 q 442 940 438 938 l 600 1093 q 628 1090 606 1096 q 669 1076 651 1085 q 676 1065 686 1068 q 558 1004 611 1038 q 449 926 506 971 l 446 925 m 608 925 q 601 931 603 925 q 604 940 600 938 l 763 1093 q 791 1090 768 1096 q 831 1076 814 1085 q 839 1065 849 1068 q 721 1004 774 1038 q 611 926 668 971 l 608 925 z "},"Ō":{"ha":903,"x_min":90,"x_max":879,"o":"m 396 -17 q 232 28 301 -17 q 126 153 163 74 q 90 333 90 233 q 99 435 90 383 q 190 666 121 564 q 359 826 260 768 q 568 883 458 883 q 737 838 667 883 q 843 715 807 793 q 879 536 879 636 q 869 435 879 496 q 775 202 846 306 q 604 41 704 99 q 396 -17 504 -17 m 454 19 q 669 108 579 19 q 793 361 758 196 q 808 499 808 435 q 772 681 808 601 q 669 806 736 761 q 511 850 601 850 q 293 758 382 850 q 174 508 204 667 q 161 381 161 442 q 195 196 161 278 q 296 67 229 114 q 454 19 363 19 m 421 999 q 416 1004 418 999 q 414 1017 414 1010 q 421 1035 414 1035 l 754 1035 q 761 1017 761 1035 q 754 999 761 999 l 421 999 z "},"Ǫ":{"ha":903,"x_min":90,"x_max":879,"o":"m 568 883 q 737 838 667 883 q 843 715 807 793 q 879 536 879 636 q 869 435 879 496 q 745 162 842 278 q 519 3 649 46 q 369 -208 385 -117 q 365 -250 365 -232 q 388 -320 365 -296 q 456 -344 411 -344 q 499 -335 482 -344 q 542 -307 515 -326 l 543 -307 q 551 -312 547 -307 q 551 -319 554 -317 q 413 -382 481 -382 q 335 -355 363 -382 q 308 -279 308 -328 q 311 -249 308 -271 q 486 -6 329 -150 q 396 -17 438 -17 q 232 28 301 -17 q 126 153 163 74 q 90 333 90 233 q 99 435 90 383 q 190 666 121 564 q 359 826 260 768 q 568 883 458 883 m 793 361 q 808 499 808 435 q 772 681 808 601 q 669 806 736 761 q 511 850 601 850 q 293 758 382 850 q 174 508 204 667 q 161 381 161 442 q 195 196 161 278 q 296 67 229 114 q 454 19 363 19 q 669 108 579 19 q 793 361 758 196 z "},"Ø":{"ha":903,"x_min":44,"x_max":924,"o":"m 900 874 q 903 875 900 875 q 916 868 908 875 q 919 858 924 861 l 819 757 q 879 536 879 665 q 869 435 879 496 q 775 202 846 306 q 604 41 704 99 q 396 -17 504 -17 q 263 11 322 -17 q 165 90 204 39 l 67 -10 l 64 -11 q 51 -3 58 -11 q 49 10 44 6 l 149 111 q 89 333 89 206 q 99 435 89 374 q 190 666 121 564 q 359 826 260 768 q 568 883 458 883 q 804 776 719 883 l 900 874 m 174 508 q 161 381 161 442 q 207 171 161 258 l 750 722 q 651 817 713 783 q 511 850 590 850 q 293 758 382 850 q 174 508 204 667 m 793 361 q 808 497 808 435 q 764 700 808 615 l 221 147 q 317 53 258 86 q 454 19 376 19 q 669 108 579 19 q 793 361 758 196 z "},"Ǿ":{"ha":903,"x_min":47,"x_max":921,"o":"m 900 874 q 903 875 900 875 q 916 868 908 875 q 919 858 924 861 l 819 757 q 879 536 879 665 q 869 435 879 496 q 775 202 846 306 q 604 41 704 99 q 396 -17 504 -17 q 263 11 322 -17 q 165 90 204 39 l 67 -10 l 64 -11 q 51 -3 58 -11 q 49 10 44 6 l 149 111 q 89 333 89 206 q 99 435 89 374 q 190 666 121 564 q 359 826 260 768 q 568 883 458 883 q 804 776 719 883 l 900 874 m 174 508 q 161 381 161 442 q 207 171 161 258 l 750 722 q 651 817 713 783 q 511 850 590 850 q 293 758 382 850 q 174 508 204 667 m 793 361 q 808 497 808 435 q 764 700 808 615 l 221 147 q 317 53 258 86 q 454 19 376 19 q 669 108 579 19 q 793 361 758 196 m 461 942 q 454 948 456 942 q 457 957 453 954 q 626 1047 521 986 l 696 1086 q 724 1081 701 1089 q 765 1062 747 1072 q 772 1050 782 1051 q 615 1003 686 1029 q 464 943 543 978 l 461 942 z "},"Õ":{"ha":903,"x_min":90,"x_max":879,"o":"m 396 -17 q 232 28 301 -17 q 126 153 163 74 q 90 333 90 233 q 99 435 90 383 q 190 666 121 564 q 359 826 260 768 q 568 883 458 883 q 737 838 667 883 q 843 715 807 793 q 879 536 879 636 q 869 435 879 496 q 775 202 846 306 q 604 41 704 99 q 396 -17 504 -17 m 454 19 q 669 108 579 19 q 793 361 758 196 q 808 499 808 435 q 772 681 808 601 q 669 806 736 761 q 511 850 601 850 q 293 758 382 850 q 174 508 204 667 q 161 381 161 442 q 195 196 161 278 q 296 67 229 114 q 454 19 363 19 m 410 968 q 402 972 406 968 q 401 978 399 975 q 455 1033 424 1008 q 518 1058 486 1058 q 590 1043 542 1058 q 693 1024 651 1024 q 731 1033 717 1024 q 761 1061 746 1043 l 764 1061 q 771 1058 768 1061 q 771 1051 774 1054 q 711 988 735 1004 q 663 972 688 972 q 619 977 642 972 q 575 989 597 982 q 479 1006 517 1006 q 445 998 457 1006 q 424 981 433 990 q 411 968 415 972 l 410 968 z "},"Œ":{"ha":1119,"x_min":89,"x_max":1133,"o":"m 1122 868 q 1131 856 1133 868 l 1118 774 q 1111 730 1114 753 q 1104 686 1108 707 q 1094 682 1103 681 q 1089 688 1086 683 q 1092 728 1092 701 q 1067 816 1092 783 q 997 849 1042 849 l 910 849 q 840 842 863 849 q 806 815 817 835 q 786 754 794 796 l 735 465 l 900 465 q 976 486 953 465 q 1008 561 1000 507 q 1017 565 1008 565 q 1023 563 1019 565 q 1025 558 1026 561 q 1014 500 1018 517 l 1006 451 l 997 397 l 986 325 q 976 320 985 319 q 969 326 968 321 q 975 372 975 363 q 956 424 975 408 q 890 439 936 439 l 731 439 l 674 118 q 669 76 669 93 q 690 35 669 46 q 765 25 710 25 l 889 25 q 976 74 935 25 q 1042 204 1018 124 q 1051 207 1043 208 q 1057 201 1058 206 q 1015 21 1033 126 q 1008 5 1013 10 q 993 0 1003 0 l 626 0 q 532 -3 596 0 q 454 -6 474 -6 q 260 39 343 -6 q 133 162 178 83 q 89 340 89 240 q 96 418 89 374 q 193 656 118 553 q 374 815 268 758 q 592 871 479 871 q 674 869 643 871 l 772 868 l 1122 868 m 713 738 q 718 781 718 771 q 692 836 718 819 q 601 853 667 853 q 414 806 500 853 q 268 667 328 758 q 188 449 208 576 q 178 340 178 396 q 249 103 178 194 q 444 13 319 13 q 531 20 500 13 q 580 49 563 28 q 604 114 597 71 l 713 738 z "},"P":{"ha":689,"x_min":13,"x_max":699,"o":"m 17 0 q 13 8 13 0 q 17 17 13 17 q 85 24 63 17 q 120 51 108 31 q 140 113 132 71 l 253 756 q 258 800 258 779 q 238 841 258 831 q 165 851 218 851 q 163 860 163 851 q 165 868 163 868 l 221 867 q 300 864 271 864 q 365 867 315 864 q 472 872 429 872 q 635 824 571 872 q 699 683 699 776 q 693 629 699 656 q 622 482 678 542 q 492 393 565 422 q 351 364 419 364 q 294 371 317 364 q 292 375 292 371 q 294 385 292 379 q 300 389 297 390 q 342 383 318 383 q 456 408 400 383 q 555 481 513 432 q 611 601 597 531 q 617 661 617 629 q 566 802 617 750 q 442 854 515 854 q 371 849 392 854 q 338 824 350 844 q 317 753 326 803 l 204 113 q 199 68 199 76 q 219 27 199 38 q 293 17 239 17 q 296 8 296 17 q 293 0 296 0 q 236 1 257 0 l 151 3 l 72 1 q 17 0 51 0 z "},"Þ":{"ha":738,"x_min":13,"x_max":715,"o":"m 440 693 q 638 642 560 693 q 715 489 715 590 q 710 433 715 460 q 628 288 693 347 q 480 199 564 228 q 318 169 396 169 q 261 175 285 169 q 260 179 260 175 q 262 189 260 183 q 268 193 264 194 q 308 189 288 189 q 444 213 376 189 q 561 286 511 238 q 626 406 611 335 q 633 468 633 433 q 569 620 633 564 q 410 676 504 676 q 301 667 347 676 l 204 113 q 200 69 200 88 q 210 36 200 47 q 247 21 221 25 q 325 17 274 17 q 328 8 328 17 q 325 0 328 0 q 256 1 281 0 l 151 3 l 72 1 q 17 0 51 0 q 13 8 13 0 q 17 17 13 17 q 85 24 63 17 q 120 51 108 31 q 140 113 132 71 l 253 756 q 258 800 258 779 q 238 841 258 831 q 165 851 218 851 q 163 860 163 851 q 165 868 163 868 l 221 867 q 300 864 271 864 q 408 867 344 864 l 475 868 q 478 860 478 868 q 475 851 478 851 q 379 845 408 851 q 338 819 350 839 q 317 753 325 800 l 304 683 q 440 693 364 693 z "},"Q":{"ha":903,"x_min":90,"x_max":949,"o":"m 940 -240 q 947 -246 944 -239 q 946 -256 949 -253 q 826 -271 878 -271 q 661 -199 747 -271 q 514 1 575 -126 q 396 -17 451 -17 q 232 28 301 -17 q 126 153 163 74 q 90 333 90 233 q 99 435 90 383 q 190 666 121 564 q 359 826 260 768 q 568 883 458 883 q 737 838 667 883 q 843 715 807 793 q 879 536 879 636 q 869 435 879 496 q 771 194 846 300 q 590 33 696 89 q 676 -110 625 -47 q 784 -210 728 -174 q 890 -246 840 -246 q 940 -240 915 -246 m 174 508 q 161 381 161 442 q 195 196 161 278 q 296 67 229 114 q 454 19 363 19 q 669 108 579 19 q 793 361 758 196 q 808 499 808 435 q 772 681 808 601 q 669 806 736 761 q 511 850 601 850 q 293 758 382 850 q 174 508 204 667 z "},"R":{"ha":844,"x_min":14,"x_max":814,"o":"m 808 17 q 814 8 814 17 q 808 0 814 0 l 674 0 q 572 122 640 0 q 415 456 503 243 q 329 442 375 442 q 278 444 308 442 l 218 113 q 213 65 213 86 q 232 26 213 36 q 308 17 251 17 q 314 8 314 17 q 310 0 314 0 q 250 1 271 0 l 165 3 l 82 1 q 19 0 58 0 q 14 8 14 0 q 19 17 14 17 q 94 24 68 17 q 132 51 119 32 q 153 113 144 71 l 267 756 q 272 799 272 792 q 251 841 272 831 q 174 851 231 851 q 168 860 168 851 q 174 868 168 868 l 233 867 q 317 864 286 864 q 359 865 339 864 q 394 868 379 867 q 465 872 433 872 q 595 838 550 872 q 640 739 640 803 q 593 590 640 661 q 471 479 546 519 q 605 202 550 300 q 708 60 660 104 q 808 17 756 17 m 283 478 q 356 472 328 472 q 494 515 447 472 q 558 651 542 557 q 565 717 565 690 q 530 821 565 788 q 432 854 494 854 q 379 849 396 854 q 351 822 363 843 q 332 753 340 801 l 283 478 z "},"Ŕ":{"ha":844,"x_min":14,"x_max":814,"o":"m 808 17 q 814 8 814 17 q 808 0 814 0 l 674 0 q 572 122 640 0 q 415 456 503 243 q 329 442 375 442 q 278 444 308 442 l 218 113 q 213 65 213 86 q 232 26 213 36 q 308 17 251 17 q 314 8 314 17 q 310 0 314 0 q 250 1 271 0 l 165 3 l 82 1 q 19 0 58 0 q 14 8 14 0 q 19 17 14 17 q 94 24 68 17 q 132 51 119 32 q 153 113 144 71 l 267 756 q 272 799 272 792 q 251 841 272 831 q 174 851 231 851 q 168 860 168 851 q 174 868 168 868 l 233 867 q 317 864 286 864 q 359 865 339 864 q 394 868 379 867 q 465 872 433 872 q 595 838 550 872 q 640 739 640 803 q 593 590 640 661 q 471 479 546 519 q 605 202 550 300 q 708 60 660 104 q 808 17 756 17 m 283 478 q 356 472 328 472 q 494 515 447 472 q 558 651 542 557 q 565 717 565 690 q 530 821 565 788 q 432 854 494 854 q 379 849 396 854 q 351 822 363 843 q 332 753 340 801 l 283 478 m 361 942 q 354 948 356 942 q 357 957 353 954 q 526 1047 421 986 l 596 1086 q 624 1081 601 1089 q 665 1062 647 1072 q 672 1050 682 1051 q 515 1003 586 1029 q 364 943 443 978 l 361 942 z "},"Ř":{"ha":844,"x_min":14,"x_max":814,"o":"m 808 17 q 814 8 814 17 q 808 0 814 0 l 674 0 q 572 122 640 0 q 415 456 503 243 q 329 442 375 442 q 278 444 308 442 l 218 113 q 213 65 213 86 q 232 26 213 36 q 308 17 251 17 q 314 8 314 17 q 310 0 314 0 q 250 1 271 0 l 165 3 l 82 1 q 19 0 58 0 q 14 8 14 0 q 19 17 14 17 q 94 24 68 17 q 132 51 119 32 q 153 113 144 71 l 267 756 q 272 799 272 792 q 251 841 272 831 q 174 851 231 851 q 168 860 168 851 q 174 868 168 868 l 233 867 q 317 864 286 864 q 359 865 339 864 q 394 868 379 867 q 465 872 433 872 q 595 838 550 872 q 640 739 640 803 q 593 590 640 661 q 471 479 546 519 q 605 202 550 300 q 708 60 660 104 q 808 17 756 17 m 283 478 q 356 472 328 472 q 494 515 447 472 q 558 651 542 557 q 565 717 565 690 q 530 821 565 788 q 432 854 494 854 q 379 849 396 854 q 351 822 363 843 q 332 753 340 801 l 283 478 m 331 1067 l 331 1068 q 335 1074 331 1071 q 340 1076 339 1078 l 454 990 l 592 1078 l 593 1078 q 601 1073 597 1078 q 600 1067 604 1068 l 456 938 q 442 932 450 932 q 429 938 435 932 l 331 1067 z "},"Ŗ":{"ha":844,"x_min":14,"x_max":814,"o":"m 808 17 q 814 8 814 17 q 808 0 814 0 l 674 0 q 572 122 640 0 q 415 456 503 243 q 329 442 375 442 q 278 444 308 442 l 218 113 q 213 65 213 86 q 232 26 213 36 q 308 17 251 17 q 314 8 314 17 q 310 0 314 0 q 250 1 271 0 l 165 3 l 82 1 q 19 0 58 0 q 14 8 14 0 q 19 17 14 17 q 94 24 68 17 q 132 51 119 32 q 153 113 144 71 l 267 756 q 272 799 272 792 q 251 841 272 831 q 174 851 231 851 q 168 860 168 851 q 174 868 168 868 l 233 867 q 317 864 286 864 q 359 865 339 864 q 394 868 379 867 q 465 872 433 872 q 595 838 550 872 q 640 739 640 803 q 593 590 640 661 q 471 479 546 519 q 605 202 550 300 q 708 60 660 104 q 808 17 756 17 m 283 478 q 356 472 328 472 q 494 515 447 472 q 558 651 542 557 q 565 717 565 690 q 530 821 565 788 q 432 854 494 854 q 379 849 396 854 q 351 822 363 843 q 332 753 340 801 l 283 478 m 388 -125 q 440 -147 419 -125 q 460 -210 460 -169 q 356 -382 460 -303 l 353 -383 q 344 -377 347 -383 q 346 -368 342 -371 q 418 -258 410 -321 q 419 -236 419 -250 q 415 -207 419 -219 q 378 -222 404 -222 q 341 -209 354 -222 q 328 -174 328 -196 q 344 -137 328 -150 q 388 -125 360 -125 z "},"Ṛ":{"ha":844,"x_min":14,"x_max":814,"o":"m 808 17 q 814 8 814 17 q 808 0 814 0 l 674 0 q 572 122 640 0 q 415 456 503 243 q 329 442 375 442 q 278 444 308 442 l 218 113 q 213 65 213 86 q 232 26 213 36 q 308 17 251 17 q 314 8 314 17 q 310 0 314 0 q 250 1 271 0 l 165 3 l 82 1 q 19 0 58 0 q 14 8 14 0 q 19 17 14 17 q 94 24 68 17 q 132 51 119 32 q 153 113 144 71 l 267 756 q 272 799 272 792 q 251 841 272 831 q 174 851 231 851 q 168 860 168 851 q 174 868 168 868 l 233 867 q 317 864 286 864 q 359 865 339 864 q 394 868 379 867 q 465 872 433 872 q 595 838 550 872 q 640 739 640 803 q 593 590 640 661 q 471 479 546 519 q 605 202 550 300 q 708 60 660 104 q 808 17 756 17 m 283 478 q 356 472 328 472 q 494 515 447 472 q 558 651 542 557 q 565 717 565 690 q 530 821 565 788 q 432 854 494 854 q 379 849 396 854 q 351 822 363 843 q 332 753 340 801 l 283 478 m 388 -257 q 347 -243 361 -257 q 332 -203 332 -229 q 347 -165 332 -179 q 388 -151 361 -151 q 428 -165 414 -151 q 442 -203 442 -179 q 428 -243 442 -229 q 388 -257 414 -257 z "},"Ṝ":{"ha":844,"x_min":14,"x_max":814,"o":"m 808 17 q 814 8 814 17 q 808 0 814 0 l 674 0 q 572 122 640 0 q 415 456 503 243 q 329 442 375 442 q 278 444 308 442 l 218 113 q 213 65 213 86 q 232 26 213 36 q 308 17 251 17 q 314 8 314 17 q 310 0 314 0 q 250 1 271 0 l 165 3 l 82 1 q 19 0 58 0 q 14 8 14 0 q 19 17 14 17 q 94 24 68 17 q 132 51 119 32 q 153 113 144 71 l 267 756 q 272 799 272 792 q 251 841 272 831 q 174 851 231 851 q 168 860 168 851 q 174 868 168 868 l 233 867 q 317 864 286 864 q 359 865 339 864 q 394 868 379 867 q 465 872 433 872 q 595 838 550 872 q 640 739 640 803 q 593 590 640 661 q 471 479 546 519 q 605 202 550 300 q 708 60 660 104 q 808 17 756 17 m 283 478 q 356 472 328 472 q 494 515 447 472 q 558 651 542 557 q 565 717 565 690 q 530 821 565 788 q 432 854 494 854 q 379 849 396 854 q 351 822 363 843 q 332 753 340 801 l 283 478 m 388 -257 q 347 -243 361 -257 q 332 -203 332 -229 q 347 -165 332 -179 q 388 -151 361 -151 q 428 -165 414 -151 q 442 -203 442 -179 q 428 -243 442 -229 q 388 -257 414 -257 m 258 990 q 251 1008 251 990 q 258 1025 251 1025 l 607 1025 q 612 1019 610 1025 q 614 1008 614 1014 q 607 990 614 990 l 258 990 z "},"Ṟ":{"ha":844,"x_min":14,"x_max":814,"o":"m 808 17 q 814 8 814 17 q 808 0 814 0 l 674 0 q 572 122 640 0 q 415 456 503 243 q 329 442 375 442 q 278 444 308 442 l 218 113 q 213 65 213 86 q 232 26 213 36 q 308 17 251 17 q 314 8 314 17 q 310 0 314 0 q 250 1 271 0 l 165 3 l 82 1 q 19 0 58 0 q 14 8 14 0 q 19 17 14 17 q 94 24 68 17 q 132 51 119 32 q 153 113 144 71 l 267 756 q 272 799 272 792 q 251 841 272 831 q 174 851 231 851 q 168 860 168 851 q 174 868 168 868 l 233 867 q 317 864 286 864 q 359 865 339 864 q 394 868 379 867 q 465 872 433 872 q 595 838 550 872 q 640 739 640 803 q 593 590 640 661 q 471 479 546 519 q 605 202 550 300 q 708 60 660 104 q 808 17 756 17 m 283 478 q 356 472 328 472 q 494 515 447 472 q 558 651 542 557 q 565 717 565 690 q 530 821 565 788 q 432 854 494 854 q 379 849 396 854 q 351 822 363 843 q 332 753 340 801 l 283 478 m 242 -161 q 235 -143 235 -161 q 242 -125 235 -125 l 575 -125 q 580 -131 578 -125 q 582 -143 582 -136 q 575 -161 582 -161 l 242 -161 z "},"S":{"ha":639,"x_min":69,"x_max":621,"o":"m 251 -17 q 164 -6 206 -17 q 78 31 122 4 q 71 42 72 35 q 69 57 69 49 l 83 238 q 91 244 83 244 q 99 238 99 244 q 140 73 94 143 q 285 3 186 3 q 410 43 354 3 q 481 169 465 83 q 485 214 485 193 q 464 299 485 263 q 412 361 443 335 q 329 422 381 388 q 249 481 279 456 q 198 543 218 507 q 178 628 178 579 q 182 668 178 647 q 236 786 194 738 q 336 859 278 835 q 457 883 394 883 q 603 850 528 883 q 619 826 621 840 l 603 679 q 594 674 603 674 q 586 679 586 674 q 554 811 586 757 q 438 865 522 865 q 333 835 375 865 q 272 758 292 804 q 251 664 251 711 q 272 585 251 619 q 323 527 293 551 q 404 469 353 503 q 490 408 458 435 q 543 344 521 382 q 565 257 565 307 q 563 218 565 232 q 463 50 544 117 q 251 -17 381 -17 z "},"Ś":{"ha":639,"x_min":69,"x_max":683,"o":"m 251 -17 q 164 -6 206 -17 q 78 31 122 4 q 71 42 72 35 q 69 57 69 49 l 83 238 q 91 244 83 244 q 99 238 99 244 q 140 73 94 143 q 285 3 186 3 q 410 43 354 3 q 481 169 465 83 q 485 214 485 193 q 464 299 485 263 q 412 361 443 335 q 329 422 381 388 q 249 481 279 456 q 198 543 218 507 q 178 628 178 579 q 182 668 178 647 q 236 786 194 738 q 336 859 278 835 q 457 883 394 883 q 603 850 528 883 q 619 826 621 840 l 603 679 q 594 674 603 674 q 586 679 586 674 q 554 811 586 757 q 438 865 522 865 q 333 835 375 865 q 272 758 292 804 q 251 664 251 711 q 272 585 251 619 q 323 527 293 551 q 404 469 353 503 q 490 408 458 435 q 543 344 521 382 q 565 257 565 307 q 563 218 565 232 q 463 50 544 117 q 251 -17 381 -17 m 369 942 q 363 948 364 942 q 365 957 361 954 q 535 1047 429 986 l 604 1086 q 633 1081 610 1089 q 673 1062 656 1072 q 681 1050 690 1051 q 523 1003 594 1029 q 372 943 451 978 l 369 942 z "},"Š":{"ha":639,"x_min":69,"x_max":619,"o":"m 251 -17 q 164 -6 206 -17 q 78 31 122 4 q 71 42 72 35 q 69 57 69 49 l 83 238 q 91 244 83 244 q 99 238 99 244 q 140 73 94 143 q 285 3 186 3 q 410 43 354 3 q 481 169 465 83 q 485 214 485 193 q 464 299 485 263 q 412 361 443 335 q 329 422 381 388 q 249 481 279 456 q 198 543 218 507 q 178 628 178 579 q 182 668 178 647 q 236 786 194 738 q 336 859 278 835 q 457 883 394 883 q 603 850 528 883 q 619 826 621 840 l 603 679 q 594 674 603 674 q 586 679 586 674 q 554 811 586 757 q 438 865 522 865 q 333 835 375 865 q 272 758 292 804 q 251 664 251 711 q 272 585 251 619 q 323 527 293 551 q 404 469 353 503 q 490 408 458 435 q 543 344 521 382 q 565 257 565 307 q 563 218 565 232 q 463 50 544 117 q 251 -17 381 -17 m 339 1067 l 339 1068 q 343 1074 339 1071 q 349 1076 347 1078 l 463 990 l 600 1078 l 601 1078 q 609 1073 606 1078 q 608 1067 613 1068 l 464 938 q 450 932 458 932 q 438 938 443 932 l 339 1067 z "},"Ş":{"ha":639,"x_min":69,"x_max":621,"o":"m 603 850 q 619 826 621 840 l 603 679 q 594 674 603 674 q 586 679 586 674 q 554 811 586 757 q 438 865 522 865 q 333 835 375 865 q 272 758 292 804 q 251 664 251 711 q 272 585 251 619 q 323 527 293 551 q 404 469 353 503 q 490 408 458 435 q 543 344 521 382 q 565 257 565 307 q 563 218 565 232 q 481 67 547 131 q 311 -12 415 3 q 294 -78 294 -53 q 322 -144 294 -110 q 356 -197 344 -174 q 367 -244 367 -221 q 365 -261 367 -256 q 322 -343 360 -304 q 228 -382 285 -382 q 180 -369 200 -382 q 160 -332 160 -357 q 161 -319 160 -324 q 172 -301 163 -308 q 196 -294 182 -294 q 217 -302 210 -294 q 235 -326 224 -310 q 249 -349 243 -342 q 267 -356 256 -356 q 321 -299 308 -356 q 274 -192 326 -256 q 249 -128 249 -162 q 260 -83 249 -104 l 294 -14 q 251 -17 267 -17 q 164 -6 206 -17 q 78 31 122 4 q 71 42 72 35 q 69 57 69 49 l 83 238 q 91 244 83 244 q 99 238 99 244 q 140 73 94 143 q 285 3 186 3 q 410 43 354 3 q 481 169 465 83 q 485 214 485 193 q 464 299 485 263 q 412 361 443 335 q 329 422 381 388 q 249 481 279 456 q 198 543 218 507 q 178 628 178 579 q 182 668 178 647 q 236 786 194 738 q 336 859 278 835 q 457 883 394 883 q 603 850 528 883 z "},"Ŝ":{"ha":639,"x_min":69,"x_max":619,"o":"m 251 -17 q 164 -6 206 -17 q 78 31 122 4 q 71 42 72 35 q 69 57 69 49 l 83 238 q 91 244 83 244 q 99 238 99 244 q 140 73 94 143 q 285 3 186 3 q 410 43 354 3 q 481 169 465 83 q 485 214 485 193 q 464 299 485 263 q 412 361 443 335 q 329 422 381 388 q 249 481 279 456 q 198 543 218 507 q 178 628 178 579 q 182 668 178 647 q 236 786 194 738 q 336 859 278 835 q 457 883 394 883 q 603 850 528 883 q 619 826 621 840 l 603 679 q 594 674 603 674 q 586 679 586 674 q 554 811 586 757 q 438 865 522 865 q 333 835 375 865 q 272 758 292 804 q 251 664 251 711 q 272 585 251 619 q 323 527 293 551 q 404 469 353 503 q 490 408 458 435 q 543 344 521 382 q 565 257 565 307 q 563 218 565 232 q 463 50 544 117 q 251 -17 381 -17 m 326 917 q 319 920 322 917 q 319 926 317 924 l 465 1054 q 478 1061 469 1061 q 490 1054 486 1061 l 590 926 l 590 925 q 587 917 590 921 q 581 917 583 914 l 465 1003 l 328 917 l 326 917 z "},"Ș":{"ha":639,"x_min":69,"x_max":619,"o":"m 251 -17 q 164 -6 206 -17 q 78 31 122 4 q 71 42 72 35 q 69 57 69 49 l 83 238 q 91 244 83 244 q 99 238 99 244 q 140 73 94 143 q 285 3 186 3 q 410 43 354 3 q 481 169 465 83 q 485 214 485 193 q 464 299 485 263 q 412 361 443 335 q 329 422 381 388 q 249 481 279 456 q 198 543 218 507 q 178 628 178 579 q 182 668 178 647 q 236 786 194 738 q 336 859 278 835 q 457 883 394 883 q 603 850 528 883 q 619 826 621 840 l 603 679 q 594 674 603 674 q 586 679 586 674 q 554 811 586 757 q 438 865 522 865 q 333 835 375 865 q 272 758 292 804 q 251 664 251 711 q 272 585 251 619 q 323 527 293 551 q 404 469 353 503 q 490 408 458 435 q 543 344 521 382 q 565 257 565 307 q 563 218 565 232 q 463 50 544 117 q 251 -17 381 -17 m 265 -125 q 317 -147 297 -125 q 338 -210 338 -169 q 233 -382 338 -303 l 231 -383 q 222 -377 225 -383 q 224 -368 219 -371 q 296 -258 288 -321 q 297 -236 297 -250 q 293 -207 297 -219 q 256 -222 282 -222 q 219 -209 232 -222 q 206 -174 206 -196 q 222 -137 206 -150 q 265 -125 238 -125 z "},"Ṡ":{"ha":639,"x_min":69,"x_max":619,"o":"m 251 -17 q 164 -6 206 -17 q 78 31 122 4 q 71 42 72 35 q 69 57 69 49 l 83 238 q 91 244 83 244 q 99 238 99 244 q 140 73 94 143 q 285 3 186 3 q 410 43 354 3 q 481 169 465 83 q 485 214 485 193 q 464 299 485 263 q 412 361 443 335 q 329 422 381 388 q 249 481 279 456 q 198 543 218 507 q 178 628 178 579 q 182 668 178 647 q 236 786 194 738 q 336 859 278 835 q 457 883 394 883 q 603 850 528 883 q 619 826 621 840 l 603 679 q 594 674 603 674 q 586 679 586 674 q 554 811 586 757 q 438 865 522 865 q 333 835 375 865 q 272 758 292 804 q 251 664 251 711 q 272 585 251 619 q 323 527 293 551 q 404 469 353 503 q 490 408 458 435 q 543 344 521 382 q 565 257 565 307 q 563 218 565 232 q 463 50 544 117 q 251 -17 381 -17 m 463 983 q 422 997 438 983 q 407 1036 407 1011 q 422 1075 407 1061 q 463 1089 438 1089 q 503 1075 489 1089 q 517 1036 517 1061 q 503 997 517 1011 q 463 983 489 983 z "},"Ṣ":{"ha":639,"x_min":69,"x_max":619,"o":"m 251 -17 q 164 -6 206 -17 q 78 31 122 4 q 71 42 72 35 q 69 57 69 49 l 83 238 q 91 244 83 244 q 99 238 99 244 q 140 73 94 143 q 285 3 186 3 q 410 43 354 3 q 481 169 465 83 q 485 214 485 193 q 464 299 485 263 q 412 361 443 335 q 329 422 381 388 q 249 481 279 456 q 198 543 218 507 q 178 628 178 579 q 182 668 178 647 q 236 786 194 738 q 336 859 278 835 q 457 883 394 883 q 603 850 528 883 q 619 826 621 840 l 603 679 q 594 674 603 674 q 586 679 586 674 q 554 811 586 757 q 438 865 522 865 q 333 835 375 865 q 272 758 292 804 q 251 664 251 711 q 272 585 251 619 q 323 527 293 551 q 404 469 353 503 q 490 408 458 435 q 543 344 521 382 q 565 257 565 307 q 563 218 565 232 q 463 50 544 117 q 251 -17 381 -17 m 265 -257 q 224 -243 239 -257 q 210 -203 210 -229 q 224 -165 210 -179 q 265 -151 239 -151 q 306 -165 292 -151 q 319 -203 319 -179 q 306 -243 319 -229 q 265 -257 292 -257 z "},"ẞ":{"ha":875,"x_min":-24,"x_max":871,"o":"m 524 -17 q 447 -6 482 -17 q 376 31 413 4 q 370 44 369 35 q 371 57 371 53 l 374 189 q 382 197 374 196 q 390 190 390 197 q 417 106 390 147 q 485 38 443 64 q 574 11 528 11 q 681 53 638 11 q 739 172 725 94 q 742 207 742 185 q 697 333 742 269 q 554 481 653 397 q 547 492 547 488 q 553 501 547 496 l 747 750 q 608 817 676 794 q 485 840 540 840 q 344 778 396 840 q 263 561 292 717 l 183 113 q 179 69 179 88 q 201 27 179 38 q 286 17 224 17 q 292 8 292 17 q 286 0 292 0 l 131 1 l -18 0 q -24 8 -24 0 q -18 17 -24 17 q 57 24 32 17 q 95 51 82 32 q 115 113 108 71 l 190 531 q 256 699 206 618 q 383 832 306 781 q 554 883 461 883 q 656 869 601 883 q 754 835 710 854 q 796 822 783 822 q 818 832 807 822 q 856 874 829 842 l 861 876 q 868 874 865 876 q 869 868 871 871 l 606 535 q 760 390 714 451 q 807 267 807 329 q 804 231 807 243 q 757 111 793 168 q 661 19 721 54 q 524 -17 601 -17 z "},"Ə":{"ha":821,"x_min":68,"x_max":793,"o":"m 481 883 q 720 793 647 883 q 793 561 793 703 q 783 450 793 503 q 685 200 757 306 q 513 39 613 94 q 304 -17 413 -17 q 168 15 221 -17 q 92 94 115 46 q 68 193 68 142 q 71 226 68 204 q 78 240 74 236 q 89 243 82 243 l 649 246 q 692 400 678 321 q 706 547 706 474 q 647 781 706 693 q 479 868 588 868 q 310 818 397 868 q 176 676 224 768 q 171 674 175 674 q 163 676 167 674 q 161 681 160 679 l 247 888 q 253 890 249 890 q 260 888 257 890 q 263 882 264 885 q 258 860 258 869 q 276 840 258 840 q 290 843 279 840 q 392 874 351 865 q 481 883 432 883 m 353 10 q 519 64 447 10 q 638 219 590 118 l 151 213 q 200 65 146 119 q 353 10 254 10 z "},"T":{"ha":768,"x_min":106,"x_max":844,"o":"m 207 0 q 203 8 203 0 q 207 17 203 17 q 276 24 253 17 q 310 51 299 31 q 328 113 321 71 l 442 756 q 446 797 446 781 q 428 836 446 826 q 364 846 411 846 l 326 846 q 231 828 267 846 q 169 769 194 810 q 124 651 144 728 q 118 649 124 649 q 110 651 114 649 q 107 654 106 653 q 138 770 118 688 q 167 899 158 853 q 176 902 168 903 q 183 897 185 901 q 238 868 179 868 q 492 864 340 864 q 649 867 563 864 l 736 868 q 799 875 778 868 q 828 903 819 882 q 838 906 831 907 q 843 900 844 906 q 815 784 832 864 q 789 654 797 704 q 780 651 788 650 q 774 657 772 651 q 782 742 782 707 q 752 823 782 800 q 650 846 722 846 l 613 846 q 553 838 574 846 q 524 811 533 831 q 507 753 514 792 l 394 113 q 390 69 390 86 q 410 27 390 38 q 485 17 429 17 q 488 8 488 17 q 485 0 488 0 q 429 1 450 0 l 344 3 l 264 1 q 207 0 243 0 z "},"Ŧ":{"ha":768,"x_min":106,"x_max":844,"o":"m 828 903 q 838 906 831 907 q 843 900 844 906 q 815 784 832 864 q 789 654 797 704 q 780 651 788 650 q 774 657 772 651 q 782 742 782 707 q 752 823 782 800 q 650 846 722 846 l 613 846 q 553 838 574 846 q 524 811 533 831 q 507 753 514 792 l 456 461 l 601 461 q 606 457 604 461 q 608 449 608 453 q 606 439 608 443 q 601 435 604 435 l 451 435 l 394 113 q 390 69 390 86 q 410 27 390 38 q 485 17 429 17 q 488 8 488 17 q 485 0 488 0 q 429 1 450 0 l 344 3 l 264 1 q 207 0 243 0 q 203 8 203 0 q 207 17 203 17 q 276 24 253 17 q 310 51 299 31 q 328 113 321 71 l 385 435 l 243 435 q 240 439 242 435 q 238 449 238 443 q 240 457 238 453 q 243 461 242 461 l 389 461 l 442 756 q 446 797 446 781 q 428 836 446 826 q 364 846 411 846 l 326 846 q 231 828 267 846 q 169 769 194 810 q 124 651 144 728 q 118 649 124 649 q 110 651 114 649 q 107 654 106 653 q 138 770 118 688 q 167 899 158 853 q 176 902 168 903 q 183 897 185 901 q 238 868 179 868 q 492 864 340 864 q 649 867 563 864 l 736 868 q 799 875 778 868 q 828 903 819 882 z "},"Ť":{"ha":768,"x_min":107,"x_max":843,"o":"m 207 0 q 203 8 203 0 q 207 17 203 17 q 276 24 253 17 q 310 51 299 31 q 328 113 321 71 l 442 756 q 446 797 446 781 q 428 836 446 826 q 364 846 411 846 l 326 846 q 231 828 267 846 q 169 769 194 810 q 124 651 144 728 q 118 649 124 649 q 110 651 114 649 q 107 654 106 653 q 138 770 118 688 q 167 899 158 853 q 176 902 168 903 q 183 897 185 901 q 238 868 179 868 q 492 864 340 864 q 649 867 563 864 l 736 868 q 799 875 778 868 q 828 903 819 882 q 838 906 831 907 q 843 900 844 906 q 815 784 832 864 q 789 654 797 704 q 780 651 788 650 q 774 657 772 651 q 782 742 782 707 q 752 823 782 800 q 650 846 722 846 l 613 846 q 553 838 574 846 q 524 811 533 831 q 507 753 514 792 l 394 113 q 390 69 390 86 q 410 27 390 38 q 485 17 429 17 q 488 8 488 17 q 485 0 488 0 q 429 1 450 0 l 344 3 l 264 1 q 207 0 243 0 m 388 1067 l 388 1068 q 392 1074 388 1071 q 397 1076 396 1078 l 511 990 l 649 1078 l 650 1078 q 658 1073 654 1078 q 657 1067 661 1068 l 513 938 q 499 932 507 932 q 486 938 492 932 l 388 1067 z "},"Ţ":{"ha":768,"x_min":106,"x_max":844,"o":"m 828 903 q 838 906 831 907 q 843 900 844 906 q 815 784 832 864 q 789 654 797 704 q 780 651 788 650 q 774 657 772 651 q 782 742 782 707 q 752 823 782 800 q 650 846 722 846 l 613 846 q 553 838 574 846 q 524 811 533 831 q 507 753 514 792 l 394 113 q 390 69 390 86 q 410 27 390 38 q 485 17 429 17 q 488 8 488 17 q 485 0 488 0 q 432 1 451 0 l 356 3 q 333 -83 333 -50 q 356 -144 333 -118 q 389 -197 378 -174 q 400 -244 400 -221 q 399 -261 400 -256 q 356 -343 393 -304 q 261 -382 318 -382 q 213 -369 233 -382 q 193 -332 193 -357 q 194 -319 193 -324 q 206 -301 196 -308 q 229 -294 215 -294 q 250 -302 243 -294 q 268 -326 257 -310 q 283 -349 276 -342 q 300 -356 289 -356 q 354 -299 342 -356 q 307 -192 360 -256 q 282 -128 282 -162 q 293 -83 282 -104 l 336 3 l 261 1 q 207 0 242 0 q 203 8 203 0 q 207 17 203 17 q 276 24 253 17 q 310 51 299 31 q 328 113 321 71 l 442 756 q 446 797 446 781 q 428 836 446 826 q 364 846 411 846 l 326 846 q 231 828 267 846 q 169 769 194 810 q 124 651 144 728 q 118 649 124 649 q 110 651 114 649 q 107 654 106 653 q 138 770 118 688 q 167 899 158 853 q 176 902 168 903 q 183 897 185 901 q 238 868 179 868 q 492 864 340 864 q 649 867 563 864 l 736 868 q 799 875 778 868 q 828 903 819 882 z "},"Ț":{"ha":768,"x_min":107,"x_max":843,"o":"m 207 0 q 203 8 203 0 q 207 17 203 17 q 276 24 253 17 q 310 51 299 31 q 328 113 321 71 l 442 756 q 446 797 446 781 q 428 836 446 826 q 364 846 411 846 l 326 846 q 231 828 267 846 q 169 769 194 810 q 124 651 144 728 q 118 649 124 649 q 110 651 114 649 q 107 654 106 653 q 138 770 118 688 q 167 899 158 853 q 176 902 168 903 q 183 897 185 901 q 238 868 179 868 q 492 864 340 864 q 649 867 563 864 l 736 868 q 799 875 778 868 q 828 903 819 882 q 838 906 831 907 q 843 900 844 906 q 815 784 832 864 q 789 654 797 704 q 780 651 788 650 q 774 657 772 651 q 782 742 782 707 q 752 823 782 800 q 650 846 722 846 l 613 846 q 553 838 574 846 q 524 811 533 831 q 507 753 514 792 l 394 113 q 390 69 390 86 q 410 27 390 38 q 485 17 429 17 q 488 8 488 17 q 485 0 488 0 q 429 1 450 0 l 344 3 l 264 1 q 207 0 243 0 m 314 -125 q 366 -147 346 -125 q 386 -210 386 -169 q 282 -382 386 -303 l 279 -383 q 271 -377 274 -383 q 272 -368 268 -371 q 344 -258 336 -321 q 346 -236 346 -250 q 342 -207 346 -219 q 304 -222 331 -222 q 267 -209 281 -222 q 254 -174 254 -196 q 270 -137 254 -150 q 314 -125 286 -125 z "},"Ṭ":{"ha":768,"x_min":107,"x_max":843,"o":"m 207 0 q 203 8 203 0 q 207 17 203 17 q 276 24 253 17 q 310 51 299 31 q 328 113 321 71 l 442 756 q 446 797 446 781 q 428 836 446 826 q 364 846 411 846 l 326 846 q 231 828 267 846 q 169 769 194 810 q 124 651 144 728 q 118 649 124 649 q 110 651 114 649 q 107 654 106 653 q 138 770 118 688 q 167 899 158 853 q 176 902 168 903 q 183 897 185 901 q 238 868 179 868 q 492 864 340 864 q 649 867 563 864 l 736 868 q 799 875 778 868 q 828 903 819 882 q 838 906 831 907 q 843 900 844 906 q 815 784 832 864 q 789 654 797 704 q 780 651 788 650 q 774 657 772 651 q 782 742 782 707 q 752 823 782 800 q 650 846 722 846 l 613 846 q 553 838 574 846 q 524 811 533 831 q 507 753 514 792 l 394 113 q 390 69 390 86 q 410 27 390 38 q 485 17 429 17 q 488 8 488 17 q 485 0 488 0 q 429 1 450 0 l 344 3 l 264 1 q 207 0 243 0 m 314 -257 q 273 -243 288 -257 q 258 -203 258 -229 q 273 -165 258 -179 q 314 -151 288 -151 q 354 -165 340 -151 q 368 -203 368 -179 q 354 -243 368 -229 q 314 -257 340 -257 z "},"Ṯ":{"ha":768,"x_min":107,"x_max":843,"o":"m 207 0 q 203 8 203 0 q 207 17 203 17 q 276 24 253 17 q 310 51 299 31 q 328 113 321 71 l 442 756 q 446 797 446 781 q 428 836 446 826 q 364 846 411 846 l 326 846 q 231 828 267 846 q 169 769 194 810 q 124 651 144 728 q 118 649 124 649 q 110 651 114 649 q 107 654 106 653 q 138 770 118 688 q 167 899 158 853 q 176 902 168 903 q 183 897 185 901 q 238 868 179 868 q 492 864 340 864 q 649 867 563 864 l 736 868 q 799 875 778 868 q 828 903 819 882 q 838 906 831 907 q 843 900 844 906 q 815 784 832 864 q 789 654 797 704 q 780 651 788 650 q 774 657 772 651 q 782 742 782 707 q 752 823 782 800 q 650 846 722 846 l 613 846 q 553 838 574 846 q 524 811 533 831 q 507 753 514 792 l 394 113 q 390 69 390 86 q 410 27 390 38 q 485 17 429 17 q 488 8 488 17 q 485 0 488 0 q 429 1 450 0 l 344 3 l 264 1 q 207 0 243 0 m 168 -161 q 161 -143 161 -161 q 168 -125 161 -125 l 501 -125 q 506 -131 504 -125 q 508 -143 508 -136 q 501 -161 508 -161 l 168 -161 z "},"U":{"ha":858,"x_min":122,"x_max":938,"o":"m 783 725 q 788 767 788 749 q 766 831 788 810 q 700 851 744 851 q 694 860 694 851 q 700 868 694 868 l 754 867 q 821 864 796 864 q 883 867 844 864 l 932 868 q 938 860 938 868 q 932 851 938 851 q 851 819 881 851 q 808 721 821 788 l 739 324 q 614 72 710 161 q 382 -18 518 -18 q 199 48 264 -18 q 133 231 133 114 q 142 314 133 271 l 219 757 q 224 799 224 782 q 203 841 224 831 q 126 851 183 851 q 122 860 122 851 q 126 868 122 868 l 189 867 q 269 864 239 864 q 360 867 307 864 l 414 868 q 419 860 419 868 q 414 851 419 851 q 340 843 365 851 q 303 814 315 835 q 285 750 292 793 l 214 358 q 204 257 204 306 q 259 82 204 142 q 411 22 314 22 q 607 103 526 22 q 711 325 688 185 l 783 725 z "},"Ú":{"ha":858,"x_min":122,"x_max":938,"o":"m 783 725 q 788 767 788 749 q 766 831 788 810 q 700 851 744 851 q 694 860 694 851 q 700 868 694 868 l 754 867 q 821 864 796 864 q 883 867 844 864 l 932 868 q 938 860 938 868 q 932 851 938 851 q 851 819 881 851 q 808 721 821 788 l 739 324 q 614 72 710 161 q 382 -18 518 -18 q 199 48 264 -18 q 133 231 133 114 q 142 314 133 271 l 219 757 q 224 799 224 782 q 203 841 224 831 q 126 851 183 851 q 122 860 122 851 q 126 868 122 868 l 189 867 q 269 864 239 864 q 360 867 307 864 l 414 868 q 419 860 419 868 q 414 851 419 851 q 340 843 365 851 q 303 814 315 835 q 285 750 292 793 l 214 358 q 204 257 204 306 q 259 82 204 142 q 411 22 314 22 q 607 103 526 22 q 711 325 688 185 l 783 725 m 422 942 q 415 948 417 942 q 417 957 413 954 q 575 1040 472 982 l 656 1085 q 684 1080 661 1088 q 724 1062 707 1072 q 732 1050 742 1051 q 424 942 568 1008 l 422 942 z "},"Ŭ":{"ha":858,"x_min":122,"x_max":938,"o":"m 783 725 q 788 767 788 749 q 766 831 788 810 q 700 851 744 851 q 694 860 694 851 q 700 868 694 868 l 754 867 q 821 864 796 864 q 883 867 844 864 l 932 868 q 938 860 938 868 q 932 851 938 851 q 851 819 881 851 q 808 721 821 788 l 739 324 q 614 72 710 161 q 382 -18 518 -18 q 199 48 264 -18 q 133 231 133 114 q 142 314 133 271 l 219 757 q 224 799 224 782 q 203 841 224 831 q 126 851 183 851 q 122 860 122 851 q 126 868 122 868 l 189 867 q 269 864 239 864 q 360 867 307 864 l 414 868 q 419 860 419 868 q 414 851 419 851 q 340 843 365 851 q 303 814 315 835 q 285 750 292 793 l 214 358 q 204 257 204 306 q 259 82 204 142 q 411 22 314 22 q 607 103 526 22 q 711 325 688 185 l 783 725 m 571 925 q 481 960 511 925 q 451 1042 451 996 q 468 1057 451 1050 q 499 1064 485 1064 q 510 1060 510 1064 q 535 991 513 1017 q 599 965 558 965 q 654 986 631 965 q 700 1054 678 1007 q 708 1058 703 1058 q 719 1056 714 1058 q 722 1050 724 1053 q 658 956 693 988 q 571 925 622 925 z "},"Ǔ":{"ha":858,"x_min":122,"x_max":938,"o":"m 783 725 q 788 767 788 749 q 766 831 788 810 q 700 851 744 851 q 694 860 694 851 q 700 868 694 868 l 754 867 q 821 864 796 864 q 883 867 844 864 l 932 868 q 938 860 938 868 q 932 851 938 851 q 851 819 881 851 q 808 721 821 788 l 739 324 q 614 72 710 161 q 382 -18 518 -18 q 199 48 264 -18 q 133 231 133 114 q 142 314 133 271 l 219 757 q 224 799 224 782 q 203 841 224 831 q 126 851 183 851 q 122 860 122 851 q 126 868 122 868 l 189 867 q 269 864 239 864 q 360 867 307 864 l 414 868 q 419 860 419 868 q 414 851 419 851 q 340 843 365 851 q 303 814 315 835 q 285 750 292 793 l 214 358 q 204 257 204 306 q 259 82 204 142 q 411 22 314 22 q 607 103 526 22 q 711 325 688 185 l 783 725 m 456 1067 l 456 1068 q 460 1074 456 1071 q 465 1076 464 1078 l 579 990 l 717 1078 l 718 1078 q 726 1073 722 1078 q 725 1067 729 1068 l 581 938 q 567 932 575 932 q 554 938 560 932 l 456 1067 z "},"Û":{"ha":858,"x_min":122,"x_max":938,"o":"m 783 725 q 788 767 788 749 q 766 831 788 810 q 700 851 744 851 q 694 860 694 851 q 700 868 694 868 l 754 867 q 821 864 796 864 q 883 867 844 864 l 932 868 q 938 860 938 868 q 932 851 938 851 q 851 819 881 851 q 808 721 821 788 l 739 324 q 614 72 710 161 q 382 -18 518 -18 q 199 48 264 -18 q 133 231 133 114 q 142 314 133 271 l 219 757 q 224 799 224 782 q 203 841 224 831 q 126 851 183 851 q 122 860 122 851 q 126 868 122 868 l 189 867 q 269 864 239 864 q 360 867 307 864 l 414 868 q 419 860 419 868 q 414 851 419 851 q 340 843 365 851 q 303 814 315 835 q 285 750 292 793 l 214 358 q 204 257 204 306 q 259 82 204 142 q 411 22 314 22 q 607 103 526 22 q 711 325 688 185 l 783 725 m 443 917 q 436 920 439 917 q 436 926 433 924 l 582 1054 q 594 1061 586 1061 q 607 1054 603 1061 l 707 926 l 707 925 q 703 917 707 921 q 697 917 700 914 l 582 1003 l 444 917 l 443 917 z "},"Ü":{"ha":858,"x_min":122,"x_max":938,"o":"m 783 725 q 788 767 788 749 q 766 831 788 810 q 700 851 744 851 q 694 860 694 851 q 700 868 694 868 l 754 867 q 821 864 796 864 q 883 867 844 864 l 932 868 q 938 860 938 868 q 932 851 938 851 q 851 819 881 851 q 808 721 821 788 l 739 324 q 614 72 710 161 q 382 -18 518 -18 q 199 48 264 -18 q 133 231 133 114 q 142 314 133 271 l 219 757 q 224 799 224 782 q 203 841 224 831 q 126 851 183 851 q 122 860 122 851 q 126 868 122 868 l 189 867 q 269 864 239 864 q 360 867 307 864 l 414 868 q 419 860 419 868 q 414 851 419 851 q 340 843 365 851 q 303 814 315 835 q 285 750 292 793 l 214 358 q 204 257 204 306 q 259 82 204 142 q 411 22 314 22 q 607 103 526 22 q 711 325 688 185 l 783 725 m 471 1000 q 431 1014 446 1000 q 415 1053 415 1028 q 431 1092 415 1078 q 471 1106 446 1106 q 511 1092 497 1106 q 525 1053 525 1078 q 511 1014 525 1028 q 471 1000 497 1000 m 715 1000 q 674 1014 689 1000 q 660 1053 660 1028 q 674 1092 660 1078 q 715 1106 689 1106 q 754 1092 740 1106 q 768 1053 768 1078 q 754 1014 768 1028 q 715 1000 740 1000 z "},"Ǘ":{"ha":858,"x_min":122,"x_max":938,"o":"m 783 725 q 788 767 788 749 q 766 831 788 810 q 700 851 744 851 q 694 860 694 851 q 700 868 694 868 l 754 867 q 821 864 796 864 q 883 867 844 864 l 932 868 q 938 860 938 868 q 932 851 938 851 q 851 819 881 851 q 808 721 821 788 l 739 324 q 614 72 710 161 q 382 -18 518 -18 q 199 48 264 -18 q 133 231 133 114 q 142 314 133 271 l 219 757 q 224 799 224 782 q 203 841 224 831 q 126 851 183 851 q 122 860 122 851 q 126 868 122 868 l 189 867 q 269 864 239 864 q 360 867 307 864 l 414 868 q 419 860 419 868 q 414 851 419 851 q 340 843 365 851 q 303 814 315 835 q 285 750 292 793 l 214 358 q 204 257 204 306 q 259 82 204 142 q 411 22 314 22 q 607 103 526 22 q 711 325 688 185 l 783 725 m 488 968 q 448 982 463 968 q 433 1021 433 996 q 448 1060 433 1046 q 488 1074 463 1074 q 528 1060 514 1074 q 542 1021 542 1046 q 528 982 542 996 q 488 968 514 968 m 694 968 q 653 982 668 968 q 639 1021 639 996 q 653 1060 639 1046 q 694 1074 668 1074 q 735 1060 721 1074 q 749 1021 749 1046 q 735 982 749 996 q 694 968 721 968 m 469 1104 q 463 1110 464 1104 q 465 1119 461 1117 q 635 1210 529 1149 l 704 1249 q 733 1243 710 1251 q 773 1224 756 1235 q 781 1213 790 1214 q 623 1166 694 1192 q 472 1106 551 1140 l 469 1104 z "},"Ǚ":{"ha":858,"x_min":122,"x_max":938,"o":"m 783 725 q 788 767 788 749 q 766 831 788 810 q 700 851 744 851 q 694 860 694 851 q 700 868 694 868 l 754 867 q 821 864 796 864 q 883 867 844 864 l 932 868 q 938 860 938 868 q 932 851 938 851 q 851 819 881 851 q 808 721 821 788 l 739 324 q 614 72 710 161 q 382 -18 518 -18 q 199 48 264 -18 q 133 231 133 114 q 142 314 133 271 l 219 757 q 224 799 224 782 q 203 841 224 831 q 126 851 183 851 q 122 860 122 851 q 126 868 122 868 l 189 867 q 269 864 239 864 q 360 867 307 864 l 414 868 q 419 860 419 868 q 414 851 419 851 q 340 843 365 851 q 303 814 315 835 q 285 750 292 793 l 214 358 q 204 257 204 306 q 259 82 204 142 q 411 22 314 22 q 607 103 526 22 q 711 325 688 185 l 783 725 m 488 968 q 448 982 463 968 q 433 1021 433 996 q 448 1060 433 1046 q 488 1074 463 1074 q 528 1060 514 1074 q 542 1021 542 1046 q 528 982 542 996 q 488 968 514 968 m 694 968 q 653 982 668 968 q 639 1021 639 996 q 653 1060 639 1046 q 694 1074 668 1074 q 735 1060 721 1074 q 749 1021 749 1046 q 735 982 749 996 q 694 968 721 968 m 483 1096 q 476 1099 481 1094 q 475 1106 472 1103 l 621 1233 q 633 1240 628 1240 q 646 1233 642 1240 l 746 1106 l 746 1104 q 742 1097 746 1100 q 736 1096 739 1093 l 621 1182 l 483 1096 z "},"Ǜ":{"ha":858,"x_min":122,"x_max":938,"o":"m 783 725 q 788 767 788 749 q 766 831 788 810 q 700 851 744 851 q 694 860 694 851 q 700 868 694 868 l 754 867 q 821 864 796 864 q 883 867 844 864 l 932 868 q 938 860 938 868 q 932 851 938 851 q 851 819 881 851 q 808 721 821 788 l 739 324 q 614 72 710 161 q 382 -18 518 -18 q 199 48 264 -18 q 133 231 133 114 q 142 314 133 271 l 219 757 q 224 799 224 782 q 203 841 224 831 q 126 851 183 851 q 122 860 122 851 q 126 868 122 868 l 189 867 q 269 864 239 864 q 360 867 307 864 l 414 868 q 419 860 419 868 q 414 851 419 851 q 340 843 365 851 q 303 814 315 835 q 285 750 292 793 l 214 358 q 204 257 204 306 q 259 82 204 142 q 411 22 314 22 q 607 103 526 22 q 711 325 688 185 l 783 725 m 488 968 q 448 982 463 968 q 433 1021 433 996 q 448 1060 433 1046 q 488 1074 463 1074 q 528 1060 514 1074 q 542 1021 542 1046 q 528 982 542 996 q 488 968 514 968 m 694 968 q 653 982 668 968 q 639 1021 639 996 q 653 1060 639 1046 q 694 1074 668 1074 q 735 1060 721 1074 q 749 1021 749 1046 q 735 982 749 996 q 694 968 721 968 m 726 1097 q 468 1204 601 1165 q 479 1216 458 1206 q 527 1235 500 1226 q 560 1240 554 1243 q 593 1214 582 1224 q 735 1111 683 1144 q 738 1107 738 1108 q 734 1099 738 1103 q 726 1097 731 1096 z "},"Ǖ":{"ha":858,"x_min":122,"x_max":938,"o":"m 783 725 q 788 767 788 749 q 766 831 788 810 q 700 851 744 851 q 694 860 694 851 q 700 868 694 868 l 754 867 q 821 864 796 864 q 883 867 844 864 l 932 868 q 938 860 938 868 q 932 851 938 851 q 851 819 881 851 q 808 721 821 788 l 739 324 q 614 72 710 161 q 382 -18 518 -18 q 199 48 264 -18 q 133 231 133 114 q 142 314 133 271 l 219 757 q 224 799 224 782 q 203 841 224 831 q 126 851 183 851 q 122 860 122 851 q 126 868 122 868 l 189 867 q 269 864 239 864 q 360 867 307 864 l 414 868 q 419 860 419 868 q 414 851 419 851 q 340 843 365 851 q 303 814 315 835 q 285 750 292 793 l 214 358 q 204 257 204 306 q 259 82 204 142 q 411 22 314 22 q 607 103 526 22 q 711 325 688 185 l 783 725 m 474 968 q 434 982 449 968 q 419 1021 419 996 q 434 1060 419 1046 q 474 1074 449 1074 q 514 1060 500 1074 q 528 1021 528 1046 q 514 982 528 996 q 474 968 500 968 m 681 968 q 640 982 654 968 q 625 1021 625 996 q 640 1060 625 1046 q 681 1074 654 1074 q 721 1060 707 1074 q 735 1021 735 1046 q 721 982 735 996 q 681 968 707 968 m 428 1129 q 423 1135 425 1129 q 421 1147 421 1140 q 428 1165 421 1165 l 761 1165 q 768 1147 768 1165 q 761 1129 768 1129 l 428 1129 z "},"Ụ":{"ha":858,"x_min":122,"x_max":938,"o":"m 783 725 q 788 767 788 749 q 766 831 788 810 q 700 851 744 851 q 694 860 694 851 q 700 868 694 868 l 754 867 q 821 864 796 864 q 883 867 844 864 l 932 868 q 938 860 938 868 q 932 851 938 851 q 851 819 881 851 q 808 721 821 788 l 739 324 q 614 72 710 161 q 382 -18 518 -18 q 199 48 264 -18 q 133 231 133 114 q 142 314 133 271 l 219 757 q 224 799 224 782 q 203 841 224 831 q 126 851 183 851 q 122 860 122 851 q 126 868 122 868 l 189 867 q 269 864 239 864 q 360 867 307 864 l 414 868 q 419 860 419 868 q 414 851 419 851 q 340 843 365 851 q 303 814 315 835 q 285 750 292 793 l 214 358 q 204 257 204 306 q 259 82 204 142 q 411 22 314 22 q 607 103 526 22 q 711 325 688 185 l 783 725 m 354 -257 q 313 -243 328 -257 q 299 -203 299 -229 q 313 -165 299 -179 q 354 -151 328 -151 q 394 -165 381 -151 q 408 -203 408 -179 q 394 -243 408 -229 q 354 -257 381 -257 z "},"Ù":{"ha":858,"x_min":122,"x_max":938,"o":"m 783 725 q 788 767 788 749 q 766 831 788 810 q 700 851 744 851 q 694 860 694 851 q 700 868 694 868 l 754 867 q 821 864 796 864 q 883 867 844 864 l 932 868 q 938 860 938 868 q 932 851 938 851 q 851 819 881 851 q 808 721 821 788 l 739 324 q 614 72 710 161 q 382 -18 518 -18 q 199 48 264 -18 q 133 231 133 114 q 142 314 133 271 l 219 757 q 224 799 224 782 q 203 841 224 831 q 126 851 183 851 q 122 860 122 851 q 126 868 122 868 l 189 867 q 269 864 239 864 q 360 867 307 864 l 414 868 q 419 860 419 868 q 414 851 419 851 q 340 843 365 851 q 303 814 315 835 q 285 750 292 793 l 214 358 q 204 257 204 306 q 259 82 204 142 q 411 22 314 22 q 607 103 526 22 q 711 325 688 185 l 783 725 m 696 943 q 386 1050 539 1013 q 394 1062 376 1051 q 434 1081 411 1072 q 463 1086 457 1089 q 580 1019 518 1054 q 701 957 642 985 q 704 951 704 956 q 701 944 704 947 q 696 943 699 942 z "},"Ủ":{"ha":858,"x_min":122,"x_max":938,"o":"m 783 725 q 788 767 788 749 q 766 831 788 810 q 700 851 744 851 q 694 860 694 851 q 700 868 694 868 l 754 867 q 821 864 796 864 q 883 867 844 864 l 932 868 q 938 860 938 868 q 932 851 938 851 q 851 819 881 851 q 808 721 821 788 l 739 324 q 614 72 710 161 q 382 -18 518 -18 q 199 48 264 -18 q 133 231 133 114 q 142 314 133 271 l 219 757 q 224 799 224 782 q 203 841 224 831 q 126 851 183 851 q 122 860 122 851 q 126 868 122 868 l 189 867 q 269 864 239 864 q 360 867 307 864 l 414 868 q 419 860 419 868 q 414 851 419 851 q 340 843 365 851 q 303 814 315 835 q 285 750 292 793 l 214 358 q 204 257 204 306 q 259 82 204 142 q 411 22 314 22 q 607 103 526 22 q 711 325 688 185 l 783 725 m 572 901 q 565 899 574 899 q 556 901 557 899 q 564 955 551 932 q 603 1008 576 978 q 635 1051 625 1035 q 644 1088 644 1067 q 629 1122 644 1110 q 590 1133 614 1133 q 553 1126 571 1133 l 550 1125 q 543 1130 546 1125 q 546 1138 540 1135 q 635 1163 590 1163 q 690 1146 671 1163 q 710 1104 710 1129 q 692 1053 710 1075 q 639 1001 674 1031 q 586 949 603 971 q 572 901 569 928 z "},"Ư":{"ha":856,"x_min":121,"x_max":1024,"o":"m 738 324 q 613 72 708 161 q 381 -18 517 -18 q 197 48 261 -18 q 132 231 132 114 q 140 314 132 271 l 218 757 q 222 799 222 782 q 202 841 222 831 q 125 851 182 851 q 121 857 121 851 q 122 864 121 861 q 125 868 124 867 l 186 867 q 268 864 236 864 q 357 867 304 864 l 413 868 q 417 863 417 868 q 415 856 417 858 q 413 851 414 853 q 339 843 364 851 q 302 814 314 835 q 283 750 290 793 l 213 358 q 203 257 203 306 q 257 82 203 142 q 408 22 311 22 q 606 103 525 22 q 710 325 686 185 l 782 725 q 786 765 786 749 q 765 831 786 810 q 699 851 743 851 q 694 857 694 851 q 696 864 694 861 q 699 868 697 867 l 753 867 q 818 864 794 864 q 906 880 878 864 q 942 935 935 896 q 943 947 943 939 q 937 969 943 957 q 931 992 931 981 q 949 1031 931 1017 q 986 1046 967 1046 q 1015 1032 1006 1046 q 1024 996 1024 1018 q 988 914 1024 950 q 894 853 951 878 q 843 816 867 843 q 807 721 819 789 l 738 324 z "},"Ứ":{"ha":856,"x_min":121,"x_max":1024,"o":"m 738 324 q 613 72 708 161 q 381 -18 517 -18 q 197 48 261 -18 q 132 231 132 114 q 140 314 132 271 l 218 757 q 222 799 222 782 q 202 841 222 831 q 125 851 182 851 q 121 857 121 851 q 122 864 121 861 q 125 868 124 867 l 186 867 q 268 864 236 864 q 357 867 304 864 l 413 868 q 417 863 417 868 q 415 856 417 858 q 413 851 414 853 q 339 843 364 851 q 302 814 314 835 q 283 750 290 793 l 213 358 q 203 257 203 306 q 257 82 203 142 q 408 22 311 22 q 606 103 525 22 q 710 325 686 185 l 782 725 q 786 765 786 749 q 765 831 786 810 q 699 851 743 851 q 694 857 694 851 q 696 864 694 861 q 699 868 697 867 l 753 867 q 818 864 794 864 q 906 880 878 864 q 942 935 935 896 q 943 947 943 939 q 937 969 943 957 q 931 992 931 981 q 949 1031 931 1017 q 986 1046 967 1046 q 1015 1032 1006 1046 q 1024 996 1024 1018 q 988 914 1024 950 q 894 853 951 878 q 843 816 867 843 q 807 721 819 789 l 738 324 m 422 942 q 415 948 417 942 q 417 957 413 954 q 575 1040 472 982 l 656 1085 q 684 1080 661 1088 q 724 1062 707 1072 q 732 1050 742 1051 q 424 942 568 1008 l 422 942 z "},"Ự":{"ha":856,"x_min":121,"x_max":1024,"o":"m 738 324 q 613 72 708 161 q 381 -18 517 -18 q 197 48 261 -18 q 132 231 132 114 q 140 314 132 271 l 218 757 q 222 799 222 782 q 202 841 222 831 q 125 851 182 851 q 121 857 121 851 q 122 864 121 861 q 125 868 124 867 l 186 867 q 268 864 236 864 q 357 867 304 864 l 413 868 q 417 863 417 868 q 415 856 417 858 q 413 851 414 853 q 339 843 364 851 q 302 814 314 835 q 283 750 290 793 l 213 358 q 203 257 203 306 q 257 82 203 142 q 408 22 311 22 q 606 103 525 22 q 710 325 686 185 l 782 725 q 786 765 786 749 q 765 831 786 810 q 699 851 743 851 q 694 857 694 851 q 696 864 694 861 q 699 868 697 867 l 753 867 q 818 864 794 864 q 906 880 878 864 q 942 935 935 896 q 943 947 943 939 q 937 969 943 957 q 931 992 931 981 q 949 1031 931 1017 q 986 1046 967 1046 q 1015 1032 1006 1046 q 1024 996 1024 1018 q 988 914 1024 950 q 894 853 951 878 q 843 816 867 843 q 807 721 819 789 l 738 324 m 331 -257 q 290 -243 304 -257 q 275 -203 275 -229 q 290 -165 275 -179 q 331 -151 304 -151 q 371 -165 357 -151 q 385 -203 385 -179 q 371 -243 385 -229 q 331 -257 357 -257 z "},"Ừ":{"ha":856,"x_min":121,"x_max":1024,"o":"m 738 324 q 613 72 708 161 q 381 -18 517 -18 q 197 48 261 -18 q 132 231 132 114 q 140 314 132 271 l 218 757 q 222 799 222 782 q 202 841 222 831 q 125 851 182 851 q 121 857 121 851 q 122 864 121 861 q 125 868 124 867 l 186 867 q 268 864 236 864 q 357 867 304 864 l 413 868 q 417 863 417 868 q 415 856 417 858 q 413 851 414 853 q 339 843 364 851 q 302 814 314 835 q 283 750 290 793 l 213 358 q 203 257 203 306 q 257 82 203 142 q 408 22 311 22 q 606 103 525 22 q 710 325 686 185 l 782 725 q 786 765 786 749 q 765 831 786 810 q 699 851 743 851 q 694 857 694 851 q 696 864 694 861 q 699 868 697 867 l 753 867 q 818 864 794 864 q 906 880 878 864 q 942 935 935 896 q 943 947 943 939 q 937 969 943 957 q 931 992 931 981 q 949 1031 931 1017 q 986 1046 967 1046 q 1015 1032 1006 1046 q 1024 996 1024 1018 q 988 914 1024 950 q 894 853 951 878 q 843 816 867 843 q 807 721 819 789 l 738 324 m 696 943 q 386 1050 539 1013 q 394 1062 376 1051 q 434 1081 411 1072 q 463 1086 457 1089 q 580 1019 518 1054 q 701 957 642 985 q 704 951 704 956 q 701 944 704 947 q 696 943 699 942 z "},"Ử":{"ha":856,"x_min":121,"x_max":1024,"o":"m 738 324 q 613 72 708 161 q 381 -18 517 -18 q 197 48 261 -18 q 132 231 132 114 q 140 314 132 271 l 218 757 q 222 799 222 782 q 202 841 222 831 q 125 851 182 851 q 121 857 121 851 q 122 864 121 861 q 125 868 124 867 l 186 867 q 268 864 236 864 q 357 867 304 864 l 413 868 q 417 863 417 868 q 415 856 417 858 q 413 851 414 853 q 339 843 364 851 q 302 814 314 835 q 283 750 290 793 l 213 358 q 203 257 203 306 q 257 82 203 142 q 408 22 311 22 q 606 103 525 22 q 710 325 686 185 l 782 725 q 786 765 786 749 q 765 831 786 810 q 699 851 743 851 q 694 857 694 851 q 696 864 694 861 q 699 868 697 867 l 753 867 q 818 864 794 864 q 906 880 878 864 q 942 935 935 896 q 943 947 943 939 q 937 969 943 957 q 931 992 931 981 q 949 1031 931 1017 q 986 1046 967 1046 q 1015 1032 1006 1046 q 1024 996 1024 1018 q 988 914 1024 950 q 894 853 951 878 q 843 816 867 843 q 807 721 819 789 l 738 324 m 572 901 q 565 899 574 899 q 556 901 557 899 q 564 955 551 932 q 603 1008 576 978 q 635 1051 625 1035 q 644 1088 644 1067 q 629 1122 644 1110 q 590 1133 614 1133 q 553 1126 571 1133 l 550 1125 q 543 1130 546 1125 q 546 1138 540 1135 q 635 1163 590 1163 q 690 1146 671 1163 q 710 1104 710 1129 q 692 1053 710 1075 q 639 1001 674 1031 q 586 949 603 971 q 572 901 569 928 z "},"Ữ":{"ha":856,"x_min":121,"x_max":1024,"o":"m 738 324 q 613 72 708 161 q 381 -18 517 -18 q 197 48 261 -18 q 132 231 132 114 q 140 314 132 271 l 218 757 q 222 799 222 782 q 202 841 222 831 q 125 851 182 851 q 121 857 121 851 q 122 864 121 861 q 125 868 124 867 l 186 867 q 268 864 236 864 q 357 867 304 864 l 413 868 q 417 863 417 868 q 415 856 417 858 q 413 851 414 853 q 339 843 364 851 q 302 814 314 835 q 283 750 290 793 l 213 358 q 203 257 203 306 q 257 82 203 142 q 408 22 311 22 q 606 103 525 22 q 710 325 686 185 l 782 725 q 786 765 786 749 q 765 831 786 810 q 699 851 743 851 q 694 857 694 851 q 696 864 694 861 q 699 868 697 867 l 753 867 q 818 864 794 864 q 906 880 878 864 q 942 935 935 896 q 943 947 943 939 q 937 969 943 957 q 931 992 931 981 q 949 1031 931 1017 q 986 1046 967 1046 q 1015 1032 1006 1046 q 1024 996 1024 1018 q 988 914 1024 950 q 894 853 951 878 q 843 816 867 843 q 807 721 819 789 l 738 324 m 411 1001 q 404 1005 407 1001 q 404 1011 401 1008 q 458 1066 426 1042 q 521 1090 489 1090 q 565 1084 540 1090 q 593 1076 589 1078 q 696 1057 654 1057 q 734 1067 719 1057 q 764 1094 749 1076 l 765 1094 q 773 1091 769 1094 q 774 1085 776 1088 q 714 1021 738 1038 q 665 1004 690 1004 q 622 1009 644 1004 q 578 1021 600 1014 q 531 1033 556 1028 q 482 1039 506 1039 q 448 1031 460 1039 q 427 1015 436 1024 q 414 1001 418 1006 l 411 1001 z "},"Ű":{"ha":858,"x_min":122,"x_max":938,"o":"m 783 725 q 788 767 788 749 q 766 831 788 810 q 700 851 744 851 q 694 860 694 851 q 700 868 694 868 l 754 867 q 821 864 796 864 q 883 867 844 864 l 932 868 q 938 860 938 868 q 932 851 938 851 q 851 819 881 851 q 808 721 821 788 l 739 324 q 614 72 710 161 q 382 -18 518 -18 q 199 48 264 -18 q 133 231 133 114 q 142 314 133 271 l 219 757 q 224 799 224 782 q 203 841 224 831 q 126 851 183 851 q 122 860 122 851 q 126 868 122 868 l 189 867 q 269 864 239 864 q 360 867 307 864 l 414 868 q 419 860 419 868 q 414 851 419 851 q 340 843 365 851 q 303 814 315 835 q 285 750 292 793 l 214 358 q 204 257 204 306 q 259 82 204 142 q 411 22 314 22 q 607 103 526 22 q 711 325 688 185 l 783 725 m 450 925 q 443 931 444 925 q 446 940 442 938 l 604 1093 q 633 1090 610 1096 q 673 1076 656 1085 q 681 1065 690 1068 q 563 1004 615 1038 q 453 926 510 971 l 450 925 m 613 925 q 606 931 607 925 q 608 940 604 938 l 767 1093 q 795 1090 772 1096 q 835 1076 818 1085 q 843 1065 853 1068 q 725 1004 778 1038 q 615 926 672 971 l 613 925 z "},"Ū":{"ha":858,"x_min":122,"x_max":938,"o":"m 783 725 q 788 767 788 749 q 766 831 788 810 q 700 851 744 851 q 694 860 694 851 q 700 868 694 868 l 754 867 q 821 864 796 864 q 883 867 844 864 l 932 868 q 938 860 938 868 q 932 851 938 851 q 851 819 881 851 q 808 721 821 788 l 739 324 q 614 72 710 161 q 382 -18 518 -18 q 199 48 264 -18 q 133 231 133 114 q 142 314 133 271 l 219 757 q 224 799 224 782 q 203 841 224 831 q 126 851 183 851 q 122 860 122 851 q 126 868 122 868 l 189 867 q 269 864 239 864 q 360 867 307 864 l 414 868 q 419 860 419 868 q 414 851 419 851 q 340 843 365 851 q 303 814 315 835 q 285 750 292 793 l 214 358 q 204 257 204 306 q 259 82 204 142 q 411 22 314 22 q 607 103 526 22 q 711 325 688 185 l 783 725 m 383 990 q 376 1008 376 990 q 383 1025 376 1025 l 732 1025 q 737 1019 735 1025 q 739 1008 739 1014 q 732 990 739 990 l 383 990 z "},"Ų":{"ha":858,"x_min":122,"x_max":938,"o":"m 932 868 q 938 860 938 868 q 932 851 938 851 q 851 819 881 851 q 808 721 821 788 l 739 324 q 638 96 714 183 q 450 -12 561 8 q 318 -207 332 -121 q 314 -249 314 -231 q 337 -319 314 -294 q 404 -343 360 -343 q 447 -334 431 -343 q 490 -306 464 -325 l 492 -306 q 499 -310 496 -306 q 500 -318 503 -315 q 361 -381 429 -381 q 284 -353 311 -381 q 257 -278 257 -326 q 260 -247 257 -269 q 422 -15 275 -154 q 382 -18 397 -18 q 199 48 264 -18 q 133 231 133 114 q 142 314 133 271 l 219 757 q 224 799 224 782 q 203 841 224 831 q 126 851 183 851 q 122 860 122 851 q 126 868 122 868 l 189 867 q 269 864 239 864 q 360 867 307 864 l 414 868 q 419 860 419 868 q 414 851 419 851 q 340 843 365 851 q 303 814 315 835 q 285 750 292 793 l 214 358 q 204 257 204 306 q 259 82 204 142 q 411 22 314 22 q 607 103 526 22 q 711 325 688 185 l 783 725 q 788 767 788 749 q 766 831 788 810 q 700 851 744 851 q 694 860 694 851 q 700 868 694 868 l 754 867 q 821 864 796 864 q 883 867 844 864 l 932 868 z "},"Ů":{"ha":858,"x_min":122,"x_max":938,"o":"m 783 725 q 788 767 788 749 q 766 831 788 810 q 700 851 744 851 q 694 860 694 851 q 700 868 694 868 l 754 867 q 821 864 796 864 q 883 867 844 864 l 932 868 q 938 860 938 868 q 932 851 938 851 q 851 819 881 851 q 808 721 821 788 l 739 324 q 614 72 710 161 q 382 -18 518 -18 q 199 48 264 -18 q 133 231 133 114 q 142 314 133 271 l 219 757 q 224 799 224 782 q 203 841 224 831 q 126 851 183 851 q 122 860 122 851 q 126 868 122 868 l 189 867 q 269 864 239 864 q 360 867 307 864 l 414 868 q 419 860 419 868 q 414 851 419 851 q 340 843 365 851 q 303 814 315 835 q 285 750 292 793 l 214 358 q 204 257 204 306 q 259 82 204 142 q 411 22 314 22 q 607 103 526 22 q 711 325 688 185 l 783 725 m 569 936 q 497 969 524 936 q 471 1047 471 1001 q 506 1126 471 1097 q 582 1154 540 1154 q 653 1122 624 1154 q 682 1043 682 1090 q 648 965 682 994 q 569 936 614 936 m 590 949 q 633 1019 633 949 q 610 1104 633 1068 q 556 1140 586 1140 q 518 1075 518 1140 q 539 988 518 1028 q 590 949 560 949 z "},"Ũ":{"ha":858,"x_min":122,"x_max":938,"o":"m 783 725 q 788 767 788 749 q 766 831 788 810 q 700 851 744 851 q 694 860 694 851 q 700 868 694 868 l 754 867 q 821 864 796 864 q 883 867 844 864 l 932 868 q 938 860 938 868 q 932 851 938 851 q 851 819 881 851 q 808 721 821 788 l 739 324 q 614 72 710 161 q 382 -18 518 -18 q 199 48 264 -18 q 133 231 133 114 q 142 314 133 271 l 219 757 q 224 799 224 782 q 203 841 224 831 q 126 851 183 851 q 122 860 122 851 q 126 868 122 868 l 189 867 q 269 864 239 864 q 360 867 307 864 l 414 868 q 419 860 419 868 q 414 851 419 851 q 340 843 365 851 q 303 814 315 835 q 285 750 292 793 l 214 358 q 204 257 204 306 q 259 82 204 142 q 411 22 314 22 q 607 103 526 22 q 711 325 688 185 l 783 725 m 411 1001 q 404 1005 407 1001 q 404 1011 401 1008 q 458 1066 426 1042 q 521 1090 489 1090 q 565 1084 540 1090 q 593 1076 589 1078 q 696 1057 654 1057 q 734 1067 719 1057 q 764 1094 749 1076 l 765 1094 q 773 1091 769 1094 q 774 1085 776 1088 q 714 1021 738 1038 q 665 1004 690 1004 q 622 1009 644 1004 q 578 1021 600 1014 q 531 1033 556 1028 q 482 1039 506 1039 q 448 1031 460 1039 q 427 1015 436 1024 q 414 1001 418 1006 l 411 1001 z "},"V":{"ha":821,"x_min":114,"x_max":915,"o":"m 910 868 q 915 860 915 868 q 910 851 915 851 q 840 831 871 851 q 779 756 808 811 l 389 1 q 374 -4 385 -4 q 361 1 363 -4 l 203 753 q 173 829 193 807 q 117 851 153 851 q 114 860 114 851 q 117 868 114 868 l 165 867 q 217 864 201 864 q 299 867 251 864 l 349 868 q 354 860 354 868 q 349 851 354 851 q 288 839 308 851 q 267 794 267 826 q 269 767 267 776 l 414 106 l 756 764 q 772 813 772 800 q 752 842 772 833 q 688 851 732 851 q 683 860 683 851 q 688 868 683 868 l 732 867 q 804 864 774 864 q 860 867 826 864 l 910 868 z "},"W":{"ha":1140,"x_min":113,"x_max":1233,"o":"m 1228 868 q 1233 860 1233 868 q 1228 851 1233 851 q 1157 831 1188 851 q 1099 756 1126 811 l 706 1 q 692 -4 704 -4 q 679 1 681 -4 l 594 399 l 389 1 q 374 -4 385 -4 q 361 1 363 -4 l 203 753 q 173 829 193 807 q 117 851 153 851 q 113 860 113 851 q 117 868 113 868 l 165 867 q 217 864 201 864 q 299 867 251 864 l 349 868 q 354 860 354 868 q 349 851 354 851 q 288 839 308 851 q 267 794 267 826 q 269 767 267 776 l 415 97 l 588 433 l 519 753 q 490 830 508 808 q 433 851 471 851 q 429 860 429 851 q 433 868 429 868 l 483 867 q 535 864 517 864 q 592 867 561 864 l 625 868 q 632 860 632 868 q 625 851 632 851 q 589 846 599 851 q 579 822 579 840 q 588 767 579 804 l 640 521 l 765 764 q 786 822 786 804 q 736 851 786 851 q 731 860 731 851 q 736 868 731 868 l 767 867 q 813 864 792 864 q 867 867 836 864 l 918 868 q 922 860 922 868 q 918 851 922 851 q 847 831 878 851 q 788 756 815 811 l 649 486 l 732 97 l 1075 764 q 1092 813 1092 796 q 1071 842 1092 833 q 1004 851 1050 851 q 999 860 999 851 q 1004 868 999 868 l 1053 867 q 1122 864 1092 864 q 1178 867 1144 864 l 1228 868 z "},"Ẃ":{"ha":1140,"x_min":113,"x_max":1233,"o":"m 1228 868 q 1233 860 1233 868 q 1228 851 1233 851 q 1157 831 1188 851 q 1099 756 1126 811 l 706 1 q 692 -4 704 -4 q 679 1 681 -4 l 594 399 l 389 1 q 374 -4 385 -4 q 361 1 363 -4 l 203 753 q 173 829 193 807 q 117 851 153 851 q 113 860 113 851 q 117 868 113 868 l 165 867 q 217 864 201 864 q 299 867 251 864 l 349 868 q 354 860 354 868 q 349 851 354 851 q 288 839 308 851 q 267 794 267 826 q 269 767 267 776 l 415 97 l 588 433 l 519 753 q 490 830 508 808 q 433 851 471 851 q 429 860 429 851 q 433 868 429 868 l 483 867 q 535 864 517 864 q 592 867 561 864 l 625 868 q 632 860 632 868 q 625 851 632 851 q 589 846 599 851 q 579 822 579 840 q 588 767 579 804 l 640 521 l 765 764 q 786 822 786 804 q 736 851 786 851 q 731 860 731 851 q 736 868 731 868 l 767 867 q 813 864 792 864 q 867 867 836 864 l 918 868 q 922 860 922 868 q 918 851 922 851 q 847 831 878 851 q 788 756 815 811 l 649 486 l 732 97 l 1075 764 q 1092 813 1092 796 q 1071 842 1092 833 q 1004 851 1050 851 q 999 860 999 851 q 1004 868 999 868 l 1053 867 q 1122 864 1092 864 q 1178 867 1144 864 l 1228 868 m 610 942 q 603 948 604 942 q 606 957 601 954 q 775 1047 669 986 l 844 1086 q 873 1081 850 1089 q 913 1062 896 1072 q 921 1050 931 1051 q 763 1003 835 1029 q 613 943 692 978 l 610 942 z "},"Ŵ":{"ha":1140,"x_min":113,"x_max":1233,"o":"m 1228 868 q 1233 860 1233 868 q 1228 851 1233 851 q 1157 831 1188 851 q 1099 756 1126 811 l 706 1 q 692 -4 704 -4 q 679 1 681 -4 l 594 399 l 389 1 q 374 -4 385 -4 q 361 1 363 -4 l 203 753 q 173 829 193 807 q 117 851 153 851 q 113 860 113 851 q 117 868 113 868 l 165 867 q 217 864 201 864 q 299 867 251 864 l 349 868 q 354 860 354 868 q 349 851 354 851 q 288 839 308 851 q 267 794 267 826 q 269 767 267 776 l 415 97 l 588 433 l 519 753 q 490 830 508 808 q 433 851 471 851 q 429 860 429 851 q 433 868 429 868 l 483 867 q 535 864 517 864 q 592 867 561 864 l 625 868 q 632 860 632 868 q 625 851 632 851 q 589 846 599 851 q 579 822 579 840 q 588 767 579 804 l 640 521 l 765 764 q 786 822 786 804 q 736 851 786 851 q 731 860 731 851 q 736 868 731 868 l 767 867 q 813 864 792 864 q 867 867 836 864 l 918 868 q 922 860 922 868 q 918 851 922 851 q 847 831 878 851 q 788 756 815 811 l 649 486 l 732 97 l 1075 764 q 1092 813 1092 796 q 1071 842 1092 833 q 1004 851 1050 851 q 999 860 999 851 q 1004 868 999 868 l 1053 867 q 1122 864 1092 864 q 1178 867 1144 864 l 1228 868 m 567 917 q 560 920 563 917 q 560 926 557 924 l 706 1054 q 718 1061 710 1061 q 731 1054 726 1061 l 831 926 l 831 925 q 827 917 831 921 q 821 917 824 914 l 706 1003 l 568 917 l 567 917 z "},"Ẅ":{"ha":1140,"x_min":113,"x_max":1233,"o":"m 1228 868 q 1233 860 1233 868 q 1228 851 1233 851 q 1157 831 1188 851 q 1099 756 1126 811 l 706 1 q 692 -4 704 -4 q 679 1 681 -4 l 594 399 l 389 1 q 374 -4 385 -4 q 361 1 363 -4 l 203 753 q 173 829 193 807 q 117 851 153 851 q 113 860 113 851 q 117 868 113 868 l 165 867 q 217 864 201 864 q 299 867 251 864 l 349 868 q 354 860 354 868 q 349 851 354 851 q 288 839 308 851 q 267 794 267 826 q 269 767 267 776 l 415 97 l 588 433 l 519 753 q 490 830 508 808 q 433 851 471 851 q 429 860 429 851 q 433 868 429 868 l 483 867 q 535 864 517 864 q 592 867 561 864 l 625 868 q 632 860 632 868 q 625 851 632 851 q 589 846 599 851 q 579 822 579 840 q 588 767 579 804 l 640 521 l 765 764 q 786 822 786 804 q 736 851 786 851 q 731 860 731 851 q 736 868 731 868 l 767 867 q 813 864 792 864 q 867 867 836 864 l 918 868 q 922 860 922 868 q 918 851 922 851 q 847 831 878 851 q 788 756 815 811 l 649 486 l 732 97 l 1075 764 q 1092 813 1092 796 q 1071 842 1092 833 q 1004 851 1050 851 q 999 860 999 851 q 1004 868 999 868 l 1053 867 q 1122 864 1092 864 q 1178 867 1144 864 l 1228 868 m 611 1000 q 572 1014 586 1000 q 557 1053 557 1028 q 572 1092 557 1078 q 611 1106 586 1106 q 651 1092 638 1106 q 665 1053 665 1078 q 651 1014 665 1028 q 611 1000 638 1000 m 818 1000 q 777 1014 792 1000 q 763 1053 763 1028 q 777 1092 763 1078 q 818 1106 792 1106 q 858 1092 844 1106 q 872 1053 872 1078 q 858 1014 872 1028 q 818 1000 844 1000 z "},"Ẁ":{"ha":1140,"x_min":113,"x_max":1233,"o":"m 1228 868 q 1233 860 1233 868 q 1228 851 1233 851 q 1157 831 1188 851 q 1099 756 1126 811 l 706 1 q 692 -4 704 -4 q 679 1 681 -4 l 594 399 l 389 1 q 374 -4 385 -4 q 361 1 363 -4 l 203 753 q 173 829 193 807 q 117 851 153 851 q 113 860 113 851 q 117 868 113 868 l 165 867 q 217 864 201 864 q 299 867 251 864 l 349 868 q 354 860 354 868 q 349 851 354 851 q 288 839 308 851 q 267 794 267 826 q 269 767 267 776 l 415 97 l 588 433 l 519 753 q 490 830 508 808 q 433 851 471 851 q 429 860 429 851 q 433 868 429 868 l 483 867 q 535 864 517 864 q 592 867 561 864 l 625 868 q 632 860 632 868 q 625 851 632 851 q 589 846 599 851 q 579 822 579 840 q 588 767 579 804 l 640 521 l 765 764 q 786 822 786 804 q 736 851 786 851 q 731 860 731 851 q 736 868 731 868 l 767 867 q 813 864 792 864 q 867 867 836 864 l 918 868 q 922 860 922 868 q 918 851 922 851 q 847 831 878 851 q 788 756 815 811 l 649 486 l 732 97 l 1075 764 q 1092 813 1092 796 q 1071 842 1092 833 q 1004 851 1050 851 q 999 860 999 851 q 1004 868 999 868 l 1053 867 q 1122 864 1092 864 q 1178 867 1144 864 l 1228 868 m 810 943 q 551 1050 685 1011 q 563 1062 542 1051 q 610 1081 583 1072 q 643 1086 638 1089 q 676 1060 665 1069 q 818 957 767 990 q 821 953 821 954 q 817 945 821 949 q 810 943 814 942 z "},"X":{"ha":804,"x_min":-17,"x_max":861,"o":"m 854 868 q 861 860 861 868 q 854 851 861 851 q 674 726 776 851 l 465 464 l 600 115 q 649 39 619 61 q 731 17 679 17 q 736 8 736 17 q 731 0 736 0 q 682 1 700 0 l 617 3 l 526 1 q 468 0 504 0 q 463 8 463 0 q 468 17 463 17 q 523 24 506 17 q 540 47 540 31 q 535 71 540 51 l 406 403 l 190 128 q 151 51 151 78 q 213 17 151 17 q 218 8 218 17 q 213 0 218 0 q 161 1 178 0 l 81 3 l 33 1 q -11 0 19 0 q -17 8 -17 0 q -11 17 -17 17 q 74 45 29 17 q 163 128 119 74 l 397 425 l 271 753 q 224 829 250 807 q 154 851 197 851 q 149 860 149 851 q 154 868 149 868 l 197 867 q 240 864 228 864 q 340 867 282 864 l 401 868 q 407 860 407 868 q 401 851 407 851 q 347 844 364 851 q 331 821 331 838 q 336 796 331 808 l 457 483 l 646 728 q 690 815 690 785 q 632 851 690 851 q 626 860 626 851 q 632 868 626 868 l 683 867 q 764 864 725 864 q 811 867 783 864 l 854 868 z "},"Y":{"ha":732,"x_min":100,"x_max":838,"o":"m 832 868 q 838 860 838 868 q 832 851 838 851 q 651 726 744 851 l 431 428 l 375 113 q 369 68 369 76 q 390 27 369 38 q 463 17 410 17 q 468 8 468 17 q 463 0 468 0 q 407 1 426 0 l 326 3 l 242 1 q 188 0 222 0 q 182 8 182 0 q 188 17 182 17 q 257 24 233 17 q 292 51 281 32 q 310 113 303 71 l 363 418 l 221 753 q 172 829 197 807 q 106 851 147 851 q 100 860 100 851 q 106 868 100 868 l 147 867 q 192 864 178 864 q 286 867 228 864 l 351 868 q 354 863 354 868 q 352 855 354 858 q 347 851 350 851 q 295 844 311 851 q 279 822 279 838 q 286 796 279 813 l 428 454 l 624 728 q 664 814 664 785 q 607 851 664 851 q 603 860 603 851 q 607 868 603 868 l 661 867 q 739 864 706 864 q 788 867 760 864 l 832 868 z "},"Ý":{"ha":732,"x_min":100,"x_max":838,"o":"m 832 868 q 838 860 838 868 q 832 851 838 851 q 651 726 744 851 l 431 428 l 375 113 q 369 68 369 76 q 390 27 369 38 q 463 17 410 17 q 468 8 468 17 q 463 0 468 0 q 407 1 426 0 l 326 3 l 242 1 q 188 0 222 0 q 182 8 182 0 q 188 17 182 17 q 257 24 233 17 q 292 51 281 32 q 310 113 303 71 l 363 418 l 221 753 q 172 829 197 807 q 106 851 147 851 q 100 860 100 851 q 106 868 100 868 l 147 867 q 192 864 178 864 q 286 867 228 864 l 351 868 q 354 863 354 868 q 352 855 354 858 q 347 851 350 851 q 295 844 311 851 q 279 822 279 838 q 286 796 279 813 l 428 454 l 624 728 q 664 814 664 785 q 607 851 664 851 q 603 860 603 851 q 607 868 603 868 l 661 867 q 739 864 706 864 q 788 867 760 864 l 832 868 m 404 942 q 397 948 399 942 q 400 957 396 954 q 569 1047 464 986 l 639 1086 q 667 1081 644 1089 q 708 1062 690 1072 q 715 1050 725 1051 q 558 1003 629 1029 q 407 943 486 978 l 404 942 z "},"Ŷ":{"ha":732,"x_min":100,"x_max":838,"o":"m 832 868 q 838 860 838 868 q 832 851 838 851 q 651 726 744 851 l 431 428 l 375 113 q 369 68 369 76 q 390 27 369 38 q 463 17 410 17 q 468 8 468 17 q 463 0 468 0 q 407 1 426 0 l 326 3 l 242 1 q 188 0 222 0 q 182 8 182 0 q 188 17 182 17 q 257 24 233 17 q 292 51 281 32 q 310 113 303 71 l 363 418 l 221 753 q 172 829 197 807 q 106 851 147 851 q 100 860 100 851 q 106 868 100 868 l 147 867 q 192 864 178 864 q 286 867 228 864 l 351 868 q 354 863 354 868 q 352 855 354 858 q 347 851 350 851 q 295 844 311 851 q 279 822 279 838 q 286 796 279 813 l 428 454 l 624 728 q 664 814 664 785 q 607 851 664 851 q 603 860 603 851 q 607 868 603 868 l 661 867 q 739 864 706 864 q 788 867 760 864 l 832 868 m 361 917 q 354 920 357 917 q 354 926 351 924 l 500 1054 q 513 1061 504 1061 q 525 1054 521 1061 l 625 926 l 625 925 q 622 917 625 921 q 615 917 618 914 l 500 1003 l 363 917 l 361 917 z "},"Ÿ":{"ha":732,"x_min":100,"x_max":838,"o":"m 832 868 q 838 860 838 868 q 832 851 838 851 q 651 726 744 851 l 431 428 l 375 113 q 369 68 369 76 q 390 27 369 38 q 463 17 410 17 q 468 8 468 17 q 463 0 468 0 q 407 1 426 0 l 326 3 l 242 1 q 188 0 222 0 q 182 8 182 0 q 188 17 182 17 q 257 24 233 17 q 292 51 281 32 q 310 113 303 71 l 363 418 l 221 753 q 172 829 197 807 q 106 851 147 851 q 100 860 100 851 q 106 868 100 868 l 147 867 q 192 864 178 864 q 286 867 228 864 l 351 868 q 354 863 354 868 q 352 855 354 858 q 347 851 350 851 q 295 844 311 851 q 279 822 279 838 q 286 796 279 813 l 428 454 l 624 728 q 664 814 664 785 q 607 851 664 851 q 603 860 603 851 q 607 868 603 868 l 661 867 q 739 864 706 864 q 788 867 760 864 l 832 868 m 406 1000 q 366 1014 381 1000 q 351 1053 351 1028 q 366 1092 351 1078 q 406 1106 381 1106 q 446 1092 432 1106 q 460 1053 460 1078 q 446 1014 460 1028 q 406 1000 432 1000 m 613 1000 q 572 1014 586 1000 q 557 1053 557 1028 q 572 1092 557 1078 q 613 1106 586 1106 q 653 1092 639 1106 q 667 1053 667 1078 q 653 1014 667 1028 q 613 1000 639 1000 z "},"Ẏ":{"ha":732,"x_min":100,"x_max":838,"o":"m 832 868 q 838 860 838 868 q 832 851 838 851 q 651 726 744 851 l 431 428 l 375 113 q 369 68 369 76 q 390 27 369 38 q 463 17 410 17 q 468 8 468 17 q 463 0 468 0 q 407 1 426 0 l 326 3 l 242 1 q 188 0 222 0 q 182 8 182 0 q 188 17 182 17 q 257 24 233 17 q 292 51 281 32 q 310 113 303 71 l 363 418 l 221 753 q 172 829 197 807 q 106 851 147 851 q 100 860 100 851 q 106 868 100 868 l 147 867 q 192 864 178 864 q 286 867 228 864 l 351 868 q 354 863 354 868 q 352 855 354 858 q 347 851 350 851 q 295 844 311 851 q 279 822 279 838 q 286 796 279 813 l 428 454 l 624 728 q 664 814 664 785 q 607 851 664 851 q 603 860 603 851 q 607 868 603 868 l 661 867 q 739 864 706 864 q 788 867 760 864 l 832 868 m 497 983 q 457 997 472 983 q 442 1036 442 1011 q 457 1075 442 1061 q 497 1089 472 1089 q 538 1075 524 1089 q 551 1036 551 1061 q 538 997 551 1011 q 497 983 524 983 z "},"Ỵ":{"ha":732,"x_min":100,"x_max":838,"o":"m 832 868 q 838 860 838 868 q 832 851 838 851 q 651 726 744 851 l 431 428 l 375 113 q 369 68 369 76 q 390 27 369 38 q 463 17 410 17 q 468 8 468 17 q 463 0 468 0 q 407 1 426 0 l 326 3 l 242 1 q 188 0 222 0 q 182 8 182 0 q 188 17 182 17 q 257 24 233 17 q 292 51 281 32 q 310 113 303 71 l 363 418 l 221 753 q 172 829 197 807 q 106 851 147 851 q 100 860 100 851 q 106 868 100 868 l 147 867 q 192 864 178 864 q 286 867 228 864 l 351 868 q 354 863 354 868 q 352 855 354 858 q 347 851 350 851 q 295 844 311 851 q 279 822 279 838 q 286 796 279 813 l 428 454 l 624 728 q 664 814 664 785 q 607 851 664 851 q 603 860 603 851 q 607 868 603 868 l 661 867 q 739 864 706 864 q 788 867 760 864 l 832 868 m 308 -257 q 267 -243 282 -257 q 253 -203 253 -229 q 267 -165 253 -179 q 308 -151 282 -151 q 349 -165 335 -151 q 363 -203 363 -179 q 349 -243 363 -229 q 308 -257 335 -257 z "},"Ỳ":{"ha":732,"x_min":100,"x_max":838,"o":"m 832 868 q 838 860 838 868 q 832 851 838 851 q 651 726 744 851 l 431 428 l 375 113 q 369 68 369 76 q 390 27 369 38 q 463 17 410 17 q 468 8 468 17 q 463 0 468 0 q 407 1 426 0 l 326 3 l 242 1 q 188 0 222 0 q 182 8 182 0 q 188 17 182 17 q 257 24 233 17 q 292 51 281 32 q 310 113 303 71 l 363 418 l 221 753 q 172 829 197 807 q 106 851 147 851 q 100 860 100 851 q 106 868 100 868 l 147 867 q 192 864 178 864 q 286 867 228 864 l 351 868 q 354 863 354 868 q 352 855 354 858 q 347 851 350 851 q 295 844 311 851 q 279 822 279 838 q 286 796 279 813 l 428 454 l 624 728 q 664 814 664 785 q 607 851 664 851 q 603 860 603 851 q 607 868 603 868 l 661 867 q 739 864 706 864 q 788 867 760 864 l 832 868 m 604 943 q 346 1050 479 1011 q 357 1062 336 1051 q 405 1081 378 1072 q 438 1086 432 1089 q 471 1060 460 1069 q 613 957 561 990 q 615 953 615 954 q 612 945 615 949 q 604 943 608 942 z "}}}
